<svg width="300" height="300" viewBox="0 0 300 300" fill="none" xmlns="http://www.w3.org/2000/svg">
<g clip-path="url(#clip0_1330_9063)">
<path d="M300 0H0V300H300V0Z" fill="white"/>
<mask id="mask0_1330_9063" style="mask-type:luminance" maskUnits="userSpaceOnUse" x="5" y="5" width="290" height="290">
<path d="M15 95H5V105H15V95Z" fill="white"/>
<path d="M15 105H5V115H15V105Z" fill="white"/>
<path d="M15 115H5V125H15V115Z" fill="white"/>
<path d="M15 125H5V135H15V125Z" fill="white"/>
<path d="M15 155H5V165H15V155Z" fill="white"/>
<path d="M15 165H5V175H15V165Z" fill="white"/>
<path d="M15 185H5V195H15V185Z" fill="white"/>
<path d="M15 195H5V205H15V195Z" fill="white"/>
<path d="M15 205H5V215H15V205Z" fill="white"/>
<path d="M25 105H15V115H25V105Z" fill="white"/>
<path d="M25 115H15V125H25V115Z" fill="white"/>
<path d="M25 165H15V175H25V165Z" fill="white"/>
<path d="M25 185H15V195H25V185Z" fill="white"/>
<path d="M25 195H15V205H25V195Z" fill="white"/>
<path d="M35 85H25V95H35V85Z" fill="white"/>
<path d="M35 95H25V105H35V95Z" fill="white"/>
<path d="M35 105H25V115H35V105Z" fill="white"/>
<path d="M35 145H25V155H35V145Z" fill="white"/>
<path d="M35 155H25V165H35V155Z" fill="white"/>
<path d="M35 165H25V175H35V165Z" fill="white"/>
<path d="M35 175H25V185H35V175Z" fill="white"/>
<path d="M35 195H25V205H35V195Z" fill="white"/>
<path d="M35 205H25V215H35V205Z" fill="white"/>
<path d="M45 95H35V105H45V95Z" fill="white"/>
<path d="M45 145H35V155H45V145Z" fill="white"/>
<path d="M45 155H35V165H45V155Z" fill="white"/>
<path d="M45 205H35V215H45V205Z" fill="white"/>
<path d="M55 85H45V95H55V85Z" fill="white"/>
<path d="M55 125H45V135H55V125Z" fill="white"/>
<path d="M55 135H45V145H55V135Z" fill="white"/>
<path d="M55 145H45V155H55V145Z" fill="white"/>
<path d="M55 175H45V185H55V175Z" fill="white"/>
<path d="M55 185H45V195H55V185Z" fill="white"/>
<path d="M65 85H55V95H65V85Z" fill="white"/>
<path d="M65 105H55V115H65V105Z" fill="white"/>
<path d="M65 135H55V145H65V135Z" fill="white"/>
<path d="M65 145H55V155H65V145Z" fill="white"/>
<path d="M65 165H55V175H65V165Z" fill="white"/>
<path d="M65 175H55V185H65V175Z" fill="white"/>
<path d="M65 195H55V205H65V195Z" fill="white"/>
<path d="M65 205H55V215H65V205Z" fill="white"/>
<path d="M75 85H65V95H75V85Z" fill="white"/>
<path d="M75 105H65V115H75V105Z" fill="white"/>
<path d="M75 125H65V135H75V125Z" fill="white"/>
<path d="M75 145H65V155H75V145Z" fill="white"/>
<path d="M75 165H65V175H75V165Z" fill="white"/>
<path d="M75 185H65V195H75V185Z" fill="white"/>
<path d="M75 205H65V215H75V205Z" fill="white"/>
<path d="M85 95H75V105H85V95Z" fill="white"/>
<path d="M85 105H75V115H85V105Z" fill="white"/>
<path d="M85 115H75V125H85V115Z" fill="white"/>
<path d="M85 125H75V135H85V125Z" fill="white"/>
<path d="M85 165H75V175H85V165Z" fill="white"/>
<path d="M95 15H85V25H95V15Z" fill="white"/>
<path d="M95 45H85V55H95V45Z" fill="white"/>
<path d="M95 65H85V75H95V65Z" fill="white"/>
<path d="M95 85H85V95H95V85Z" fill="white"/>
<path d="M95 115H85V125H95V115Z" fill="white"/>
<path d="M95 125H85V135H95V125Z" fill="white"/>
<path d="M95 155H85V165H95V155Z" fill="white"/>
<path d="M95 165H85V175H95V165Z" fill="white"/>
<path d="M95 195H85V205H95V195Z" fill="white"/>
<path d="M95 215H85V225H95V215Z" fill="white"/>
<path d="M95 235H85V245H95V235Z" fill="white"/>
<path d="M95 245H85V255H95V245Z" fill="white"/>
<path d="M95 265H85V275H95V265Z" fill="white"/>
<path d="M105 25H95V35H105V25Z" fill="white"/>
<path d="M105 35H95V45H105V35Z" fill="white"/>
<path d="M105 55H95V65H105V55Z" fill="white"/>
<path d="M105 75H95V85H105V75Z" fill="white"/>
<path d="M105 85H95V95H105V85Z" fill="white"/>
<path d="M105 95H95V105H105V95Z" fill="white"/>
<path d="M105 115H95V125H105V115Z" fill="white"/>
<path d="M105 145H95V155H105V145Z" fill="white"/>
<path d="M105 165H95V175H105V165Z" fill="white"/>
<path d="M105 175H95V185H105V175Z" fill="white"/>
<path d="M105 185H95V195H105V185Z" fill="white"/>
<path d="M105 195H95V205H105V195Z" fill="white"/>
<path d="M105 225H95V235H105V225Z" fill="white"/>
<path d="M105 245H95V255H105V245Z" fill="white"/>
<path d="M105 255H95V265H105V255Z" fill="white"/>
<path d="M105 265H95V275H105V265Z" fill="white"/>
<path d="M105 275H95V285H105V275Z" fill="white"/>
<path d="M105 285H95V295H105V285Z" fill="white"/>
<path d="M115 15H105V25H115V15Z" fill="white"/>
<path d="M115 35H105V45H115V35Z" fill="white"/>
<path d="M115 65H105V75H115V65Z" fill="white"/>
<path d="M115 75H105V85H115V75Z" fill="white"/>
<path d="M115 125H105V135H115V125Z" fill="white"/>
<path d="M115 155H105V165H115V155Z" fill="white"/>
<path d="M115 165H105V175H115V165Z" fill="white"/>
<path d="M115 185H105V195H115V185Z" fill="white"/>
<path d="M115 215H105V225H115V215Z" fill="white"/>
<path d="M115 265H105V275H115V265Z" fill="white"/>
<path d="M115 285H105V295H115V285Z" fill="white"/>
<path d="M125 15H115V25H125V15Z" fill="white"/>
<path d="M125 35H115V45H125V35Z" fill="white"/>
<path d="M125 45H115V55H125V45Z" fill="white"/>
<path d="M125 75H115V85H125V75Z" fill="white"/>
<path d="M125 85H115V95H125V85Z" fill="white"/>
<path d="M125 95H115V105H125V95Z" fill="white"/>
<path d="M125 105H115V115H125V105Z" fill="white"/>
<path d="M125 115H115V125H125V115Z" fill="white"/>
<path d="M125 155H115V165H125V155Z" fill="white"/>
<path d="M125 165H115V175H125V165Z" fill="white"/>
<path d="M125 175H115V185H125V175Z" fill="white"/>
<path d="M125 195H115V205H125V195Z" fill="white"/>
<path d="M125 215H115V225H125V215Z" fill="white"/>
<path d="M125 245H115V255H125V245Z" fill="white"/>
<path d="M125 275H115V285H125V275Z" fill="white"/>
<path d="M125 285H115V295H125V285Z" fill="white"/>
<path d="M135 35H125V45H135V35Z" fill="white"/>
<path d="M135 65H125V75H135V65Z" fill="white"/>
<path d="M135 85H125V95H135V85Z" fill="white"/>
<path d="M135 95H125V105H135V95Z" fill="white"/>
<path d="M135 125H125V135H135V125Z" fill="white"/>
<path d="M135 135H125V145H135V135Z" fill="white"/>
<path d="M135 155H125V165H135V155Z" fill="white"/>
<path d="M135 165H125V175H135V165Z" fill="white"/>
<path d="M135 175H125V185H135V175Z" fill="white"/>
<path d="M135 235H125V245H135V235Z" fill="white"/>
<path d="M135 255H125V265H135V255Z" fill="white"/>
<path d="M135 285H125V295H135V285Z" fill="white"/>
<path d="M145 5H135V15H145V5Z" fill="white"/>
<path d="M145 25H135V35H145V25Z" fill="white"/>
<path d="M145 45H135V55H145V45Z" fill="white"/>
<path d="M145 85H135V95H145V85Z" fill="white"/>
<path d="M145 125H135V135H145V125Z" fill="white"/>
<path d="M145 145H135V155H145V145Z" fill="white"/>
<path d="M145 225H135V235H145V225Z" fill="white"/>
<path d="M145 245H135V255H145V245Z" fill="white"/>
<path d="M145 265H135V275H145V265Z" fill="white"/>
<path d="M145 275H135V285H145V275Z" fill="white"/>
<path d="M145 285H135V295H145V285Z" fill="white"/>
<path d="M155 15H145V25H155V15Z" fill="white"/>
<path d="M155 35H145V45H155V35Z" fill="white"/>
<path d="M155 65H145V75H155V65Z" fill="white"/>
<path d="M155 85H145V95H155V85Z" fill="white"/>
<path d="M155 105H145V115H155V105Z" fill="white"/>
<path d="M155 115H145V125H155V115Z" fill="white"/>
<path d="M155 125H145V135H155V125Z" fill="white"/>
<path d="M155 135H145V145H155V135Z" fill="white"/>
<path d="M155 145H145V155H155V145Z" fill="white"/>
<path d="M155 175H145V185H155V175Z" fill="white"/>
<path d="M155 205H145V215H155V205Z" fill="white"/>
<path d="M155 245H145V255H155V245Z" fill="white"/>
<path d="M155 285H145V295H155V285Z" fill="white"/>
<path d="M165 45H155V55H165V45Z" fill="white"/>
<path d="M165 75H155V85H165V75Z" fill="white"/>
<path d="M165 85H155V95H165V85Z" fill="white"/>
<path d="M165 95H155V105H165V95Z" fill="white"/>
<path d="M165 115H155V125H165V115Z" fill="white"/>
<path d="M165 125H155V135H165V125Z" fill="white"/>
<path d="M165 155H155V165H165V155Z" fill="white"/>
<path d="M165 175H155V185H165V175Z" fill="white"/>
<path d="M165 185H155V195H165V185Z" fill="white"/>
<path d="M165 235H155V245H165V235Z" fill="white"/>
<path d="M165 255H155V265H165V255Z" fill="white"/>
<path d="M165 285H155V295H165V285Z" fill="white"/>
<path d="M175 5H165V15H175V5Z" fill="white"/>
<path d="M175 35H165V45H175V35Z" fill="white"/>
<path d="M175 65H165V75H175V65Z" fill="white"/>
<path d="M175 85H165V95H175V85Z" fill="white"/>
<path d="M175 95H165V105H175V95Z" fill="white"/>
<path d="M175 105H165V115H175V105Z" fill="white"/>
<path d="M175 115H165V125H175V115Z" fill="white"/>
<path d="M175 135H165V145H175V135Z" fill="white"/>
<path d="M175 155H165V165H175V155Z" fill="white"/>
<path d="M175 185H165V195H175V185Z" fill="white"/>
<path d="M175 195H165V205H175V195Z" fill="white"/>
<path d="M175 205H165V215H175V205Z" fill="white"/>
<path d="M175 275H165V285H175V275Z" fill="white"/>
<path d="M185 5H175V15H185V5Z" fill="white"/>
<path d="M185 35H175V45H185V35Z" fill="white"/>
<path d="M185 55H175V65H185V55Z" fill="white"/>
<path d="M185 75H175V85H185V75Z" fill="white"/>
<path d="M185 85H175V95H185V85Z" fill="white"/>
<path d="M185 135H175V145H185V135Z" fill="white"/>
<path d="M185 165H175V175H185V165Z" fill="white"/>
<path d="M185 215H175V225H185V215Z" fill="white"/>
<path d="M185 225H175V235H185V225Z" fill="white"/>
<path d="M185 235H175V245H185V235Z" fill="white"/>
<path d="M185 245H175V255H185V245Z" fill="white"/>
<path d="M185 285H175V295H185V285Z" fill="white"/>
<path d="M195 35H185V45H195V35Z" fill="white"/>
<path d="M195 65H185V75H195V65Z" fill="white"/>
<path d="M195 85H185V95H195V85Z" fill="white"/>
<path d="M195 95H185V105H195V95Z" fill="white"/>
<path d="M195 115H185V125H195V115Z" fill="white"/>
<path d="M195 135H185V145H195V135Z" fill="white"/>
<path d="M195 145H185V155H195V145Z" fill="white"/>
<path d="M195 165H185V175H195V165Z" fill="white"/>
<path d="M195 245H185V255H195V245Z" fill="white"/>
<path d="M195 265H185V275H195V265Z" fill="white"/>
<path d="M195 285H185V295H195V285Z" fill="white"/>
<path d="M205 95H195V105H205V95Z" fill="white"/>
<path d="M205 125H195V135H205V125Z" fill="white"/>
<path d="M205 135H195V145H205V135Z" fill="white"/>
<path d="M205 175H195V185H205V175Z" fill="white"/>
<path d="M205 185H195V195H205V185Z" fill="white"/>
<path d="M205 245H195V255H205V245Z" fill="white"/>
<path d="M205 255H195V265H205V255Z" fill="white"/>
<path d="M215 5H205V15H215V5Z" fill="white"/>
<path d="M215 15H205V25H215V15Z" fill="white"/>
<path d="M215 65H205V75H215V65Z" fill="white"/>
<path d="M215 75H205V85H215V75Z" fill="white"/>
<path d="M215 85H205V95H215V85Z" fill="white"/>
<path d="M215 115H205V125H215V115Z" fill="white"/>
<path d="M215 125H205V135H215V125Z" fill="white"/>
<path d="M215 145H205V155H215V145Z" fill="white"/>
<path d="M215 155H205V165H215V155Z" fill="white"/>
<path d="M215 175H205V185H215V175Z" fill="white"/>
<path d="M215 195H205V205H215V195Z" fill="white"/>
<path d="M215 205H205V215H215V205Z" fill="white"/>
<path d="M215 215H205V225H215V215Z" fill="white"/>
<path d="M215 225H205V235H215V225Z" fill="white"/>
<path d="M215 235H205V245H215V235Z" fill="white"/>
<path d="M215 245H205V255H215V245Z" fill="white"/>
<path d="M215 255H205V265H215V255Z" fill="white"/>
<path d="M215 285H205V295H215V285Z" fill="white"/>
<path d="M225 85H215V95H225V85Z" fill="white"/>
<path d="M225 95H215V105H225V95Z" fill="white"/>
<path d="M225 135H215V145H225V135Z" fill="white"/>
<path d="M225 155H215V165H225V155Z" fill="white"/>
<path d="M225 165H215V175H225V165Z" fill="white"/>
<path d="M225 175H215V185H225V175Z" fill="white"/>
<path d="M225 185H215V195H225V185Z" fill="white"/>
<path d="M225 195H215V205H225V195Z" fill="white"/>
<path d="M225 205H215V215H225V205Z" fill="white"/>
<path d="M225 245H215V255H225V245Z" fill="white"/>
<path d="M225 265H215V275H225V265Z" fill="white"/>
<path d="M225 285H215V295H225V285Z" fill="white"/>
<path d="M235 95H225V105H235V95Z" fill="white"/>
<path d="M235 105H225V115H235V105Z" fill="white"/>
<path d="M235 155H225V165H235V155Z" fill="white"/>
<path d="M235 185H225V195H235V185Z" fill="white"/>
<path d="M235 195H225V205H235V195Z" fill="white"/>
<path d="M235 205H225V215H235V205Z" fill="white"/>
<path d="M235 225H225V235H235V225Z" fill="white"/>
<path d="M235 245H225V255H235V245Z" fill="white"/>
<path d="M235 285H225V295H235V285Z" fill="white"/>
<path d="M245 125H235V135H245V125Z" fill="white"/>
<path d="M245 135H235V145H245V135Z" fill="white"/>
<path d="M245 145H235V155H245V145Z" fill="white"/>
<path d="M245 155H235V165H245V155Z" fill="white"/>
<path d="M245 165H235V175H245V165Z" fill="white"/>
<path d="M245 195H235V205H245V195Z" fill="white"/>
<path d="M245 205H235V215H245V205Z" fill="white"/>
<path d="M245 245H235V255H245V245Z" fill="white"/>
<path d="M245 255H235V265H245V255Z" fill="white"/>
<path d="M245 275H235V285H245V275Z" fill="white"/>
<path d="M245 285H235V295H245V285Z" fill="white"/>
<path d="M255 85H245V95H255V85Z" fill="white"/>
<path d="M255 105H245V115H255V105Z" fill="white"/>
<path d="M255 115H245V125H255V115Z" fill="white"/>
<path d="M255 125H245V135H255V125Z" fill="white"/>
<path d="M255 165H245V175H255V165Z" fill="white"/>
<path d="M255 195H245V205H255V195Z" fill="white"/>
<path d="M255 205H245V215H255V205Z" fill="white"/>
<path d="M255 215H245V225H255V215Z" fill="white"/>
<path d="M255 225H245V235H255V225Z" fill="white"/>
<path d="M255 235H245V245H255V235Z" fill="white"/>
<path d="M255 245H245V255H255V245Z" fill="white"/>
<path d="M255 275H245V285H255V275Z" fill="white"/>
<path d="M255 285H245V295H255V285Z" fill="white"/>
<path d="M265 115H255V125H265V115Z" fill="white"/>
<path d="M265 135H255V145H265V135Z" fill="white"/>
<path d="M265 145H255V155H265V145Z" fill="white"/>
<path d="M265 185H255V195H265V185Z" fill="white"/>
<path d="M265 235H255V245H265V235Z" fill="white"/>
<path d="M265 255H255V265H265V255Z" fill="white"/>
<path d="M265 265H255V275H265V265Z" fill="white"/>
<path d="M265 275H255V285H265V275Z" fill="white"/>
<path d="M275 95H265V105H275V95Z" fill="white"/>
<path d="M275 105H265V115H275V105Z" fill="white"/>
<path d="M275 115H265V125H275V115Z" fill="white"/>
<path d="M275 155H265V165H275V155Z" fill="white"/>
<path d="M275 195H265V205H275V195Z" fill="white"/>
<path d="M275 205H265V215H275V205Z" fill="white"/>
<path d="M275 215H265V225H275V215Z" fill="white"/>
<path d="M275 255H265V265H275V255Z" fill="white"/>
<path d="M275 265H265V275H275V265Z" fill="white"/>
<path d="M275 275H265V285H275V275Z" fill="white"/>
<path d="M275 285H265V295H275V285Z" fill="white"/>
<path d="M285 85H275V95H285V85Z" fill="white"/>
<path d="M285 105H275V115H285V105Z" fill="white"/>
<path d="M285 135H275V145H285V135Z" fill="white"/>
<path d="M285 155H275V165H285V155Z" fill="white"/>
<path d="M285 165H275V175H285V165Z" fill="white"/>
<path d="M285 175H275V185H285V175Z" fill="white"/>
<path d="M285 185H275V195H285V185Z" fill="white"/>
<path d="M285 195H275V205H285V195Z" fill="white"/>
<path d="M285 205H275V215H285V205Z" fill="white"/>
<path d="M285 225H275V235H285V225Z" fill="white"/>
<path d="M285 235H275V245H285V235Z" fill="white"/>
<path d="M285 255H275V265H285V255Z" fill="white"/>
<path d="M285 275H275V285H285V275Z" fill="white"/>
<path d="M285 285H275V295H285V285Z" fill="white"/>
<path d="M295 95H285V105H295V95Z" fill="white"/>
<path d="M295 125H285V135H295V125Z" fill="white"/>
<path d="M295 175H285V185H295V175Z" fill="white"/>
<path d="M295 205H285V215H295V205Z" fill="white"/>
<path d="M295 225H285V235H295V225Z" fill="white"/>
<path d="M295 245H285V255H295V245Z" fill="white"/>
<path d="M295 255H285V265H295V255Z" fill="white"/>
<path d="M295 275H285V285H295V275Z" fill="white"/>
<path fill-rule="evenodd" clip-rule="evenodd" d="M5 5V75H75V5H5ZM15 15H65V65H15V15Z" fill="white"/>
<path d="M35 25H25V35H35V25Z" fill="white"/>
<path d="M35 35H25V45H35V35Z" fill="white"/>
<path d="M35 45H25V55H35V45Z" fill="white"/>
<path d="M45 25H35V35H45V25Z" fill="white"/>
<path d="M45 35H35V45H45V35Z" fill="white"/>
<path d="M45 45H35V55H45V45Z" fill="white"/>
<path d="M55 25H45V35H55V25Z" fill="white"/>
<path d="M55 35H45V45H55V35Z" fill="white"/>
<path d="M55 45H45V55H55V45Z" fill="white"/>
<path fill-rule="evenodd" clip-rule="evenodd" d="M295 5L225 5V75H295V5ZM285 15V65H235V15L285 15Z" fill="white"/>
<path d="M255 25H245V35H255V25Z" fill="white"/>
<path d="M255 35H245V45H255V35Z" fill="white"/>
<path d="M255 45H245V55H255V45Z" fill="white"/>
<path d="M265 25H255V35H265V25Z" fill="white"/>
<path d="M265 35H255V45H265V35Z" fill="white"/>
<path d="M265 45H255V55H265V45Z" fill="white"/>
<path d="M275 25H265V35H275V25Z" fill="white"/>
<path d="M275 35H265V45H275V35Z" fill="white"/>
<path d="M275 45H265V55H275V45Z" fill="white"/>
<path fill-rule="evenodd" clip-rule="evenodd" d="M5 295H75V225H5L5 295ZM15 285L15 235H65V285H15Z" fill="white"/>
<path d="M35 245H25V255H35V245Z" fill="white"/>
<path d="M35 255H25V265H35V255Z" fill="white"/>
<path d="M35 265H25V275H35V265Z" fill="white"/>
<path d="M45 245H35V255H45V245Z" fill="white"/>
<path d="M45 255H35V265H45V255Z" fill="white"/>
<path d="M45 265H35V275H45V265Z" fill="white"/>
<path d="M55 245H45V255H55V245Z" fill="white"/>
<path d="M55 255H45V265H55V255Z" fill="white"/>
<path d="M55 265H45V275H55V265Z" fill="white"/>
</mask>
<g mask="url(#mask0_1330_9063)">
<path d="M300 0H0V300H300V0Z" fill="black"/>
</g>
</g>
<defs>
<clipPath id="clip0_1330_9063">
<rect width="300" height="300" fill="white"/>
</clipPath>
</defs>
</svg>
