<svg width="300" height="300" viewBox="0 0 300 300" fill="none" xmlns="http://www.w3.org/2000/svg">
<g clip-path="url(#clip0_1330_7653)">
<path d="M300 0H0V300H300V0Z" fill="white"/>
<mask id="mask0_1330_7653" style="mask-type:luminance" maskUnits="userSpaceOnUse" x="5" y="5" width="290" height="290">
<path d="M15 85H5V95H15V85Z" fill="white"/>
<path d="M15 115H5V125H15V115Z" fill="white"/>
<path d="M15 125H5V135H15V125Z" fill="white"/>
<path d="M15 145H5V155H15V145Z" fill="white"/>
<path d="M15 155H5V165H15V155Z" fill="white"/>
<path d="M15 175H5V185H15V175Z" fill="white"/>
<path d="M15 185H5V195H15V185Z" fill="white"/>
<path d="M15 195H5V205H15V195Z" fill="white"/>
<path d="M15 205H5V215H15V205Z" fill="white"/>
<path d="M25 85H15V95H25V85Z" fill="white"/>
<path d="M25 105H15V115H25V105Z" fill="white"/>
<path d="M25 115H15V125H25V115Z" fill="white"/>
<path d="M25 125H15V135H25V125Z" fill="white"/>
<path d="M25 135H15V145H25V135Z" fill="white"/>
<path d="M25 145H15V155H25V145Z" fill="white"/>
<path d="M25 185H15V195H25V185Z" fill="white"/>
<path d="M25 205H15V215H25V205Z" fill="white"/>
<path d="M35 95H25V105H35V95Z" fill="white"/>
<path d="M35 125H25V135H35V125Z" fill="white"/>
<path d="M35 145H25V155H35V145Z" fill="white"/>
<path d="M35 155H25V165H35V155Z" fill="white"/>
<path d="M35 185H25V195H35V185Z" fill="white"/>
<path d="M45 125H35V135H45V125Z" fill="white"/>
<path d="M45 175H35V185H45V175Z" fill="white"/>
<path d="M45 185H35V195H45V185Z" fill="white"/>
<path d="M55 95H45V105H55V95Z" fill="white"/>
<path d="M55 125H45V135H55V125Z" fill="white"/>
<path d="M55 155H45V165H55V155Z" fill="white"/>
<path d="M55 175H45V185H55V175Z" fill="white"/>
<path d="M55 185H45V195H55V185Z" fill="white"/>
<path d="M55 195H45V205H55V195Z" fill="white"/>
<path d="M55 205H45V215H55V205Z" fill="white"/>
<path d="M65 95H55V105H65V95Z" fill="white"/>
<path d="M65 135H55V145H65V135Z" fill="white"/>
<path d="M65 145H55V155H65V145Z" fill="white"/>
<path d="M65 165H55V175H65V165Z" fill="white"/>
<path d="M65 175H55V185H65V175Z" fill="white"/>
<path d="M75 85H65V95H75V85Z" fill="white"/>
<path d="M75 105H65V115H75V105Z" fill="white"/>
<path d="M75 125H65V135H75V125Z" fill="white"/>
<path d="M75 145H65V155H75V145Z" fill="white"/>
<path d="M75 165H65V175H75V165Z" fill="white"/>
<path d="M75 185H65V195H75V185Z" fill="white"/>
<path d="M75 205H65V215H75V205Z" fill="white"/>
<path d="M85 135H75V145H85V135Z" fill="white"/>
<path d="M85 155H75V165H85V155Z" fill="white"/>
<path d="M85 175H75V185H85V175Z" fill="white"/>
<path d="M85 185H75V195H85V185Z" fill="white"/>
<path d="M95 15H85V25H95V15Z" fill="white"/>
<path d="M95 65H85V75H95V65Z" fill="white"/>
<path d="M95 75H85V85H95V75Z" fill="white"/>
<path d="M95 85H85V95H95V85Z" fill="white"/>
<path d="M95 95H85V105H95V95Z" fill="white"/>
<path d="M95 105H85V115H95V105Z" fill="white"/>
<path d="M95 115H85V125H95V115Z" fill="white"/>
<path d="M95 135H85V145H95V135Z" fill="white"/>
<path d="M95 145H85V155H95V145Z" fill="white"/>
<path d="M95 205H85V215H95V205Z" fill="white"/>
<path d="M95 215H85V225H95V215Z" fill="white"/>
<path d="M95 275H85V285H95V275Z" fill="white"/>
<path d="M95 285H85V295H95V285Z" fill="white"/>
<path d="M105 35H95V45H105V35Z" fill="white"/>
<path d="M105 45H95V55H105V45Z" fill="white"/>
<path d="M105 85H95V95H105V85Z" fill="white"/>
<path d="M105 95H95V105H105V95Z" fill="white"/>
<path d="M105 105H95V115H105V105Z" fill="white"/>
<path d="M105 115H95V125H105V115Z" fill="white"/>
<path d="M105 125H95V135H105V125Z" fill="white"/>
<path d="M105 135H95V145H105V135Z" fill="white"/>
<path d="M105 145H95V155H105V145Z" fill="white"/>
<path d="M105 155H95V165H105V155Z" fill="white"/>
<path d="M105 165H95V175H105V165Z" fill="white"/>
<path d="M105 175H95V185H105V175Z" fill="white"/>
<path d="M105 185H95V195H105V185Z" fill="white"/>
<path d="M105 195H95V205H105V195Z" fill="white"/>
<path d="M105 205H95V215H105V205Z" fill="white"/>
<path d="M105 245H95V255H105V245Z" fill="white"/>
<path d="M105 265H95V275H105V265Z" fill="white"/>
<path d="M105 275H95V285H105V275Z" fill="white"/>
<path d="M115 5H105V15H115V5Z" fill="white"/>
<path d="M115 15H105V25H115V15Z" fill="white"/>
<path d="M115 25H105V35H115V25Z" fill="white"/>
<path d="M115 35H105V45H115V35Z" fill="white"/>
<path d="M115 45H105V55H115V45Z" fill="white"/>
<path d="M115 55H105V65H115V55Z" fill="white"/>
<path d="M115 65H105V75H115V65Z" fill="white"/>
<path d="M115 75H105V85H115V75Z" fill="white"/>
<path d="M115 85H105V95H115V85Z" fill="white"/>
<path d="M115 105H105V115H115V105Z" fill="white"/>
<path d="M115 165H105V175H115V165Z" fill="white"/>
<path d="M115 175H105V185H115V175Z" fill="white"/>
<path d="M115 215H105V225H115V215Z" fill="white"/>
<path d="M115 225H105V235H115V225Z" fill="white"/>
<path d="M115 235H105V245H115V235Z" fill="white"/>
<path d="M115 245H105V255H115V245Z" fill="white"/>
<path d="M115 265H105V275H115V265Z" fill="white"/>
<path d="M125 5H115V15H125V5Z" fill="white"/>
<path d="M125 15H115V25H125V15Z" fill="white"/>
<path d="M125 25H115V35H125V25Z" fill="white"/>
<path d="M125 35H115V45H125V35Z" fill="white"/>
<path d="M125 55H115V65H125V55Z" fill="white"/>
<path d="M125 75H115V85H125V75Z" fill="white"/>
<path d="M125 85H115V95H125V85Z" fill="white"/>
<path d="M125 165H115V175H125V165Z" fill="white"/>
<path d="M125 185H115V195H125V185Z" fill="white"/>
<path d="M125 195H115V205H125V195Z" fill="white"/>
<path d="M125 225H115V235H125V225Z" fill="white"/>
<path d="M125 235H115V245H125V235Z" fill="white"/>
<path d="M135 25H125V35H135V25Z" fill="white"/>
<path d="M135 45H125V55H135V45Z" fill="white"/>
<path d="M135 55H125V65H135V55Z" fill="white"/>
<path d="M135 65H125V75H135V65Z" fill="white"/>
<path d="M135 75H125V85H135V75Z" fill="white"/>
<path d="M135 85H125V95H135V85Z" fill="white"/>
<path d="M135 105H125V115H135V105Z" fill="white"/>
<path d="M135 125H125V135H135V125Z" fill="white"/>
<path d="M135 135H125V145H135V135Z" fill="white"/>
<path d="M135 155H125V165H135V155Z" fill="white"/>
<path d="M135 215H125V225H135V215Z" fill="white"/>
<path d="M135 225H125V235H135V225Z" fill="white"/>
<path d="M135 255H125V265H135V255Z" fill="white"/>
<path d="M135 275H125V285H135V275Z" fill="white"/>
<path d="M145 15H135V25H145V15Z" fill="white"/>
<path d="M145 45H135V55H145V45Z" fill="white"/>
<path d="M145 75H135V85H145V75Z" fill="white"/>
<path d="M145 125H135V135H145V125Z" fill="white"/>
<path d="M145 135H135V145H145V135Z" fill="white"/>
<path d="M145 195H135V205H145V195Z" fill="white"/>
<path d="M145 205H135V215H145V205Z" fill="white"/>
<path d="M145 225H135V235H145V225Z" fill="white"/>
<path d="M145 245H135V255H145V245Z" fill="white"/>
<path d="M145 255H135V265H145V255Z" fill="white"/>
<path d="M145 275H135V285H145V275Z" fill="white"/>
<path d="M145 285H135V295H145V285Z" fill="white"/>
<path d="M155 35H145V45H155V35Z" fill="white"/>
<path d="M155 55H145V65H155V55Z" fill="white"/>
<path d="M155 65H145V75H155V65Z" fill="white"/>
<path d="M155 85H145V95H155V85Z" fill="white"/>
<path d="M155 95H145V105H155V95Z" fill="white"/>
<path d="M155 135H145V145H155V135Z" fill="white"/>
<path d="M155 165H145V175H155V165Z" fill="white"/>
<path d="M155 185H145V195H155V185Z" fill="white"/>
<path d="M155 205H145V215H155V205Z" fill="white"/>
<path d="M155 225H145V235H155V225Z" fill="white"/>
<path d="M155 235H145V245H155V235Z" fill="white"/>
<path d="M165 25H155V35H165V25Z" fill="white"/>
<path d="M165 35H155V45H165V35Z" fill="white"/>
<path d="M165 45H155V55H165V45Z" fill="white"/>
<path d="M165 75H155V85H165V75Z" fill="white"/>
<path d="M165 105H155V115H165V105Z" fill="white"/>
<path d="M165 205H155V215H165V205Z" fill="white"/>
<path d="M165 215H155V225H165V215Z" fill="white"/>
<path d="M165 245H155V255H165V245Z" fill="white"/>
<path d="M165 255H155V265H165V255Z" fill="white"/>
<path d="M165 265H155V275H165V265Z" fill="white"/>
<path d="M165 275H155V285H165V275Z" fill="white"/>
<path d="M165 285H155V295H165V285Z" fill="white"/>
<path d="M175 15H165V25H175V15Z" fill="white"/>
<path d="M175 25H165V35H175V25Z" fill="white"/>
<path d="M175 35H165V45H175V35Z" fill="white"/>
<path d="M175 45H165V55H175V45Z" fill="white"/>
<path d="M175 55H165V65H175V55Z" fill="white"/>
<path d="M175 65H165V75H175V65Z" fill="white"/>
<path d="M175 75H165V85H175V75Z" fill="white"/>
<path d="M175 85H165V95H175V85Z" fill="white"/>
<path d="M175 95H165V105H175V95Z" fill="white"/>
<path d="M175 105H165V115H175V105Z" fill="white"/>
<path d="M175 115H165V125H175V115Z" fill="white"/>
<path d="M175 125H165V135H175V125Z" fill="white"/>
<path d="M175 145H165V155H175V145Z" fill="white"/>
<path d="M175 185H165V195H175V185Z" fill="white"/>
<path d="M175 215H165V225H175V215Z" fill="white"/>
<path d="M175 255H165V265H175V255Z" fill="white"/>
<path d="M175 265H165V275H175V265Z" fill="white"/>
<path d="M185 5H175V15H185V5Z" fill="white"/>
<path d="M185 75H175V85H185V75Z" fill="white"/>
<path d="M185 85H175V95H185V85Z" fill="white"/>
<path d="M185 105H175V115H185V105Z" fill="white"/>
<path d="M185 125H175V135H185V125Z" fill="white"/>
<path d="M185 145H175V155H185V145Z" fill="white"/>
<path d="M185 165H175V175H185V165Z" fill="white"/>
<path d="M185 205H175V215H185V205Z" fill="white"/>
<path d="M185 215H175V225H185V215Z" fill="white"/>
<path d="M185 225H175V235H185V225Z" fill="white"/>
<path d="M185 235H175V245H185V235Z" fill="white"/>
<path d="M185 245H175V255H185V245Z" fill="white"/>
<path d="M185 255H175V265H185V255Z" fill="white"/>
<path d="M185 265H175V275H185V265Z" fill="white"/>
<path d="M185 285H175V295H185V285Z" fill="white"/>
<path d="M195 5H185V15H195V5Z" fill="white"/>
<path d="M195 15H185V25H195V15Z" fill="white"/>
<path d="M195 35H185V45H195V35Z" fill="white"/>
<path d="M195 65H185V75H195V65Z" fill="white"/>
<path d="M195 75H185V85H195V75Z" fill="white"/>
<path d="M195 95H185V105H195V95Z" fill="white"/>
<path d="M195 165H185V175H195V165Z" fill="white"/>
<path d="M195 185H185V195H195V185Z" fill="white"/>
<path d="M195 195H185V205H195V195Z" fill="white"/>
<path d="M195 255H185V265H195V255Z" fill="white"/>
<path d="M195 285H185V295H195V285Z" fill="white"/>
<path d="M205 5H195V15H205V5Z" fill="white"/>
<path d="M205 25H195V35H205V25Z" fill="white"/>
<path d="M205 35H195V45H205V35Z" fill="white"/>
<path d="M205 45H195V55H205V45Z" fill="white"/>
<path d="M205 55H195V65H205V55Z" fill="white"/>
<path d="M205 85H195V95H205V85Z" fill="white"/>
<path d="M205 105H195V115H205V105Z" fill="white"/>
<path d="M205 115H195V125H205V115Z" fill="white"/>
<path d="M205 125H195V135H205V125Z" fill="white"/>
<path d="M205 135H195V145H205V135Z" fill="white"/>
<path d="M205 155H195V165H205V155Z" fill="white"/>
<path d="M205 165H195V175H205V165Z" fill="white"/>
<path d="M205 195H195V205H205V195Z" fill="white"/>
<path d="M205 205H195V215H205V205Z" fill="white"/>
<path d="M205 215H195V225H205V215Z" fill="white"/>
<path d="M205 225H195V235H205V225Z" fill="white"/>
<path d="M205 235H195V245H205V235Z" fill="white"/>
<path d="M205 255H195V265H205V255Z" fill="white"/>
<path d="M205 275H195V285H205V275Z" fill="white"/>
<path d="M205 285H195V295H205V285Z" fill="white"/>
<path d="M215 5H205V15H215V5Z" fill="white"/>
<path d="M215 35H205V45H215V35Z" fill="white"/>
<path d="M215 65H205V75H215V65Z" fill="white"/>
<path d="M215 75H205V85H215V75Z" fill="white"/>
<path d="M215 95H205V105H215V95Z" fill="white"/>
<path d="M215 115H205V125H215V115Z" fill="white"/>
<path d="M215 125H205V135H215V125Z" fill="white"/>
<path d="M215 135H205V145H215V135Z" fill="white"/>
<path d="M215 175H205V185H215V175Z" fill="white"/>
<path d="M215 205H205V215H215V205Z" fill="white"/>
<path d="M215 215H205V225H215V215Z" fill="white"/>
<path d="M215 225H205V235H215V225Z" fill="white"/>
<path d="M215 235H205V245H215V235Z" fill="white"/>
<path d="M215 245H205V255H215V245Z" fill="white"/>
<path d="M215 265H205V275H215V265Z" fill="white"/>
<path d="M215 275H205V285H215V275Z" fill="white"/>
<path d="M215 285H205V295H215V285Z" fill="white"/>
<path d="M225 85H215V95H225V85Z" fill="white"/>
<path d="M225 95H215V105H225V95Z" fill="white"/>
<path d="M225 105H215V115H225V105Z" fill="white"/>
<path d="M225 155H215V165H225V155Z" fill="white"/>
<path d="M225 175H215V185H225V175Z" fill="white"/>
<path d="M225 185H215V195H225V185Z" fill="white"/>
<path d="M225 205H215V215H225V205Z" fill="white"/>
<path d="M225 245H215V255H225V245Z" fill="white"/>
<path d="M225 255H215V265H225V255Z" fill="white"/>
<path d="M225 265H215V275H225V265Z" fill="white"/>
<path d="M235 85H225V95H235V85Z" fill="white"/>
<path d="M235 95H225V105H235V95Z" fill="white"/>
<path d="M235 105H225V115H235V105Z" fill="white"/>
<path d="M235 115H225V125H235V115Z" fill="white"/>
<path d="M235 125H225V135H235V125Z" fill="white"/>
<path d="M235 135H225V145H235V135Z" fill="white"/>
<path d="M235 145H225V155H235V145Z" fill="white"/>
<path d="M235 155H225V165H235V155Z" fill="white"/>
<path d="M235 165H225V175H235V165Z" fill="white"/>
<path d="M235 175H225V185H235V175Z" fill="white"/>
<path d="M235 195H225V205H235V195Z" fill="white"/>
<path d="M235 205H225V215H235V205Z" fill="white"/>
<path d="M235 225H225V235H235V225Z" fill="white"/>
<path d="M235 245H225V255H235V245Z" fill="white"/>
<path d="M245 115H235V125H245V115Z" fill="white"/>
<path d="M245 135H235V145H245V135Z" fill="white"/>
<path d="M245 175H235V185H245V175Z" fill="white"/>
<path d="M245 185H235V195H245V185Z" fill="white"/>
<path d="M245 195H235V205H245V195Z" fill="white"/>
<path d="M245 205H235V215H245V205Z" fill="white"/>
<path d="M245 245H235V255H245V245Z" fill="white"/>
<path d="M245 255H235V265H245V255Z" fill="white"/>
<path d="M255 125H245V135H255V125Z" fill="white"/>
<path d="M255 145H245V155H255V145Z" fill="white"/>
<path d="M255 155H245V165H255V155Z" fill="white"/>
<path d="M255 175H245V185H255V175Z" fill="white"/>
<path d="M255 195H245V205H255V195Z" fill="white"/>
<path d="M255 205H245V215H255V205Z" fill="white"/>
<path d="M255 215H245V225H255V215Z" fill="white"/>
<path d="M255 225H245V235H255V225Z" fill="white"/>
<path d="M255 235H245V245H255V235Z" fill="white"/>
<path d="M255 245H245V255H255V245Z" fill="white"/>
<path d="M265 115H255V125H265V115Z" fill="white"/>
<path d="M265 145H255V155H265V145Z" fill="white"/>
<path d="M265 185H255V195H265V185Z" fill="white"/>
<path d="M265 195H255V205H265V195Z" fill="white"/>
<path d="M265 205H255V215H265V205Z" fill="white"/>
<path d="M265 235H255V245H265V235Z" fill="white"/>
<path d="M265 275H255V285H265V275Z" fill="white"/>
<path d="M275 95H265V105H275V95Z" fill="white"/>
<path d="M275 155H265V165H275V155Z" fill="white"/>
<path d="M275 165H265V175H275V165Z" fill="white"/>
<path d="M275 175H265V185H275V175Z" fill="white"/>
<path d="M275 185H265V195H275V185Z" fill="white"/>
<path d="M275 195H265V205H275V195Z" fill="white"/>
<path d="M275 205H265V215H275V205Z" fill="white"/>
<path d="M275 215H265V225H275V215Z" fill="white"/>
<path d="M275 225H265V235H275V225Z" fill="white"/>
<path d="M275 235H265V245H275V235Z" fill="white"/>
<path d="M275 245H265V255H275V245Z" fill="white"/>
<path d="M275 255H265V265H275V255Z" fill="white"/>
<path d="M275 265H265V275H275V265Z" fill="white"/>
<path d="M275 275H265V285H275V275Z" fill="white"/>
<path d="M285 85H275V95H285V85Z" fill="white"/>
<path d="M285 95H275V105H285V95Z" fill="white"/>
<path d="M285 105H275V115H285V105Z" fill="white"/>
<path d="M285 115H275V125H285V115Z" fill="white"/>
<path d="M285 125H275V135H285V125Z" fill="white"/>
<path d="M285 135H275V145H285V135Z" fill="white"/>
<path d="M285 145H275V155H285V145Z" fill="white"/>
<path d="M285 165H275V175H285V165Z" fill="white"/>
<path d="M285 195H275V205H285V195Z" fill="white"/>
<path d="M285 245H275V255H285V245Z" fill="white"/>
<path d="M285 255H275V265H285V255Z" fill="white"/>
<path d="M285 265H275V275H285V265Z" fill="white"/>
<path d="M285 285H275V295H285V285Z" fill="white"/>
<path d="M295 115H285V125H295V115Z" fill="white"/>
<path d="M295 125H285V135H295V125Z" fill="white"/>
<path d="M295 135H285V145H295V135Z" fill="white"/>
<path d="M295 145H285V155H295V145Z" fill="white"/>
<path d="M295 155H285V165H295V155Z" fill="white"/>
<path d="M295 175H285V185H295V175Z" fill="white"/>
<path d="M295 215H285V225H295V215Z" fill="white"/>
<path d="M295 245H285V255H295V245Z" fill="white"/>
<path d="M295 265H285V275H295V265Z" fill="white"/>
<path fill-rule="evenodd" clip-rule="evenodd" d="M5 5V75H75V5H5ZM15 15H65V65H15V15Z" fill="white"/>
<path d="M35 25H25V35H35V25Z" fill="white"/>
<path d="M35 35H25V45H35V35Z" fill="white"/>
<path d="M35 45H25V55H35V45Z" fill="white"/>
<path d="M45 25H35V35H45V25Z" fill="white"/>
<path d="M45 35H35V45H45V35Z" fill="white"/>
<path d="M45 45H35V55H45V45Z" fill="white"/>
<path d="M55 25H45V35H55V25Z" fill="white"/>
<path d="M55 35H45V45H55V35Z" fill="white"/>
<path d="M55 45H45V55H55V45Z" fill="white"/>
<path fill-rule="evenodd" clip-rule="evenodd" d="M295 5L225 5V75H295V5ZM285 15V65H235V15L285 15Z" fill="white"/>
<path d="M255 25H245V35H255V25Z" fill="white"/>
<path d="M255 35H245V45H255V35Z" fill="white"/>
<path d="M255 45H245V55H255V45Z" fill="white"/>
<path d="M265 25H255V35H265V25Z" fill="white"/>
<path d="M265 35H255V45H265V35Z" fill="white"/>
<path d="M265 45H255V55H265V45Z" fill="white"/>
<path d="M275 25H265V35H275V25Z" fill="white"/>
<path d="M275 35H265V45H275V35Z" fill="white"/>
<path d="M275 45H265V55H275V45Z" fill="white"/>
<path fill-rule="evenodd" clip-rule="evenodd" d="M5 295H75V225H5L5 295ZM15 285L15 235H65V285H15Z" fill="white"/>
<path d="M35 245H25V255H35V245Z" fill="white"/>
<path d="M35 255H25V265H35V255Z" fill="white"/>
<path d="M35 265H25V275H35V265Z" fill="white"/>
<path d="M45 245H35V255H45V245Z" fill="white"/>
<path d="M45 255H35V265H45V255Z" fill="white"/>
<path d="M45 265H35V275H45V265Z" fill="white"/>
<path d="M55 245H45V255H55V245Z" fill="white"/>
<path d="M55 255H45V265H55V255Z" fill="white"/>
<path d="M55 265H45V275H55V265Z" fill="white"/>
</mask>
<g mask="url(#mask0_1330_7653)">
<path d="M300 0H0V300H300V0Z" fill="black"/>
</g>
</g>
<defs>
<clipPath id="clip0_1330_7653">
<rect width="300" height="300" fill="white"/>
</clipPath>
</defs>
</svg>
