<svg width="72" height="72" viewBox="0 0 72 72" fill="none" xmlns="http://www.w3.org/2000/svg">
<g clip-path="url(#clip0_4554_70773)">
<path d="M65.2496 36.0001C65.2351 43.1464 62.6124 50.0416 57.874 55.391C53.1356 60.7405 46.6074 64.1763 39.5152 65.0533C39.3569 65.0688 39.1971 65.0514 39.0459 65.0023C38.8947 64.9531 38.7552 64.8732 38.6364 64.7675C38.5175 64.6619 38.4218 64.5328 38.3552 64.3883C38.2886 64.2439 38.2527 64.0873 38.2495 63.9283V42.7501H44.9996C45.3072 42.7507 45.6118 42.6882 45.8944 42.5665C46.1769 42.4447 46.4315 42.2663 46.6424 42.0422C46.8533 41.8181 47.016 41.5532 47.1204 41.2638C47.2248 40.9744 47.2688 40.6666 47.2496 40.3595C47.1998 39.7777 46.9312 39.2364 46.4979 38.8449C46.0647 38.4535 45.499 38.2409 44.9152 38.2501H38.2495V31.5001C38.2495 30.3067 38.7237 29.1621 39.5676 28.3181C40.4115 27.4742 41.5561 27.0001 42.7496 27.0001H47.2496C47.5572 27.0007 47.8618 26.9382 48.1444 26.8165C48.4269 26.6947 48.6815 26.5163 48.8924 26.2922C49.1033 26.0681 49.266 25.8032 49.3704 25.5138C49.4748 25.2244 49.5188 24.9166 49.4996 24.6095C49.4498 24.0277 49.1812 23.4864 48.7479 23.0949C48.3147 22.7035 47.749 22.4909 47.1652 22.5001H42.7496C40.3626 22.5001 38.0734 23.4483 36.3856 25.1362C34.6978 26.824 33.7495 29.1132 33.7495 31.5001V38.2501H26.9995C26.6919 38.2495 26.3873 38.312 26.1047 38.4338C25.8222 38.5556 25.5676 38.734 25.3567 38.9581C25.1458 39.1821 24.9831 39.447 24.8787 39.7365C24.7743 40.0259 24.7303 40.3337 24.7495 40.6408C24.7993 41.2226 25.0679 41.7638 25.5012 42.1553C25.9344 42.5468 26.5001 42.7594 27.0839 42.7501H33.7495V63.9283C33.7503 64.086 33.718 64.2421 33.6545 64.3864C33.5911 64.5308 33.498 64.6602 33.3813 64.7663C33.2646 64.8724 33.1269 64.9528 32.9772 65.0022C32.8274 65.0516 32.669 65.069 32.512 65.0533C17.662 63.2533 6.18705 50.3439 6.77767 34.9033C7.10922 27.278 10.4082 20.0843 15.9704 14.8577C21.5327 9.6312 28.9175 6.78583 36.5487 6.92898C44.1798 7.07213 51.4528 10.1925 56.8151 15.6239C62.1774 21.0554 65.2042 28.3678 65.2496 36.0001V36.0001Z" fill="white"/>
</g>
<defs>
<clipPath id="clip0_4554_70773">
<rect width="72" height="72" fill="white"/>
</clipPath>
</defs>
</svg>
