<svg xmlns="http://www.w3.org/2000/svg" width="94" height="28" fill="none"><path fill="#000" d="M90.037 28H3.463C1.524 28 0 26.46 0 24.5v-21C0 1.54 1.524 0 3.463 0h86.574C91.976 0 93.5 1.54 93.5 3.5v21c0 1.96-1.524 3.5-3.463 3.5z"/><path fill="#a6a6a6" d="M90.037.56c1.593 0 2.909 1.33 2.909 2.94v21c0 1.61-1.316 2.94-2.909 2.94H3.463C1.87 27.44.554 26.11.554 24.5v-21C.554 1.89 1.87.56 3.463.56h86.574zm0-.56H3.463C1.524 0 0 1.61 0 3.5v21C0 26.46 1.524 28 3.463 28h86.574c1.939 0 3.463-1.54 3.463-3.5v-21c0-1.89-1.524-3.5-3.463-3.5z"/><path fill="#fff" d="M32.829 7.14c0 .56-.139 1.05-.485 1.4-.416.42-.9.63-1.524.63s-1.108-.21-1.524-.63-.623-.91-.623-1.54a2.07 2.07 0 0 1 .623-1.54c.415-.42.9-.63 1.524-.63.277 0 .554.07.831.21s.485.28.623.49l-.346.35c-.277-.35-.623-.49-1.108-.49-.416 0-.831.14-1.108.49-.346.28-.485.7-.485 1.19s.138.91.485 1.19.693.49 1.108.49a1.51 1.51 0 0 0 1.177-.49c.208-.21.346-.49.346-.84h-1.524v-.56h2.008v.28zm3.186-1.75h-1.87v1.33h1.732v.49h-1.732v1.33h1.87v.56h-2.424V4.9h2.424v.49zm2.286 3.71h-.554V5.39H36.57V4.9h2.909v.49h-1.177V9.1zm3.186 0V4.9h.554v4.2h-.554zm2.909 0h-.554V5.39h-1.177V4.9h2.84v.49h-1.177V9.1h.069zm6.58-.56c-.416.42-.9.63-1.524.63s-1.108-.21-1.524-.63-.623-.91-.623-1.54a2.07 2.07 0 0 1 .623-1.54c.415-.42.9-.63 1.524-.63s1.108.21 1.524.63.623.91.623 1.54a2.07 2.07 0 0 1-.623 1.54zm-2.632-.35c.277.28.693.49 1.108.49s.831-.14 1.108-.49A1.7 1.7 0 0 0 51.045 7c0-.49-.139-.91-.485-1.19-.277-.28-.693-.49-1.108-.49s-.831.14-1.108.49A1.7 1.7 0 0 0 47.859 7c0 .49.139.91.485 1.19zm4.017.91V4.9h.623l2.008 3.29V4.9h.554v4.2h-.554l-2.147-3.43V9.1h-.485zm-5.196 6.16c-1.662 0-2.978 1.26-2.978 3.01 0 1.68 1.316 3.01 2.978 3.01s2.978-1.26 2.978-3.01c0-1.82-1.316-3.01-2.978-3.01zm0 4.76c-.9 0-1.662-.77-1.662-1.82s.762-1.82 1.662-1.82 1.662.7 1.662 1.82c0 1.05-.762 1.82-1.662 1.82zm-6.441-4.76c-1.662 0-2.978 1.26-2.978 3.01 0 1.68 1.316 3.01 2.978 3.01s2.978-1.26 2.978-3.01c0-1.82-1.316-3.01-2.978-3.01zm0 4.76c-.9 0-1.662-.77-1.662-1.82s.762-1.82 1.662-1.82 1.662.7 1.662 1.82c0 1.05-.762 1.82-1.662 1.82zm-7.688-3.85v1.26h2.978c-.069.7-.346 1.26-.693 1.61-.416.42-1.108.91-2.285.91-1.87 0-3.255-1.47-3.255-3.36s1.454-3.36 3.255-3.36c.97 0 1.731.42 2.285.91l.9-.91c-.762-.7-1.731-1.26-3.117-1.26-2.493 0-4.64 2.1-4.64 4.62s2.147 4.62 4.64 4.62c1.385 0 2.355-.42 3.186-1.33.831-.84 1.108-2.03 1.108-2.94 0-.28 0-.56-.069-.77h-4.294zm31.444.98c-.277-.7-.97-1.89-2.493-1.89s-2.77 1.19-2.77 3.01c0 1.68 1.247 3.01 2.909 3.01 1.316 0 2.147-.84 2.424-1.33l-.97-.7c-.346.49-.762.84-1.455.84s-1.108-.28-1.454-.91l3.948-1.68-.139-.35zm-4.017.98c0-1.12.9-1.75 1.524-1.75.485 0 .97.28 1.108.63l-2.632 1.12zM57.207 21h1.316v-8.75h-1.316V21zm-2.078-5.11c-.346-.35-.9-.7-1.593-.7-1.454 0-2.84 1.33-2.84 3.01s1.316 2.94 2.84 2.94c.693 0 1.247-.35 1.524-.7h.069v.42c0 1.12-.623 1.75-1.593 1.75-.762 0-1.316-.56-1.455-1.05l-1.108.49c.346.77 1.177 1.75 2.632 1.75 1.524 0 2.77-.91 2.77-3.08V15.4H55.13v.49zm-1.524 4.13c-.9 0-1.662-.77-1.662-1.82s.762-1.82 1.662-1.82 1.593.77 1.593 1.82-.693 1.82-1.593 1.82zm16.899-7.77h-3.117V21h1.316v-3.29h1.801c1.454 0 2.84-1.05 2.84-2.73s-1.385-2.73-2.84-2.73zm.069 4.2h-1.87v-3.01h1.87c.97 0 1.524.84 1.524 1.47-.069.77-.623 1.54-1.524 1.54zm7.965-1.26c-.97 0-1.939.42-2.286 1.33l1.177.49c.277-.49.693-.63 1.177-.63.693 0 1.316.42 1.385 1.12v.07c-.208-.14-.762-.35-1.316-.35-1.247 0-2.493.7-2.493 1.96 0 1.19 1.039 1.96 2.147 1.96.9 0 1.316-.42 1.662-.84h.069v.7h1.247v-3.36c-.139-1.54-1.316-2.45-2.77-2.45zm-.138 4.83c-.416 0-1.039-.21-1.039-.77 0-.7.762-.91 1.385-.91.554 0 .831.14 1.177.28-.139.84-.831 1.4-1.524 1.4zm7.272-4.62-1.454 3.78h-.069l-1.524-3.78H81.24l2.285 5.32-1.316 2.94h1.316l3.532-8.26h-1.385zM74.037 21h1.316v-8.75h-1.316V21z"/><path fill="url(#a)" d="M7.203 5.25c-.208.21-.277.56-.277.98V21.7c0 .42.139.77.346.98l.069.07 8.588-8.68v-.14L7.203 5.25z"/><path fill="url(#b)" d="m18.699 17.01-2.84-2.87v-.21l2.84-2.87.069.07 3.394 1.96c.97.56.97 1.47 0 2.03l-3.463 1.89z"/><path fill="url(#c)" d="M18.769 16.94 15.861 14l-8.657 8.75c.346.35.831.35 1.454.07l10.112-5.88z"/><path fill="url(#d)" d="M18.769 11.06 8.658 5.25c-.623-.35-1.108-.28-1.454.07L15.861 14l2.909-2.94z"/><g fill="#000"><path d="M18.7 16.87 8.658 22.61c-.554.35-1.039.28-1.385 0l-.069.07.069.07c.346.28.831.35 1.385 0L18.7 16.87z" opacity=".2"/><path d="M7.203 22.61c-.208-.21-.277-.56-.277-.98v.07c0 .42.139.77.346.98v-.07h-.069zm14.96-7.7L18.7 16.87l.069.07 3.394-1.96c.485-.28.693-.63.693-.98 0 .35-.277.63-.693.91z" opacity=".12"/></g><path fill="#fff" d="m8.657 5.32 13.506 7.77c.416.28.693.56.693.91 0-.35-.208-.7-.693-.98L8.657 5.25c-.97-.56-1.731-.14-1.731.98v.07c0-1.05.762-1.54 1.731-.98z" opacity=".25"/><defs><linearGradient id="a" x1="15.098" x2="3.351" y1="6.097" y2="17.719" gradientUnits="userSpaceOnUse"><stop stop-color="#00a0ff"/><stop offset=".007" stop-color="#00a1ff"/><stop offset=".26" stop-color="#00beff"/><stop offset=".512" stop-color="#00d2ff"/><stop offset=".76" stop-color="#00dfff"/><stop offset="1" stop-color="#00e3ff"/></linearGradient><linearGradient id="b" x1="23.432" x2="6.674" y1="14.001" y2="14.001" gradientUnits="userSpaceOnUse"><stop stop-color="#ffe000"/><stop offset=".409" stop-color="#ffbd00"/><stop offset=".775" stop-color="orange"/><stop offset="1" stop-color="#ff9c00"/></linearGradient><linearGradient id="c" x1="17.195" x2="1.265" y1="15.607" y2="31.368" gradientUnits="userSpaceOnUse"><stop stop-color="#ff3a44"/><stop offset="1" stop-color="#c31162"/></linearGradient><linearGradient id="d" x1="5.054" x2="12.168" y1=".123" y2="7.162" gradientUnits="userSpaceOnUse"><stop stop-color="#32a071"/><stop offset=".069" stop-color="#2da771"/><stop offset=".476" stop-color="#15cf74"/><stop offset=".801" stop-color="#06e775"/><stop offset="1" stop-color="#00f076"/></linearGradient></defs></svg>