<svg width="18" height="18" viewBox="0 0 18 18" fill="none" xmlns="http://www.w3.org/2000/svg">
<path d="M9.30894 13.4081L12.8527 15.6581C13.3097 15.9464 13.8722 15.5175 13.7386 14.9902L12.7121 10.9542C12.6843 10.8423 12.6887 10.7249 12.7248 10.6154C12.7609 10.506 12.8271 10.4089 12.916 10.3355L16.0941 7.68468C16.5089 7.34015 16.298 6.64406 15.7566 6.6089L11.6082 6.34172C11.495 6.33513 11.3862 6.29571 11.295 6.22829C11.2038 6.16086 11.1343 6.06834 11.0949 5.96203L9.54801 2.06672C9.50706 1.95415 9.43247 1.85691 9.33435 1.78819C9.23624 1.71948 9.11935 1.68262 8.99957 1.68262C8.87979 1.68262 8.7629 1.71948 8.66479 1.78819C8.56667 1.85691 8.49208 1.95415 8.45113 2.06672L6.90426 5.96203C6.86483 6.06834 6.79529 6.16086 6.70414 6.22829C6.61299 6.29571 6.50417 6.33513 6.39098 6.34172L2.24254 6.6089C1.70113 6.64406 1.49019 7.34015 1.90504 7.68468L5.08316 10.3355C5.17199 10.4089 5.23826 10.506 5.27434 10.6154C5.31041 10.7249 5.31483 10.8423 5.28707 10.9542L4.33785 14.6948C4.17613 15.3277 4.85113 15.8409 5.39254 15.4964L8.69019 13.4081C8.78267 13.3493 8.88998 13.3181 8.99957 13.3181C9.10916 13.3181 9.21647 13.3493 9.30894 13.4081Z" fill="#E8B017" stroke="#E8B017" stroke-width="1.125" stroke-linecap="round" stroke-linejoin="round"/>
</svg>
