<?xml version="1.0" standalone="no"?>
<!DOCTYPE svg PUBLIC "-//W3C//DTD SVG 20010904//EN"
 "http://www.w3.org/TR/2001/REC-SVG-20010904/DTD/svg10.dtd">
<svg version="1.0" xmlns="http://www.w3.org/2000/svg"
 width="2000.000000pt" height="2000.000000pt" viewBox="0 0 2000.000000 2000.000000"
 preserveAspectRatio="xMidYMid meet">

<g transform="translate(0.000000,2000.000000) scale(0.100000,-0.100000)"
fill="#000000" stroke="none">
<path d="M3765 18856 c-130 -74 -467 -268 -650 -374 -71 -41 -202 -117 -290
-167 -88 -51 -261 -150 -385 -222 -124 -71 -337 -194 -475 -272 -137 -79 -265
-159 -283 -177 l-32 -34 2 -641 3 -641 30 -27 c55 -48 249 -151 286 -151 27 0
154 69 574 311 740 426 1073 618 1388 800 195 111 273 161 283 181 12 22 14
136 14 662 l0 635 -22 25 c-13 14 -75 54 -139 90 -150 86 -158 86 -304 2z
m-35 -741 c37 -19 62 -66 58 -108 -5 -51 -114 -107 -145 -76 -26 26 -105 -30
-118 -83 -10 -39 12 -45 99 -24 83 19 115 20 137 3 58 -45 61 -181 5 -303 -44
-96 -151 -192 -239 -214 -38 -10 -51 -9 -81 5 -44 21 -68 63 -64 112 3 33 9
40 58 69 52 31 56 31 81 17 35 -21 69 -11 113 31 37 34 48 79 24 89 -7 2 -50
-5 -95 -15 -97 -23 -127 -15 -156 42 -30 58 -18 173 27 266 41 82 104 151 168
183 51 25 88 27 128 6z m-473 -310 c30 -30 34 -40 31 -76 -3 -39 -7 -44 -57
-72 -44 -25 -57 -28 -72 -19 -29 19 -52 14 -91 -18 -36 -30 -52 -68 -37 -91 6
-10 23 -9 81 4 40 10 88 17 106 17 134 0 118 -268 -25 -421 -100 -108 -209
-139 -275 -80 -27 24 -32 35 -32 76 l-1 49 58 34 c54 32 59 33 76 18 26 -23
53 -20 98 13 46 33 70 83 48 101 -10 8 -29 7 -73 -5 -135 -34 -185 -12 -197
87 -24 189 134 417 289 418 30 0 45 -7 73 -35z m-497 -283 c38 -39 62 -128 42
-158 -9 -14 -96 -64 -111 -64 -7 0 -17 14 -22 30 -22 61 -109 23 -144 -62 -20
-51 -25 -291 -6 -327 30 -56 125 12 152 108 13 49 18 55 71 84 31 18 60 29 64
25 14 -15 -18 -150 -52 -217 -80 -159 -237 -254 -317 -191 -49 38 -62 98 -62
275 0 137 3 170 22 230 55 175 170 293 286 295 40 0 53 -5 77 -28z"/>
<path d="M11708 17811 l-3 -338 -155 90 c-85 49 -198 114 -250 145 -81 47
-104 56 -155 60 -55 4 -64 1 -93 -23 -67 -56 -62 58 -62 -1505 0 -781 -2
-1420 -5 -1420 -2 0 -35 17 -72 37 -53 29 -78 37 -118 37 -49 0 -83 -18 -866
-470 l-814 -470 -11 66 c-13 76 -47 136 -98 175 -40 30 -113 55 -163 55 -29 0
-33 -3 -33 -25 0 -23 4 -25 40 -25 52 0 107 -23 147 -62 36 -35 60 -85 47 -97
-5 -5 -52 -16 -104 -25 -52 -10 -191 -35 -309 -57 -117 -22 -215 -38 -217 -36
-3 2 6 26 18 53 43 97 80 238 85 326 l6 88 36 6 c340 58 552 227 569 452 13
183 -107 274 -278 211 -96 -35 -89 -36 -77 15 14 63 -6 176 -39 215 -47 56
-97 49 -269 -35 -60 -29 -139 -61 -175 -71 -93 -24 -260 -21 -445 8 -109 17
-192 23 -305 23 -153 1 -156 0 -264 -37 -61 -21 -134 -52 -164 -68 -115 -67
-208 -179 -242 -295 l-13 -42 -29 33 c-35 41 -85 59 -137 50 -43 -7 -108 -55
-98 -72 4 -6 42 -30 85 -53 42 -24 78 -44 80 -45 2 -2 -20 -26 -47 -54 -109
-112 -156 -264 -148 -476 7 -172 35 -299 109 -490 83 -212 158 -334 293 -474
157 -163 327 -282 466 -326 174 -55 330 -54 492 2 68 23 83 33 107 68 65 95
108 239 117 391 l6 101 -56 -5 c-71 -6 -146 28 -205 92 -68 74 -95 138 -100
237 -5 100 7 145 51 195 46 53 101 77 174 78 73 0 119 -26 180 -100 21 -26 47
-58 59 -72 25 -30 67 -32 97 -4 18 16 88 33 347 82 179 34 333 64 343 66 14 4
17 -1 17 -28 0 -44 -5 -50 -72 -88 -67 -37 -74 -45 -57 -66 15 -18 13 -20 -31
-31 -28 -7 -35 -14 -35 -34 0 -21 4 -24 30 -20 17 1 38 7 48 13 25 13 37 1 77
-82 34 -71 34 -72 15 -86 -11 -8 -50 -24 -86 -35 l-66 -20 -6 -182 c-8 -228
-26 -339 -73 -435 -39 -80 -58 -96 -136 -119 -65 -18 -361 -29 -434 -16 l-52
10 -91 -103 c-50 -57 -91 -105 -91 -108 0 -2 53 -29 117 -60 64 -31 157 -80
207 -109 50 -28 123 -66 161 -83 79 -34 168 -88 233 -141 l43 -35 62 68 c202
225 279 290 422 360 203 98 344 99 492 2 l78 -51 44 26 44 25 50 -31 c45 -28
48 -32 32 -43 -10 -7 -23 -15 -29 -17 -6 -2 2 -15 19 -29 22 -19 29 -34 29
-61 0 -61 -56 -107 -154 -128 -54 -12 -58 -16 -34 -33 13 -10 8 -16 -35 -39
-41 -23 -53 -26 -69 -16 -15 10 -24 9 -42 -4 l-23 -16 31 -18 c18 -10 32 -21
32 -24 0 -3 -22 -18 -48 -32 -44 -24 -51 -25 -69 -12 -19 14 -23 12 -49 -23
-15 -20 -21 -31 -12 -24 14 11 23 10 57 -10 23 -13 41 -26 41 -29 0 -4 -13
-12 -30 -19 -16 -7 -34 -18 -40 -25 -8 -10 -1 -12 37 -8 27 2 57 9 69 15 16 7
30 5 60 -11 21 -12 44 -21 50 -21 7 0 30 -15 52 -32 22 -18 47 -38 57 -43 15
-9 9 -16 -41 -48 -32 -20 -65 -37 -71 -37 -7 0 -13 -4 -13 -8 0 -4 133 -84
294 -177 220 -127 292 -173 283 -181 -7 -6 -28 -20 -47 -32 l-35 -20 -320 185
-320 185 -50 -11 c-27 -6 -102 -18 -166 -26 -65 -8 -146 -24 -180 -35 -71 -22
-169 -75 -169 -91 0 -5 20 -90 44 -187 102 -404 159 -684 161 -777 2 -108 22
-215 41 -215 38 0 358 133 673 281 180 84 257 125 292 157 53 47 132 169 198
302 41 84 41 85 22 101 -19 16 -18 17 38 45 81 40 90 57 44 84 l-36 21 49 29
c43 24 52 26 73 15 22 -11 29 -9 79 32 40 33 60 43 76 38 11 -3 29 -8 38 -10
22 -5 78 -37 78 -45 0 -3 -13 -12 -28 -21 -22 -13 -32 -31 -50 -92 -12 -41
-22 -78 -22 -82 0 -4 16 3 36 15 29 18 40 21 59 12 21 -10 30 -7 67 24 61 51
68 60 27 36 -45 -27 -49 -27 -94 -1 l-37 22 48 30 48 29 43 -23 43 -24 38 39
c36 37 37 38 7 23 -28 -14 -33 -13 -69 10 l-39 25 47 29 46 29 39 -20 39 -19
27 35 c25 32 25 35 6 25 -18 -10 -28 -8 -63 13 l-41 24 34 21 c49 31 74 35
102 17 23 -16 25 -15 41 8 10 16 29 27 53 32 21 4 55 17 76 29 l39 22 39 -21
c21 -11 39 -23 39 -26 0 -11 -92 -60 -102 -54 -5 3 -3 -8 6 -24 9 -17 16 -49
16 -71 0 -30 4 -39 13 -35 8 3 46 -14 86 -37 l73 -42 -48 -29 c-42 -27 -49
-29 -73 -17 -14 7 -29 15 -33 17 -4 2 5 -24 20 -57 21 -49 31 -60 46 -57 19 5
102 -31 93 -40 -3 -3 -24 -17 -47 -32 -40 -26 -42 -29 -45 -88 -5 -71 -31
-147 -79 -226 -22 -37 -30 -60 -24 -66 7 -7 0 -16 -21 -27 -18 -9 -68 -49
-112 -89 -102 -95 -184 -150 -399 -271 -96 -54 -236 -137 -310 -185 -74 -47
-224 -142 -333 -209 -109 -68 -196 -126 -193 -129 3 -3 623 -361 1378 -797
l1373 -792 5 -2099 c4 -1560 8 -2104 17 -2119 18 -32 153 -96 183 -88 48 13
140 74 155 103 13 26 15 267 15 2005 0 1086 3 1975 7 1975 3 0 73 -39 155 -86
169 -98 207 -109 279 -77 24 11 757 432 1629 936 872 504 1593 919 1603 923
16 6 17 -27 17 -558 l0 -565 76 -6 c92 -8 149 -32 190 -79 45 -52 57 -96 52
-197 -4 -74 -11 -101 -52 -201 -59 -141 -69 -222 -39 -291 20 -43 115 -171
134 -177 5 -2 9 434 9 1150 l1 1153 179 103 c99 56 183 102 187 102 8 0 90
-46 474 -268 97 -56 183 -102 191 -102 9 0 42 15 74 33 l59 33 3 1437 c1 790
0 1437 -3 1437 -3 0 -26 -12 -52 -26 l-48 -27 -585 338 c-322 186 -742 429
-935 540 l-350 202 -3 104 c-2 57 0 114 3 126 5 23 104 83 136 83 10 0 129
-65 266 -143 136 -79 258 -149 271 -156 l22 -12 0 682 0 681 -52 -29 -53 -29
-2655 1533 c-1460 843 -2656 1533 -2657 1533 -2 0 -4 -152 -5 -339z m350 -179
c16 -21 16 -52 -1 -52 -20 0 -107 58 -113 75 -4 8 -3 22 0 31 5 14 13 12 54
-11 26 -15 53 -35 60 -43z m341 -188 c130 -75 242 -143 249 -152 20 -26 15
-55 -8 -49 -37 10 -482 272 -492 290 -9 18 -5 47 8 47 4 0 113 -61 243 -136z
m-284 10 c49 -28 76 -67 58 -85 -23 -23 -146 72 -128 101 9 15 17 13 70 -16z
m-675 -178 l265 -153 5 -1259 c5 -1183 6 -1261 23 -1292 10 -18 32 -42 50 -53
18 -11 844 -490 1837 -1063 l1805 -1041 3 -287 c2 -247 0 -288 -13 -302 -9 -8
-22 -13 -30 -10 -15 6 -186 104 -1600 921 -429 248 -1187 685 -1685 972 -498
287 -917 535 -932 552 l-28 29 0 1563 c0 860 3 1567 7 1570 3 4 11 7 17 7 6 0
130 -69 276 -154z m1010 -17 c96 -55 183 -108 193 -116 18 -17 23 -48 9 -57
-11 -6 -372 200 -389 222 -17 21 -17 52 0 52 7 0 91 -45 187 -101z m-336 39
c58 -39 76 -62 59 -79 -8 -8 -24 -4 -63 17 -53 29 -75 56 -66 80 8 20 15 18
70 -18z m-121 -84 c45 -23 77 -54 77 -76 0 -24 -20 -23 -67 4 -45 25 -63 45
-63 70 0 22 12 23 53 2z m459 -110 c101 -58 189 -111 196 -116 6 -6 12 -21 12
-34 0 -13 -6 -24 -12 -24 -20 0 -380 213 -391 231 -9 15 -4 49 7 49 2 0 87
-48 188 -106z m-49 -126 c126 -73 236 -138 243 -146 19 -18 18 -52 -1 -52 -22
0 -466 257 -487 282 -23 26 -23 48 -1 48 9 0 120 -59 246 -132z m546 55 c118
-65 121 -68 121 -123 0 -27 -4 -51 -9 -54 -12 -8 -169 82 -186 107 -22 31 -19
107 3 107 3 0 35 -16 71 -37z m-838 -40 c53 -30 80 -66 62 -84 -8 -8 -26 -3
-67 20 -53 30 -74 59 -61 81 9 14 11 13 66 -17z m-97 -99 c43 -24 69 -64 52
-81 -8 -8 -80 25 -106 49 -23 21 -27 58 -6 58 7 0 34 -12 60 -26z m434 -96
c97 -56 185 -108 195 -116 19 -16 23 -47 7 -57 -9 -6 -345 182 -382 213 -20
16 -25 62 -7 62 5 0 90 -46 187 -102z m515 -15 c45 -25 88 -53 95 -61 15 -20
16 -112 1 -112 -21 0 -187 100 -193 116 -13 34 -6 104 11 104 2 0 41 -21 86
-47z m882 -278 c302 -174 553 -322 557 -328 12 -18 9 -47 -3 -47 -24 0 -1111
634 -1126 656 -15 24 -9 49 11 41 6 -2 259 -147 561 -322z m-1443 164 c133
-77 246 -145 250 -152 13 -20 9 -47 -6 -47 -24 0 -486 271 -497 292 -10 18 -6
48 6 48 3 0 114 -63 247 -141z m1170 -244 c150 -86 279 -164 286 -173 15 -20
16 -52 0 -52 -21 0 -580 325 -590 343 -12 24 -2 51 17 43 8 -3 137 -75 287
-161z m-623 123 c110 -61 121 -73 121 -129 0 -35 -4 -49 -14 -49 -20 0 -158
79 -178 102 -10 12 -18 36 -18 57 0 62 10 64 89 19z m-934 -131 c48 -31 66
-60 48 -78 -5 -5 -32 5 -63 24 -43 25 -56 38 -58 60 -4 36 11 35 73 -6z m1394
-139 c69 -39 136 -80 149 -91 25 -24 29 -57 6 -57 -27 0 -293 160 -299 180 -6
19 0 40 12 40 3 0 62 -32 132 -72z m-446 20 c104 -60 107 -64 107 -119 0 -26
-4 -50 -8 -53 -11 -7 -162 80 -184 106 -18 20 -25 88 -11 101 11 12 23 8 96
-35z m-566 -99 c125 -72 236 -138 246 -147 18 -16 23 -47 8 -56 -11 -7 -456
247 -490 279 -23 22 -24 55 -2 55 5 0 112 -59 238 -131z m-281 6 c50 -29 72
-61 55 -78 -14 -14 -95 27 -117 58 -35 49 -4 59 62 20z m1994 -90 c90 -53 172
-103 182 -112 22 -20 23 -42 3 -49 -18 -7 -361 190 -369 212 -10 25 -7 44 7
44 6 0 86 -43 177 -95z m1472 -610 c682 -393 1106 -643 1112 -655 6 -13 6 -24
-1 -31 -14 -14 -2220 1254 -2228 1282 -6 17 0 39 10 39 2 0 500 -286 1107
-635z m-3112 497 c91 -52 171 -102 178 -110 16 -21 16 -52 -1 -52 -15 0 -354
194 -379 217 -18 16 -24 44 -12 56 8 8 9 7 214 -111z m1503 -48 c150 -86 282
-166 295 -177 25 -23 29 -45 9 -53 -16 -6 -575 314 -590 337 -10 15 -4 49 8
49 3 0 128 -70 278 -156z m-1024 109 c120 -66 121 -67 121 -129 0 -30 -5 -54
-10 -54 -19 0 -171 93 -186 114 -21 30 -18 106 4 106 3 0 35 -16 71 -37z
m-834 -9 c49 -28 76 -67 58 -85 -23 -23 -146 72 -128 101 9 15 17 13 70 -16z
m-72 -116 c28 -20 38 -68 15 -68 -20 0 -108 59 -114 75 -4 8 -3 22 0 30 5 14
9 14 38 -1 18 -9 45 -25 61 -36z m407 -79 c96 -55 183 -108 193 -116 18 -17
23 -48 9 -57 -11 -6 -372 200 -389 222 -17 21 -17 52 0 52 7 0 91 -45 187
-101z m-67 -115 c275 -158 277 -160 277 -189 0 -14 -5 -25 -12 -25 -21 0 -490
275 -500 293 -13 24 -2 51 17 43 9 -3 106 -58 218 -122z m1016 60 c64 -37 131
-77 149 -91 34 -25 44 -63 16 -63 -24 0 -284 152 -296 173 -9 18 -5 47 8 47 4
0 59 -30 123 -66z m-436 9 c45 -25 88 -53 95 -61 15 -20 16 -112 1 -112 -21 0
-187 100 -193 116 -13 34 -6 104 11 104 2 0 41 -21 86 -47z m-848 -69 c49 -28
76 -67 58 -85 -23 -23 -146 72 -128 101 9 15 17 13 70 -16z m2813 -342 c312
-180 831 -481 1155 -668 593 -342 623 -362 590 -395 -11 -11 -2301 1311 -2327
1345 -18 23 -15 46 5 46 5 0 265 -148 577 -328z m-2477 147 c96 -55 182 -108
192 -116 18 -17 23 -48 9 -57 -11 -6 -372 200 -389 222 -17 21 -16 52 1 52 7
0 92 -45 187 -101z m948 14 c64 -36 131 -77 149 -90 34 -26 44 -63 15 -63 -24
0 -283 152 -295 173 -10 19 -5 47 8 47 4 0 60 -30 123 -67z m514 -55 c116 -67
218 -128 225 -137 18 -22 15 -51 -5 -50 -24 0 -434 240 -446 260 -10 15 -4 49
8 49 3 0 101 -55 218 -122z m-1799 80 c58 -39 76 -62 59 -79 -8 -8 -24 -4 -63
17 -53 29 -75 56 -66 80 8 20 15 18 70 -18z m835 -10 c110 -61 121 -73 121
-129 0 -35 -4 -49 -14 -49 -20 0 -158 79 -178 102 -10 12 -18 36 -18 57 0 62
10 64 89 19z m-522 -169 c224 -129 233 -135 233 -164 0 -14 -6 -25 -12 -25
-20 0 -380 213 -391 231 -9 15 -4 49 7 49 3 0 76 -41 163 -91z m-311 26 c50
-29 72 -61 55 -78 -24 -24 -144 64 -126 93 10 15 24 12 71 -15z m1801 -170
c119 -69 221 -131 225 -138 14 -22 9 -47 -9 -47 -24 1 -434 241 -446 261 -9
15 -4 49 8 49 2 0 102 -56 222 -125z m-1902 72 c48 -31 66 -60 48 -78 -5 -5
-32 5 -63 24 -43 25 -56 38 -58 60 -4 36 11 35 73 -6z m948 -9 c104 -60 107
-64 107 -119 0 -26 -4 -50 -8 -53 -11 -7 -163 80 -184 105 -18 21 -25 89 -11
102 11 12 23 8 96 -35z m-507 -89 c96 -56 181 -108 189 -116 19 -19 19 -53 1
-53 -18 0 -378 208 -388 224 -13 20 -9 46 8 46 8 0 94 -46 190 -101z m-59
-120 c125 -72 236 -138 246 -147 18 -16 23 -47 8 -56 -11 -7 -456 247 -490
279 -23 22 -24 55 -2 55 5 0 112 -59 238 -131z m-398 71 c49 -25 71 -46 71
-71 0 -25 -20 -24 -67 3 -45 25 -63 45 -63 70 0 23 12 23 59 -2z m976 -113
l90 -52 3 -58 c2 -36 -1 -57 -8 -57 -20 0 -170 92 -185 113 -23 32 -19 107 5
107 3 0 46 -24 95 -53z m-565 -123 c129 -74 238 -141 242 -147 13 -20 9 -47
-8 -47 -21 0 -465 257 -486 282 -10 11 -18 26 -18 34 0 8 8 14 18 14 9 0 123
-61 252 -136z m-296 14 c58 -39 76 -62 59 -79 -8 -8 -24 -4 -63 17 -53 29 -75
56 -66 80 8 20 15 18 70 -18z m2139 -137 c269 -155 516 -297 867 -499 355
-205 734 -422 938 -539 180 -103 227 -142 204 -165 -15 -15 -15 -15 -287 142
-127 73 -302 175 -390 225 -88 51 -236 136 -330 190 -93 54 -242 139 -330 190
-88 51 -234 135 -325 187 -91 52 -257 148 -370 213 -222 127 -240 140 -240
165 0 16 8 30 17 30 3 0 113 -63 246 -139z m-823 -12 c136 -78 166 -107 141
-132 -7 -7 -50 13 -144 67 -74 42 -142 85 -152 96 -17 19 -15 50 5 50 5 0 73
-36 150 -81z m-469 25 c44 -25 86 -53 94 -61 19 -19 21 -113 2 -113 -17 0
-169 89 -184 108 -20 25 -16 112 4 112 2 0 40 -21 84 -46z m-523 -61 c214
-123 222 -129 222 -159 0 -13 -5 -24 -11 -24 -12 0 -356 196 -381 218 -19 16
-25 62 -8 62 6 0 86 -43 178 -97z m-322 32 c50 -29 72 -61 55 -78 -24 -24
-144 64 -126 93 10 15 24 12 71 -15z m-73 -117 c28 -20 38 -68 15 -68 -20 0
-108 59 -114 75 -4 8 -3 22 0 30 5 14 9 14 38 -1 18 -9 45 -25 61 -36z m420
-84 c100 -58 185 -111 189 -117 13 -20 9 -47 -6 -47 -18 0 -378 207 -388 223
-13 21 -9 47 8 47 8 0 97 -48 197 -106z m967 -35 c135 -78 166 -107 142 -131
-12 -12 -264 125 -296 161 -18 20 -16 51 4 51 5 0 73 -36 150 -81z m1635 -703
l1360 -784 3 -37 c3 -36 3 -36 -20 -22 -13 8 -626 362 -1363 787 -737 425
-1346 777 -1352 782 -17 14 -17 58 0 58 7 0 625 -353 1372 -784z m-2116 732
c110 -61 121 -73 121 -129 0 -62 -7 -63 -111 -2 -87 50 -99 64 -99 116 0 57
11 59 89 15z m-564 -105 c273 -157 275 -159 275 -188 0 -14 -6 -25 -12 -25
-22 1 -490 276 -500 294 -14 25 -2 50 20 41 9 -3 107 -58 217 -122z m2275
-148 c113 -65 261 -150 330 -190 69 -40 215 -124 325 -187 325 -187 522 -301
655 -378 69 -40 200 -115 293 -168 164 -93 167 -96 167 -129 0 -18 -1 -33 -3
-33 -2 0 -84 46 -183 103 -98 57 -287 166 -419 242 -132 76 -296 170 -365 210
-69 40 -201 116 -295 170 -93 54 -274 158 -402 231 -333 192 -328 189 -331
208 -5 22 5 49 15 43 5 -3 100 -57 213 -122z m-1232 -15 c138 -79 168 -108
144 -132 -12 -12 -264 125 -296 161 -18 20 -16 51 3 51 5 0 72 -36 149 -80z
m1637 -704 l1360 -784 3 -36 3 -36 -58 34 c-32 18 -645 372 -1363 786 -718
414 -1311 757 -1317 762 -17 14 -17 58 0 58 7 0 625 -353 1372 -784z m-2103
722 c104 -59 108 -63 108 -119 0 -26 -4 -50 -8 -53 -11 -7 -163 80 -184 105
-18 21 -25 89 -11 102 11 11 18 9 95 -35z m2103 -962 l1360 -784 3 -36 3 -36
-58 34 c-32 18 -634 365 -1338 771 -704 405 -1297 748 -1317 761 -27 17 -38
31 -38 49 0 14 6 25 13 25 7 0 624 -353 1372 -784z m-3202 270 c479 -277 1512
-873 2295 -1325 l1423 -821 69 40 c38 22 71 40 74 40 3 0 6 -104 6 -232 0
-213 -2 -235 -20 -274 -32 -64 -90 -92 -163 -79 -19 4 -397 216 -839 471
l-803 464 -6 -59 c-10 -102 -17 -108 -329 -290 -161 -94 -308 -172 -343 -183
-51 -16 -83 -19 -182 -16 -115 4 -124 6 -195 40 -41 20 -221 121 -399 225
-374 218 -381 223 -389 331 -6 87 8 131 56 174 20 18 145 96 276 173 221 128
240 142 257 179 10 23 19 62 19 88 0 44 -3 49 -37 71 -21 13 -353 205 -738
427 -907 522 -863 495 -892 549 -22 43 -23 53 -23 278 0 128 2 233 5 233 3 0
398 -227 878 -504z m2181 83 c182 -105 339 -198 349 -207 21 -18 23 -52 3 -52
-18 0 -688 387 -698 403 -12 18 -9 47 3 47 6 0 160 -86 343 -191z m2342 -145
c39 -23 44 -30 44 -61 l0 -35 -47 27 c-54 31 -73 51 -73 77 0 25 24 23 76 -8z
m-938 -665 c526 -304 963 -557 970 -564 8 -7 12 -24 10 -38 -3 -25 -43 -3
-973 534 -533 307 -976 567 -982 576 -18 23 -16 43 2 43 9 0 446 -248 973
-551z m1178 482 c-14 -15 -15 -24 -7 -40 6 -11 11 -35 11 -53 l-1 -33 -24 45
c-30 57 -31 87 -3 117 23 24 23 24 32 4 7 -16 4 -26 -8 -40z m142 51 c17 -12
-62 -262 -83 -262 -8 0 -15 7 -15 16 0 23 72 254 79 254 3 0 12 -4 19 -8z m97
-232 c-3 -10 -17 -25 -30 -34 -25 -16 -25 -16 -25 12 0 15 5 33 12 40 9 9 9
18 0 37 -7 14 -12 38 -12 53 1 23 6 18 31 -31 17 -34 28 -66 24 -77z m-223
-111 c29 -18 265 -153 523 -301 259 -148 480 -281 493 -295 28 -31 16 -51 -19
-32 -13 6 -136 77 -274 157 -137 80 -370 214 -517 299 -146 85 -269 161 -272
169 -6 15 0 34 9 34 2 0 28 -14 57 -31z m346 -11 c13 -13 16 -58 4 -58 -15 0
-32 24 -32 47 0 25 10 29 28 11z m82 -75 c0 -37 -24 -22 -28 17 -3 30 -2 32
12 21 9 -8 16 -25 16 -38z m70 -35 c0 -40 -24 -32 -28 10 -3 25 0 31 12 26 10
-4 16 -18 16 -36z m-435 -108 c13 -10 372 -216 456 -263 61 -33 79 -51 79 -78
0 -21 -39 -6 -139 54 -58 35 -199 117 -314 182 -193 112 -228 139 -212 165 6
9 86 -28 130 -60z m-7 -192 c59 -34 113 -68 120 -77 19 -23 15 -44 -7 -38 -29
7 -217 115 -231 132 -11 14 -8 45 5 45 3 0 54 -28 113 -62z m8 -201 c111 -65
137 -88 118 -107 -8 -8 -43 8 -125 55 -112 65 -129 78 -129 103 0 23 28 12
136 -51z m547 -117 c166 -95 308 -179 315 -188 17 -22 15 -42 -6 -42 -9 0
-109 53 -222 119 -450 260 -429 247 -430 280 0 9 7 11 20 8 11 -3 157 -83 323
-177z m187 86 c123 -71 145 -87 148 -110 2 -14 -2 -26 -8 -26 -15 0 -286 158
-300 175 -12 15 -7 45 7 45 5 0 74 -38 153 -84z m515 -104 c172 -100 221 -132
223 -150 2 -12 -2 -22 -8 -22 -21 0 -448 252 -454 267 -6 16 0 33 12 33 4 0
106 -58 227 -128z m-7793 45 l37 -23 -45 -27 c-25 -15 -49 -27 -54 -27 -14 0
-67 33 -69 44 -3 9 67 55 84 55 6 0 27 -10 47 -22z m6540 -103 c62 -36 116
-70 120 -77 12 -19 9 -37 -5 -37 -16 0 -214 113 -235 134 -13 13 -11 46 2 46
3 0 56 -30 118 -66z m320 12 c51 -29 291 -167 533 -306 242 -139 446 -260 453
-268 20 -26 15 -45 -11 -40 -30 6 -1028 580 -1069 616 -19 16 -25 52 -9 52 6
0 52 -24 103 -54z m-6725 13 l35 -22 -48 -29 -47 -30 -36 20 c-20 12 -37 24
-38 29 -3 9 65 50 86 52 7 1 29 -9 48 -20z m-265 -60 l41 -21 -49 -29 c-27
-16 -51 -29 -54 -29 -3 0 -23 11 -44 24 l-39 23 44 27 c53 31 50 31 101 5z
m428 -39 c0 -3 -20 -18 -45 -33 l-46 -27 -39 22 c-22 13 -40 25 -40 28 0 3 22
17 48 31 l47 26 37 -21 c21 -11 38 -23 38 -26z m5520 -145 c102 -59 245 -141
318 -183 l132 -76 0 -78 c0 -43 -2 -78 -3 -78 -2 0 -159 89 -348 199 l-344
198 -3 83 -3 82 33 -20 c18 -11 116 -68 218 -127z m-5792 92 c10 -8 1 -17 -34
-38 l-48 -27 -38 19 c-21 11 -38 23 -38 28 0 4 21 19 47 33 49 28 54 27 111
-15z m375 -1 l38 -24 -48 -29 -49 -30 -43 25 -42 25 48 28 c26 15 50 28 53 28
3 0 22 -10 43 -23z m-603 -46 c0 -4 -21 -18 -47 -32 l-47 -26 -38 21 c-21 12
-38 24 -38 27 0 3 21 17 47 32 l48 27 37 -22 c21 -11 38 -24 38 -27z m6738
-18 c56 -32 108 -65 116 -72 17 -14 22 -50 7 -50 -15 0 -234 129 -243 143 -12
19 -9 37 5 37 8 0 59 -26 115 -58z m327 7 c411 -234 545 -315 551 -332 15 -48
-18 -36 -227 86 -437 254 -434 252 -437 275 -5 32 12 28 113 -29z m749 -40
c78 -45 144 -87 148 -93 12 -17 9 -46 -3 -46 -14 0 -230 123 -276 157 -32 23
-45 63 -21 63 6 0 75 -37 152 -81z m-7444 13 c0 -4 -20 -18 -44 -31 -39 -22
-47 -23 -75 -12 -55 23 -55 35 -4 64 l47 25 38 -19 c21 -11 38 -23 38 -27z
m-266 -16 l38 -24 -44 -26 c-54 -31 -57 -32 -103 -5 l-36 22 48 28 c26 16 50
29 53 29 3 -1 22 -11 44 -24z m726 -36 c0 -3 -21 -17 -48 -32 l-47 -26 -37 21
c-21 12 -38 25 -38 28 0 3 21 17 47 31 l47 26 38 -21 c21 -12 38 -24 38 -27z
m-980 6 l41 -23 -49 -31 -49 -30 -43 25 -42 25 48 29 c27 16 50 29 50 29 1 0
21 -11 44 -24z m624 -10 l39 -23 -47 -28 -48 -28 -46 22 -46 23 50 29 c27 16
51 29 54 29 3 0 23 -11 44 -24z m-238 -37 c19 -11 34 -22 34 -24 0 -2 -20 -16
-45 -30 -47 -28 -64 -27 -104 4 l-24 18 44 27 c53 31 53 31 95 5z m697 -13
l38 -23 -46 -28 c-50 -29 -73 -28 -113 3 l-23 18 48 27 c26 14 50 26 53 26 3
0 22 -10 43 -23z m-949 -17 c20 -12 36 -23 36 -25 0 -2 -20 -15 -45 -29 -47
-28 -64 -27 -104 4 l-24 18 44 27 c53 31 49 31 93 5z m624 -9 c17 -11 32 -22
32 -24 0 -3 -20 -17 -44 -31 l-45 -26 -40 21 c-23 11 -41 22 -41 25 0 6 84 55
95 55 6 0 25 -9 43 -20z m6617 -128 c238 -135 285 -166 285 -187 0 -40 -6 -38
-387 187 -162 95 -179 109 -169 133 7 19 -17 31 271 -133z m-6850 87 l37 -22
-51 -29 -51 -29 -41 24 -41 25 44 26 c52 31 57 32 103 5z m689 -10 c20 -12 34
-24 32 -27 -2 -4 -24 -18 -49 -31 l-44 -24 -42 25 -41 25 47 26 c58 32 54 32
97 6z m-942 -20 l41 -21 -49 -29 c-27 -16 -51 -29 -54 -29 -3 0 -23 11 -44 24
l-39 23 44 27 c53 31 50 31 101 5z m625 -10 l35 -22 -50 -29 -50 -28 -42 24
-42 24 44 26 c52 31 61 32 105 5z m-207 -59 c0 -3 -22 -17 -48 -32 l-48 -27
-37 22 c-20 11 -37 24 -37 27 0 4 21 18 46 32 l46 25 39 -21 c21 -11 39 -23
39 -26z m655 13 c19 -9 35 -20 35 -24 0 -4 -20 -19 -45 -34 l-45 -26 -40 22
c-21 12 -37 26 -34 31 6 9 74 47 86 48 4 0 23 -8 43 -17z m-905 -43 c0 -3 -22
-17 -48 -32 l-48 -27 -37 22 c-20 11 -37 24 -37 27 0 4 21 18 46 32 l46 25 39
-21 c21 -11 39 -23 39 -26z m620 -9 c0 -3 -21 -18 -48 -33 l-47 -26 -37 21
c-21 12 -38 25 -38 28 0 3 21 17 47 32 l48 26 37 -22 c21 -11 38 -23 38 -26z
m-840 -43 c0 -3 -20 -18 -45 -33 l-45 -26 -42 25 -41 24 49 30 48 30 38 -21
c21 -12 38 -25 38 -29z m570 28 l41 -23 -46 -28 c-50 -29 -73 -28 -113 3 l-23
18 48 27 c26 14 49 27 49 27 1 0 21 -11 44 -24z m7183 -83 c73 -42 135 -81
139 -87 12 -17 9 -46 -3 -46 -16 0 -257 139 -288 166 -16 14 -22 27 -18 38 9
23 11 22 170 -71z m-7403 29 c0 -4 -20 -18 -44 -31 -39 -22 -47 -23 -75 -12
-55 23 -55 35 -4 64 l47 25 38 -19 c21 -11 38 -23 38 -27z m593 14 l38 -23
-45 -27 c-24 -14 -49 -26 -55 -26 -12 0 -83 41 -79 45 6 7 93 55 98 55 3 -1
22 -11 43 -24z m382 -7 l37 -22 -46 -28 c-25 -16 -49 -29 -53 -29 -5 0 -25 11
-47 23 l-38 24 43 26 c54 32 59 32 104 6z m-1225 -33 l43 -24 -49 -30 -48 -31
-38 21 c-21 12 -38 25 -38 29 0 5 74 55 86 59 1 0 21 -11 44 -24z m600 4 c22
-11 40 -22 40 -24 0 -2 -21 -16 -47 -32 l-47 -27 -43 23 c-24 13 -42 24 -41
26 4 4 93 54 96 54 1 0 21 -9 42 -20z m-246 -33 l38 -24 -48 -28 -48 -28 -43
23 c-24 13 -42 24 -41 26 6 5 93 54 98 54 3 0 22 -11 44 -23z m622 -8 c19 -11
32 -24 30 -27 -2 -4 -24 -18 -49 -31 l-44 -24 -37 22 c-41 26 -40 33 12 61 47
24 48 24 88 -1z m6391 -190 c164 -94 306 -178 316 -187 21 -19 22 -52 2 -52
-27 0 -644 363 -651 382 -7 23 4 41 22 34 7 -3 147 -82 311 -177z m-7233 150
c20 -12 36 -23 36 -25 0 -2 -18 -15 -41 -30 -44 -28 -68 -27 -108 4 l-24 19
44 26 c55 31 51 31 93 6z m601 4 c19 -9 35 -20 35 -24 0 -4 -20 -19 -45 -34
l-45 -26 -40 22 c-21 12 -37 26 -34 31 6 9 74 47 86 48 4 0 23 -8 43 -17z
m-247 -33 c17 -11 32 -22 32 -24 0 -2 -20 -16 -45 -30 l-45 -27 -40 21 c-46
23 -45 32 8 60 47 24 50 24 90 0z m996 -11 c20 -12 36 -24 36 -28 0 -3 -20
-18 -43 -32 -46 -28 -48 -28 -106 8 l-24 15 49 29 c27 16 50 29 51 29 1 0 18
-9 37 -21z m-586 -52 c10 -8 2 -17 -34 -38 l-48 -27 -38 19 c-21 11 -38 23
-38 27 0 4 19 19 43 33 39 25 44 25 72 11 17 -8 36 -19 43 -25z m-626 12 l41
-21 -46 -29 c-26 -16 -50 -29 -54 -29 -5 0 -25 11 -47 24 l-39 23 44 26 c55
31 52 31 101 6z m366 -37 l23 -15 -49 -29 -50 -28 -42 24 -42 24 28 18 c16 9
38 23 49 29 21 13 32 10 83 -23z m982 -2 c22 -11 40 -22 40 -25 0 -2 -21 -16
-46 -31 l-47 -28 -44 24 -44 23 48 28 c26 16 49 29 51 29 1 0 21 -9 42 -20z
m-1192 -54 c10 -7 2 -16 -33 -38 l-46 -29 -40 22 c-21 13 -39 25 -39 28 0 3
22 18 48 32 50 28 55 27 110 -15z m1392 -68 c0 -3 -20 -18 -45 -33 l-45 -26
-42 25 -41 24 49 30 48 30 38 -21 c21 -12 38 -25 38 -29z m-1496 -44 c25 -14
46 -29 46 -33 0 -5 -20 -19 -44 -31 -47 -25 -72 -22 -125 19 l-24 18 44 26
c24 14 47 25 50 26 4 1 27 -11 53 -25z m1600 -8 l39 -24 -49 -30 -48 -30 -38
21 c-21 12 -38 25 -38 28 0 7 80 58 90 58 3 0 22 -10 44 -23z m-320 -30 l40
-24 -48 -29 -48 -30 -39 21 c-21 11 -39 24 -39 27 0 7 79 58 90 59 3 0 23 -11
44 -24z m450 -47 c20 -12 36 -23 36 -25 0 -2 -18 -15 -41 -30 -44 -28 -68 -27
-108 4 l-24 19 44 26 c55 31 51 31 93 6z m5668 -180 c172 -99 319 -188 326
-197 18 -23 15 -42 -6 -42 -16 0 -513 279 -614 346 -27 17 -38 31 -38 49 0 14
4 25 9 25 5 0 150 -81 323 -181z m-5980 148 l37 -23 -45 -27 c-25 -15 -49 -27
-54 -27 -14 0 -67 33 -69 44 -3 9 67 55 84 55 6 0 27 -10 47 -22z m6153 -52
c150 -87 191 -126 152 -141 -15 -5 -285 148 -304 173 -18 24 -16 43 5 43 10 0
76 -34 147 -75z m-5692 -20 c43 -22 46 -32 12 -41 -16 -4 -36 1 -60 16 -33 21
-35 23 -18 36 10 7 20 12 23 11 3 -1 22 -11 43 -22z m-326 -6 l35 -22 -48 -29
-47 -30 -36 20 c-20 12 -37 24 -38 29 -3 10 66 52 86 53 7 0 29 -10 48 -21z
m-289 -9 c17 -11 32 -22 32 -24 0 -2 -20 -16 -45 -30 l-45 -27 -40 21 c-46 23
-45 32 8 60 47 24 50 24 90 0z m5778 -56 c122 -70 144 -87 144 -110 0 -24 -21
-16 -150 59 -92 54 -126 79 -128 95 -2 12 2 22 8 22 6 0 62 -30 126 -66z
m-5032 -5 c41 -24 45 -35 16 -44 -12 -4 -35 2 -60 16 -36 20 -38 24 -22 35 23
18 25 17 66 -7z m-584 -38 c0 -5 -20 -21 -44 -35 l-45 -26 -35 21 c-20 12 -36
25 -36 29 0 5 19 19 43 33 42 24 42 24 80 5 20 -10 37 -22 37 -27z m280 19
c22 -11 40 -23 40 -25 0 -3 -18 -16 -41 -31 -45 -28 -71 -27 -109 4 l-23 18
44 27 c24 14 45 26 47 27 1 0 21 -9 42 -20z m440 -60 c22 -11 40 -22 40 -25 0
-2 -9 -9 -20 -15 -28 -15 -106 26 -89 47 15 17 23 17 69 -7z m4083 -33 c50
-30 286 -165 522 -302 237 -136 438 -255 448 -263 15 -13 25 -52 12 -52 -14 0
-1081 623 -1088 635 -7 14 -2 35 9 35 2 0 46 -24 97 -53z m-4382 11 l39 -22
-45 -28 c-25 -15 -48 -28 -52 -28 -5 0 -25 11 -47 23 l-38 24 43 26 c54 32 52
32 100 5z m-287 -9 c20 -12 34 -24 32 -27 -2 -4 -24 -18 -49 -31 l-44 -24 -37
22 c-41 26 -40 33 12 61 46 24 44 24 86 -1z m6006 -187 c123 -71 155 -94 155
-111 0 -36 21 -46 -362 176 -78 46 -93 58 -93 79 l0 25 73 -40 c39 -22 142
-80 227 -129z m-5280 137 c32 -20 33 -22 16 -35 -16 -11 -24 -10 -57 7 -38 19
-46 29 -32 42 12 12 37 7 73 -14z m-560 -51 c0 -3 -20 -18 -45 -33 l-45 -26
-40 22 c-44 25 -43 29 17 64 l38 22 37 -21 c21 -12 38 -24 38 -28z m259 31
l35 -21 -47 -29 -47 -29 -40 20 c-22 11 -40 24 -40 28 0 10 72 51 90 52 8 0
30 -9 49 -21z m-572 -20 l35 -22 -50 -29 -50 -28 -41 24 -42 23 43 26 c53 32
62 33 105 6z m733 -78 c0 -4 -20 -18 -45 -34 l-46 -27 -41 26 -41 26 49 28 48
29 38 -21 c21 -12 38 -24 38 -27z m-320 15 l43 -24 -49 -30 -48 -31 -38 21
c-21 12 -38 25 -38 29 0 4 19 19 43 32 23 14 43 25 43 26 1 1 21 -10 44 -23z
m-250 -36 c0 -3 -21 -17 -48 -32 l-47 -26 -37 21 c-21 12 -38 24 -38 27 0 3
21 17 47 32 l47 26 38 -21 c21 -12 38 -24 38 -27z m-290 -9 c0 -5 -20 -21 -45
-35 l-45 -27 -41 27 -41 26 48 28 49 28 38 -19 c20 -11 37 -23 37 -28z m670
-31 c22 -11 40 -24 40 -28 0 -4 -55 -38 -122 -76 l-121 -70 -35 20 c-19 11
-35 24 -36 28 -1 6 214 140 232 145 1 1 21 -8 42 -19z m-276 -14 l38 -24 -44
-26 c-54 -31 -57 -32 -103 -5 l-36 22 48 28 c26 16 50 29 53 29 3 -1 22 -11
44 -24z m5810 -97 c116 -67 217 -126 224 -131 13 -12 17 -48 4 -48 -9 0 -353
196 -414 236 -23 15 -38 32 -38 44 0 11 3 20 6 20 3 0 101 -55 218 -121z
m-6100 87 l39 -24 -41 -26 c-23 -14 -46 -26 -51 -26 -16 0 -81 33 -81 41 0 6
79 58 90 59 3 0 23 -11 44 -24z m-216 -50 c56 -32 100 -61 98 -65 -3 -3 -24
-17 -49 -30 l-44 -24 -102 58 c-55 31 -103 61 -106 65 -4 7 85 62 95 57 3 -1
51 -28 108 -61z m353 -28 l39 -22 -45 -28 c-25 -15 -49 -28 -55 -28 -14 0 -67
33 -69 44 -2 8 67 55 83 56 4 0 26 -10 47 -22z m2147 -113 l112 -66 163 51
c89 27 167 50 174 50 17 0 26 -19 11 -24 -7 -3 -80 -26 -162 -51 l-149 -47
123 -71 c94 -54 119 -72 105 -77 -14 -5 -94 36 -272 139 -139 80 -253 149
-253 153 0 20 43 3 148 -57z m-2011 34 c26 -16 32 -24 22 -30 -8 -4 -63 -37
-124 -72 l-110 -65 -38 20 c-21 10 -37 23 -35 28 4 13 219 139 237 139 7 1 29
-9 48 -20z m-289 -9 c17 -11 32 -22 32 -24 0 -2 -20 -16 -45 -30 l-45 -27 -40
21 c-46 23 -45 32 8 60 47 24 50 24 90 0z m6110 -102 c227 -126 268 -156 242
-182 -11 -11 -68 17 -220 110 -67 41 -86 58 -88 78 -2 14 -1 26 2 26 4 0 32
-14 64 -32z m1 -205 c102 -58 198 -115 214 -125 26 -19 38 -58 17 -58 -11 0
-376 209 -422 242 -31 21 -40 65 -12 54 9 -3 100 -54 203 -113z"/>
<path d="M13228 12679 c-13 -7 -18 -22 -18 -51 0 -72 65 -147 116 -134 55 14
21 146 -46 181 -34 17 -30 17 -52 4z"/>
<path d="M3770 16359 c-58 -34 -166 -96 -240 -138 -74 -43 -299 -172 -500
-288 -201 -116 -581 -335 -845 -487 -264 -152 -492 -290 -507 -306 l-28 -30 0
-631 c0 -571 2 -634 17 -659 23 -40 255 -170 303 -170 29 0 126 52 476 253
241 140 696 401 1009 582 791 455 749 430 763 460 9 19 12 188 12 656 0 564
-2 632 -16 654 -9 14 -72 57 -140 95 -158 90 -164 90 -304 9z m100 -899 l0
-279 102 59 c57 33 109 60 116 60 10 0 12 -20 10 -82 l-3 -83 -165 -97 c-91
-53 -171 -97 -177 -97 -10 -1 -13 78 -13 362 0 199 4 367 8 373 10 15 94 64
110 64 9 0 12 -63 12 -280z m-260 -233 c0 -334 -1 -365 -17 -379 -32 -27 -94
-58 -104 -53 -5 4 -9 79 -10 168 l-1 162 -32 -100 c-28 -85 -37 -103 -66 -122
-18 -13 -37 -23 -42 -23 -5 0 -24 32 -43 72 l-35 72 0 -179 c0 -99 -4 -185 -8
-190 -9 -14 -97 -65 -111 -65 -8 0 -10 108 -9 367 l3 368 50 32 c27 18 54 32
60 30 5 -1 34 -53 64 -115 30 -62 58 -112 62 -112 4 0 10 12 14 28 3 15 29 98
56 185 l50 158 47 30 c25 16 52 29 59 29 10 0 13 -71 13 -363z m-572 -32 c5
-90 -1 -100 -73 -140 l-65 -37 0 -282 c0 -257 -2 -284 -17 -298 -24 -20 -92
-58 -104 -58 -5 0 -9 111 -9 280 l0 281 -63 -36 c-35 -19 -67 -35 -70 -35 -9
0 -8 152 1 166 11 17 375 224 387 221 6 -2 11 -30 13 -62z m-500 -565 c1 -184
0 -349 -3 -367 -5 -26 -16 -38 -60 -63 -30 -17 -59 -29 -65 -25 -6 4 -10 59
-10 136 0 72 -3 129 -8 127 -4 -1 -35 -19 -70 -38 l-62 -35 0 -127 c0 -70 -4
-138 -9 -151 -11 -27 -97 -81 -118 -73 -10 4 -13 77 -13 361 0 339 1 356 20
375 25 25 100 63 108 55 4 -4 9 -64 12 -135 l5 -128 68 39 67 40 0 133 c0 147
2 153 65 191 73 43 70 59 73 -315z"/>
<path d="M16500 15589 c-21 -38 19 -129 56 -129 37 0 36 90 -2 131 -22 25 -41
24 -54 -2z"/>
<path d="M16665 15503 c-34 -33 5 -137 48 -131 17 2 23 11 25 37 7 69 -40 128
-73 94z"/>
<path d="M16816 15404 c-18 -48 18 -128 57 -122 32 4 36 73 7 111 -24 30 -55
35 -64 11z"/>
<path d="M3805 13879 c-64 -38 -306 -177 -900 -519 -515 -296 -699 -403 -850
-490 -88 -51 -204 -117 -258 -148 -54 -30 -109 -68 -122 -84 l-25 -30 0 -630
c0 -570 2 -633 17 -658 11 -19 60 -53 142 -99 134 -75 167 -84 221 -56 16 8
510 292 1097 630 770 443 1073 622 1085 642 17 26 18 76 18 663 0 540 -2 639
-15 656 -8 12 -71 53 -139 93 -153 87 -171 88 -271 30z m-167 -1007 l3 -92 54
31 c65 37 67 34 63 -67 l-3 -68 -57 -34 -58 -34 0 -90 c0 -49 -4 -98 -10 -108
-9 -17 -93 -70 -111 -70 -5 0 -9 43 -9 96 l0 96 -55 -31 c-31 -18 -60 -29 -65
-26 -12 7 -13 135 -2 151 4 6 33 26 65 45 l57 34 0 95 c0 52 4 100 8 106 11
16 96 64 107 61 6 -2 11 -45 13 -95z m-458 -263 c0 -49 3 -89 8 -89 4 0 25 12
47 25 62 38 65 36 65 -55 l0 -79 -60 -33 -59 -33 -3 -104 -3 -105 -45 -27
c-76 -46 -80 -43 -80 61 0 50 -3 90 -7 90 -5 0 -26 -11 -48 -25 -62 -38 -65
-35 -65 55 l0 79 58 34 57 33 3 85 c1 46 4 94 7 106 5 22 102 86 117 77 4 -3
8 -45 8 -95z m-406 -44 c43 -21 68 -66 70 -128 1 -51 1 -51 -49 -84 -27 -18
-55 -33 -61 -33 -6 0 -17 15 -25 32 -18 41 -36 45 -79 16 -64 -43 -75 -75 -78
-238 -3 -132 -2 -148 16 -170 18 -22 21 -23 51 -10 42 17 76 62 94 125 12 44
20 53 68 82 33 19 58 28 64 22 16 -16 -12 -139 -49 -213 -38 -78 -117 -164
-175 -193 -20 -9 -55 -17 -78 -18 -53 0 -96 38 -114 103 -19 68 -16 319 4 399
31 120 95 220 174 274 72 50 115 58 167 34z"/>
<path d="M17928 13063 c-6 -25 9 -78 27 -93 8 -7 22 -9 31 -6 13 5 15 15 11
47 -3 22 -11 46 -17 54 -17 20 -47 19 -52 -2z"/>
<path d="M18060 12991 c-17 -34 14 -103 44 -99 30 4 33 56 6 91 -25 32 -36 34
-50 8z"/>
<path d="M18185 12911 c-6 -21 16 -84 34 -96 16 -9 41 13 41 37 0 57 -60 104
-75 59z"/>
<path d="M10807 11173 c-4 -3 -7 -12 -7 -20 0 -11 4 -11 20 -3 11 6 18 15 15
21 -7 11 -19 12 -28 2z"/>
<path d="M3787 10690 c-68 -17 -158 -77 -237 -157 -13 -14 -12 -14 10 -2 17
10 59 14 130 13 91 0 117 -4 200 -33 112 -38 326 -147 537 -273 559 -334 877
-723 1154 -1413 55 -137 155 -439 328 -996 183 -590 292 -881 421 -1127 190
-360 414 -582 687 -678 46 -16 59 -17 115 -5 165 33 448 145 649 256 56 31
102 55 104 53 2 -3 732 -1852 785 -1988 l21 -55 -69 70 c-38 39 -395 414 -792
835 -398 421 -732 775 -744 787 -19 20 -27 21 -105 15 l-84 -7 953 -1005
c1044 -1102 960 -1023 1047 -984 l41 19 -470 1190 c-462 1168 -470 1189 -450
1205 49 36 293 192 297 189 2 -3 19 -47 37 -99 34 -94 34 -94 78 -109 66 -20
240 -19 320 2 86 23 199 77 277 133 34 25 63 46 63 47 0 1 -32 123 -70 272
-39 148 -70 273 -70 278 0 5 18 46 40 90 26 55 45 110 54 165 8 46 16 85 17
87 2 2 108 -267 236 -598 231 -601 232 -602 207 -607 l-25 -5 35 -34 c64 -62
118 -228 86 -266 -17 -20 -57 -19 -68 3 -6 9 -13 37 -17 62 -16 95 -67 190
-116 216 -43 22 -55 6 -30 -37 41 -72 69 -235 44 -260 -16 -16 -51 -19 -62 -5
-6 7 -13 37 -16 67 -9 77 -33 168 -53 204 -14 23 -29 32 -67 41 -28 7 -57 15
-66 18 -13 6 -17 -1 -22 -34 -11 -82 -89 -146 -237 -194 -180 -59 -295 -54
-344 16 -16 22 -16 22 -36 3 -64 -65 -52 -417 23 -643 18 -54 27 -67 62 -87
54 -32 146 -55 218 -55 89 0 247 36 361 82 55 22 135 54 176 71 50 20 139 41
269 63 107 18 195 35 198 37 2 2 -10 35 -26 73 -51 121 -57 110 61 117 113 6
214 30 326 76 85 35 211 108 266 154 l38 33 -67 249 c-162 603 -532 1870 -664
2275 -93 286 -172 433 -291 543 -174 161 -403 187 -823 92 -62 -14 -122 -28
-134 -31 -15 -4 -24 -1 -27 7 -2 8 -16 57 -31 109 -36 131 -77 210 -139 269
-62 57 -104 81 -206 112 -64 19 -98 23 -232 23 l-157 1 -3 135 -3 135 -37 -70
c-103 -197 -172 -515 -199 -910 -10 -147 -15 -177 -37 -220 -108 -218 -286
-388 -526 -505 -192 -94 -391 -141 -652 -155 -194 -11 -183 -16 -223 118 -82
273 -207 654 -263 797 -250 640 -548 1035 -1018 1347 -117 77 -360 218 -488
282 -179 90 -376 136 -475 111z"/>
<path d="M17098 7032 c-190 -115 -222 -152 -221 -257 1 -34 12 -94 26 -140 32
-99 53 -185 62 -248 5 -40 11 -50 37 -63 41 -21 79 -14 150 27 90 53 88 44 88
428 0 182 -3 331 -7 330 -5 0 -65 -35 -135 -77z"/>
<path d="M4491 5358 c-282 -715 -514 -1307 -515 -1315 -1 -9 23 -24 62 -40
l64 -26 58 59 c32 32 491 518 1020 1078 l963 1020 -69 23 -69 23 -55 -60
c-167 -184 -1735 -1836 -1737 -1831 -2 3 200 519 447 1146 248 627 449 1146
448 1153 -2 7 -26 26 -53 42 l-50 29 -514 -1301z"/>
<path d="M14876 6138 c-9 -12 -15 -23 -13 -24 1 -1 40 6 86 15 90 19 86 31
-11 31 -37 0 -50 -5 -62 -22z"/>
<path d="M6380 4232 l0 -1828 65 0 65 1 -2 1814 -3 1815 -25 6 c-14 4 -42 10
-62 14 l-38 7 0 -1829z"/>
<path d="M11430 5676 c-47 -7 -147 -21 -222 -31 -135 -18 -137 -19 -110 -35
76 -46 142 -165 145 -260 l2 -45 -39 0 -39 0 -13 57 c-15 66 -51 141 -88 186
-32 37 -100 72 -127 65 -17 -5 -16 -9 19 -48 49 -52 83 -141 85 -219 2 -54 0
-61 -22 -72 -40 -21 -57 -3 -70 72 -25 143 -93 254 -155 254 l-26 0 25 -47
c47 -93 72 -252 43 -281 -13 -13 -64 -16 -72 -4 -2 4 -7 35 -11 67 -11 108
-25 169 -48 215 -19 40 -27 46 -65 53 -24 5 -64 22 -90 38 -25 16 -49 29 -53
29 -4 0 -10 -15 -14 -32 -14 -67 -36 -98 -96 -135 -50 -30 -61 -42 -70 -77
-36 -133 -52 -146 -169 -128 -134 19 -206 48 -255 99 -28 28 -50 43 -59 40
-24 -9 -29 -85 -12 -187 9 -52 20 -181 25 -286 8 -163 13 -200 33 -250 21 -53
29 -62 77 -88 108 -58 220 -70 387 -41 89 16 188 47 385 123 89 35 136 46 316
72 117 16 256 42 310 56 219 57 425 188 526 336 l36 53 2 130 c2 115 0 135
-18 170 -29 55 -88 110 -148 136 -62 28 -200 34 -325 15z"/>
</g>
</svg>
