<svg width="125" height="65" viewBox="0 0 125 65" fill="none" xmlns="http://www.w3.org/2000/svg">
<g opacity="0.1">
<path d="M84.8691 42.0421C84.8691 42.7589 84.4856 43.4208 83.8637 43.7773L62.1414 56.2287C61.5253 56.5818 60.7682 56.5818 60.1522 56.2287L38.4298 43.7773C37.808 43.4208 37.4244 42.7589 37.4244 42.0421V17.1641C37.4244 16.4473 37.808 15.7854 38.4298 15.4289L60.1522 2.97748C60.7682 2.62435 61.5253 2.62435 62.1414 2.97748L83.8637 15.4289C84.4856 15.7854 84.8691 16.4473 84.8691 17.1641V42.0421Z" fill="white"/>
<path d="M132.313 29.6824C132.313 30.3983 131.931 31.0595 131.31 31.4163L123.634 35.8293C123.017 36.1841 122.258 36.1841 121.64 35.8293L113.964 31.4163C113.344 31.0595 112.961 30.3983 112.961 29.6824V20.8712C112.961 20.1554 113.344 19.4941 113.964 19.1373L121.64 14.7243C122.258 14.3695 123.017 14.3695 123.634 14.7243L131.31 19.1373C131.931 19.4941 132.313 20.1554 132.313 20.8712V29.6824Z" fill="white"/>
<path d="M34.9219 31.3777C34.9219 32.0936 34.5393 32.7548 33.9187 33.1116L26.2424 37.5246C25.6253 37.8794 24.866 37.8794 24.2488 37.5246L16.5726 33.1116C15.952 32.7548 15.5694 32.0936 15.5694 31.3777V22.5665C15.5694 21.8507 15.952 21.1894 16.5726 20.8326L24.2488 16.4197C24.866 16.0648 25.6253 16.0648 26.2424 16.4197L33.9187 20.8326C34.5393 21.1894 34.9219 21.8507 34.9219 22.5665V31.3777Z" fill="white"/>
<path d="M111.087 28.4445C111.087 29.1612 110.703 29.8232 110.082 30.1796L88.3592 42.6311C87.7431 42.9842 86.986 42.9842 86.3699 42.6311L64.6476 30.1796C64.0257 29.8232 63.6422 29.1612 63.6422 28.4445V3.56643C63.6422 2.84967 64.0257 2.18772 64.6476 1.83127L86.3699 -10.6202C86.986 -10.9733 87.7431 -10.9733 88.3592 -10.6202L110.082 1.83127C110.703 2.18772 111.087 2.84967 111.087 3.56643V28.4445Z" stroke="white"/>
<path d="M56.9922 14.0237C56.9922 14.7401 56.609 15.4018 55.9876 15.7584L44.2536 22.4914C43.6371 22.8451 42.8793 22.8451 42.2628 22.4914L30.5288 15.7584C29.9074 15.4018 29.5242 14.7401 29.5242 14.0237V0.579014C29.5242 -0.137423 29.9074 -0.799134 30.5288 -1.1557L42.2628 -7.88868C42.8793 -8.2424 43.6371 -8.2424 44.2536 -7.88868L55.9876 -1.1557C56.609 -0.799134 56.9922 -0.137423 56.9922 0.579014V14.0237Z" stroke="white"/>
<path d="M121.556 56.1276C121.556 56.8203 121.197 57.4638 120.608 57.8283L111.848 63.2492C111.203 63.6482 110.388 63.6482 109.743 63.2492L100.983 57.8283C100.394 57.4638 100.035 56.8203 100.035 56.1276V45.0394C100.035 44.3466 100.394 43.7032 100.983 43.3386L109.743 37.9178C110.388 37.5187 111.203 37.5187 111.848 37.9178L120.608 43.3386C121.197 43.7032 121.556 44.3466 121.556 45.0394V56.1276Z" stroke="white"/>
<path d="M22.5762 11.8934C22.5762 12.613 22.1895 13.2772 21.5637 13.6326L12.9511 18.5232C12.3387 18.871 11.5884 18.871 10.976 18.5232L2.36333 13.6326C1.73753 13.2772 1.3509 12.613 1.3509 11.8934V2.16927C1.3509 1.44962 1.73753 0.785459 2.36332 0.430106L10.976 -4.46053C11.5884 -4.80831 12.3387 -4.80831 12.9511 -4.46053L21.5637 0.430105C22.1895 0.785459 22.5762 1.44962 22.5762 2.16927V11.8934Z" stroke="white"/>
</g>
</svg>
