<?xml version="1.0" encoding="UTF-8" standalone="no"?>
<!-- Created with Inkscape (http://www.inkscape.org/) -->

<svg
   xmlns:dc="http://purl.org/dc/elements/1.1/"
   xmlns:cc="http://creativecommons.org/ns#"
   xmlns:rdf="http://www.w3.org/1999/02/22-rdf-syntax-ns#"
   xmlns:svg="http://www.w3.org/2000/svg"
   xmlns="http://www.w3.org/2000/svg"
   xmlns:sodipodi="http://sodipodi.sourceforge.net/DTD/sodipodi-0.dtd"
   xmlns:inkscape="http://www.inkscape.org/namespaces/inkscape"
   width="204.00635mm"
   height="204.00635mm"
   viewBox="0 0 722.85714 722.85713"
   id="svg2"
   version="1.1"
   inkscape:version="0.91 r13725"
   sodipodi:docname="222-1039 ninja dan data security .svg"
   inkscape:export-filename="D:\0. Vexagrafi\paid vector\222-1039 ninja dan keamanan.png"
   inkscape:export-xdpi="91"
   inkscape:export-ydpi="91">
  <defs
     id="defs4" />
  <sodipodi:namedview
     id="base"
     pagecolor="#ffffff"
     bordercolor="#666666"
     borderopacity="1.0"
     inkscape:pageopacity="0.0"
     inkscape:pageshadow="2"
     inkscape:zoom="0.73458501"
     inkscape:cx="151.10573"
     inkscape:cy="360.06727"
     inkscape:document-units="px"
     inkscape:current-layer="layer1"
     showgrid="false"
     inkscape:window-width="1366"
     inkscape:window-height="706"
     inkscape:window-x="-8"
     inkscape:window-y="-8"
     inkscape:window-maximized="1"
     fit-margin-top="0"
     fit-margin-left="0"
     fit-margin-right="0"
     fit-margin-bottom="0" />
  <metadata
     id="metadata7">
    <rdf:RDF>
      <cc:Work
         rdf:about="">
        <dc:format>image/svg+xml</dc:format>
        <dc:type
           rdf:resource="http://purl.org/dc/dcmitype/StillImage" />
        <dc:title />
      </cc:Work>
    </rdf:RDF>
  </metadata>
  <g
     inkscape:label="Layer 1"
     inkscape:groupmode="layer"
     id="layer1"
     transform="translate(-17.142857,-69.505058)">
    <g
       id="g4183">
      <rect
         ry="3.0648999"
         y="69.505058"
         x="17.142857"
         height="722.85712"
         width="722.85712"
         id="rect4341"
         style="opacity:1;fill:#b2ebf2;fill-opacity:1;fill-rule:evenodd;stroke:none;stroke-width:1;stroke-miterlimit:4;stroke-dasharray:1, 1;stroke-dashoffset:0;stroke-opacity:0.99479167" />
      <rect
         style="opacity:1;fill:#0097a7;fill-opacity:1;fill-rule:evenodd;stroke:none;stroke-width:1;stroke-miterlimit:4;stroke-dasharray:1, 1;stroke-dashoffset:0;stroke-opacity:0.99479167"
         id="rect4333"
         width="23.10416"
         height="43.778782"
         x="290.87015"
         y="525.51062"
         ry="1.3461535"
         transform="matrix(1,0,-0.19578956,0.98064593,0,0)" />
      <rect
         transform="matrix(1,0,-0.19578956,0.98064593,0,0)"
         ry="1.3461535"
         y="525.51062"
         x="293.45868"
         height="43.778782"
         width="23.10416"
         id="rect4329"
         style="opacity:1;fill:#00acc1;fill-opacity:1;fill-rule:evenodd;stroke:none;stroke-width:1;stroke-miterlimit:4;stroke-dasharray:1, 1;stroke-dashoffset:0;stroke-opacity:0.99479167" />
      <rect
         ry="0.91517866"
         y="543.25507"
         x="172.5"
         height="7.3214288"
         width="142.67857"
         id="rect4317"
         style="opacity:1;fill:#4d4d4d;fill-opacity:1;fill-rule:evenodd;stroke:none;stroke-width:1;stroke-miterlimit:4;stroke-dasharray:1, 1;stroke-dashoffset:0;stroke-opacity:0.99479167" />
      <rect
         style="opacity:1;fill:#808080;fill-opacity:1;fill-rule:evenodd;stroke:none;stroke-width:1;stroke-miterlimit:4;stroke-dasharray:1, 1;stroke-dashoffset:0;stroke-opacity:0.99479167"
         id="rect4319"
         width="93.802605"
         height="2.9020114"
         x="221.37596"
         y="543.25507"
         ry="0.36275145" />
      <rect
         style="opacity:1;fill:#999999;fill-opacity:1;fill-rule:evenodd;stroke:none;stroke-width:1;stroke-miterlimit:4;stroke-dasharray:1, 1;stroke-dashoffset:0;stroke-opacity:0.99479167"
         id="rect4311"
         width="151.42857"
         height="5.7142859"
         x="167.85715"
         y="544.86218"
         ry="0.71428579" />
      <path
         sodipodi:nodetypes="ccccc"
         inkscape:connector-curvature="0"
         id="path4331"
         d="m 135.86552,460.30077 -1.71918,4.47916 c 2.13202,22.05771 5.0346,45.17484 8.43518,66.78069 1.92847,1.3067 1.74792,1.14776 3.74266,2.34867 z"
         style="fill:#00acc1;fill-rule:evenodd;stroke:none;stroke-width:1px;stroke-linecap:butt;stroke-linejoin:miter;stroke-opacity:1" />
      <rect
         style="opacity:1;fill:#00acc1;fill-opacity:1;fill-rule:evenodd;stroke:none;stroke-width:1;stroke-miterlimit:4;stroke-dasharray:1, 1;stroke-dashoffset:0;stroke-opacity:0.99479167"
         id="rect4335"
         width="124.2489"
         height="75.049187"
         x="73.12973"
         y="463.54745"
         ry="1.8885942"
         transform="matrix(1,0,0.12826265,0.99174023,0,0)" />
      <rect
         transform="matrix(1,0,0.12826265,0.99174023,0,0)"
         ry="1.8885942"
         y="463.54745"
         x="76.160187"
         height="75.049187"
         width="124.2489"
         id="rect4295"
         style="opacity:1;fill:#00bcd4;fill-opacity:1;fill-rule:evenodd;stroke:none;stroke-width:1;stroke-miterlimit:4;stroke-dasharray:1, 1;stroke-dashoffset:0;stroke-opacity:0.99479167" />
      <rect
         ry="3.0648999"
         y="550.93365"
         x="65.714287"
         height="167.14285"
         width="571.50336"
         id="rect4293"
         style="opacity:1;fill:#f57c00;fill-opacity:1;fill-rule:evenodd;stroke:none;stroke-width:1;stroke-miterlimit:4;stroke-dasharray:1, 1;stroke-dashoffset:0;stroke-opacity:0.99479167" />
      <rect
         style="opacity:1;fill:#fb8c00;fill-opacity:1;fill-rule:evenodd;stroke:none;stroke-width:1;stroke-miterlimit:4;stroke-dasharray:1, 1;stroke-dashoffset:0;stroke-opacity:0.99479167"
         id="rect4291"
         width="183.74985"
         height="167.14285"
         x="172.85715"
         y="550.93365"
         ry="3.0648999" />
      <path
         style="fill:#ff9955;fill-opacity:1;fill-rule:evenodd;stroke:none;stroke-width:0.91097486px;stroke-linecap:butt;stroke-linejoin:miter;stroke-opacity:1"
         d="m 302.23949,478.35866 -11.50154,-0.54524 -8.98602,6.64483 -8.94043,10.70218 3.19366,2.37554 11.97169,-7.50499 10.85592,-0.65093 2.04107,0.13388 5.88839,-6.14025 z"
         id="path4287"
         inkscape:connector-curvature="0"
         sodipodi:nodetypes="cccccccccc" />
      <path
         sodipodi:nodetypes="ccccccccccccc"
         inkscape:connector-curvature="0"
         id="path4539-5-5"
         d="m 493.73187,425.08532 c 12.75292,-4.51602 25.63787,-4.56923 35.74588,-4.40146 l 11.20549,9.21521 c 23.64857,14.75868 46.92345,52.01791 55.26741,61.85403 l 17.90451,-12.27332 69.14296,-32.40068 5.55774,0.95703 c 8.61658,-4.50278 4.60939,2.81017 4.85513,11.16416 l -95.49644,63.89684 -16.8686,-6.95133 -49.97491,-33.8944 -20.53939,-14.06571 z"
         style="fill:#263238;fill-rule:evenodd;stroke:none;stroke-width:0.91097486px;stroke-linecap:butt;stroke-linejoin:miter;stroke-opacity:1" />
      <path
         style="fill:#212121;fill-rule:evenodd;stroke:none;stroke-width:0.91097486px;stroke-linecap:butt;stroke-linejoin:miter;stroke-opacity:1"
         d="m 678.16349,447.23812 c 8.32621,4.15729 9.04531,8.62053 7.88731,16.00496 4.0724,5.2731 8.99191,7.84228 11.19947,13.60541 2.52645,4.72826 1.98878,5.49031 5.30747,12.75552 1.49485,1.86322 5.70159,0.91219 7.09626,1.07381 -1.27874,-17.09749 -10.81842,-38.35796 -17.44749,-49.94963 -4.96192,1.05529 -7.24857,1.11276 -14.04302,6.50994 z"
         id="path5525"
         inkscape:connector-curvature="0"
         sodipodi:nodetypes="ccccccc" />
      <path
         sodipodi:nodetypes="cccccccccccccc"
         inkscape:connector-curvature="0"
         id="path4537-3-6"
         d="m 530.63679,470.7714 c 42.03311,10.34692 81.13015,26.38177 126.18297,30.87888 6.28047,-5.75692 5.2442,-11.17779 6.59431,-16.70827 l -41.15332,-109.49342 -2.75859,-3.2581 -8.73021,-3.19333 -2.5782,1.65964 -0.95637,3.53807 11.27811,71.80777 1.34677,12.56443 -72.53473,-37.04246 c -14.7385,-4.92174 -23.84381,-3.62807 -30.18481,0.70915 l -15.99679,36.69475 z"
         style="fill:#37474f;fill-rule:evenodd;stroke:none;stroke-width:0.91097486px;stroke-linecap:butt;stroke-linejoin:miter;stroke-opacity:1" />
      <path
         style="fill:#ff9955;fill-rule:evenodd;stroke:none;stroke-width:0.91097486px;stroke-linecap:butt;stroke-linejoin:miter;stroke-opacity:1"
         d="m 391.78073,431.96622 -22.57359,35.71201 -66.66254,11.41576 4.46379,8.44496 47.79429,2.30997 c 2.50251,-0.33556 10.89609,-3.05101 13.04453,-4.10766 l 25.48122,-31.02381 z"
         id="path4635-0"
         inkscape:connector-curvature="0"
         sodipodi:nodetypes="cccccccc" />
      <path
         style="fill:#212121;fill-rule:evenodd;stroke:none;stroke-width:0.91097486px;stroke-linecap:butt;stroke-linejoin:miter;stroke-opacity:1"
         d="m 411.97048,416.30985 c -3.65879,-2.7747 -8.15433,-4.18452 -14.17626,-3.10507 l -29.52225,38.33282 11.39586,11.68423 32.67825,-27.12696 c 2.44628,-6.60576 2.55572,-13.2017 -0.3756,-19.78502 z"
         id="path4285"
         inkscape:connector-curvature="0"
         sodipodi:nodetypes="cccccc" />
      <path
         sodipodi:nodetypes="ccccccc"
         inkscape:connector-curvature="0"
         id="path4551-0-2"
         d="m 383.35849,405.03481 12.37019,15.69729 6.40265,25.25796 -16.08034,-11.6261 -5.99209,-10.42028 -8.44884,-6.47065 z"
         style="fill:#666666;fill-rule:evenodd;stroke:none;stroke-width:0.91097486px;stroke-linecap:butt;stroke-linejoin:miter;stroke-opacity:1" />
      <path
         sodipodi:nodetypes="cccscc"
         inkscape:connector-curvature="0"
         id="path4543-4-9"
         d="m 388.57629,410.58954 c 4.32538,7.78495 -3.29252,9.23407 -3.17059,24.3369 28.49266,35.49995 96.96967,15.70197 125.8798,37.01022 2.17996,-0.89109 -6.56181,-17.64753 -4.81613,-18.9261 14.67006,-10.7451 23.13048,-19.71936 21.09037,-38.23202 -44.66237,4.50527 -85.56034,-18.14834 -138.98345,-4.189 z"
         style="fill:#333333;fill-rule:evenodd;stroke:none;stroke-width:0.91097486px;stroke-linecap:butt;stroke-linejoin:miter;stroke-opacity:1" />
      <path
         sodipodi:nodetypes="cccccccc"
         inkscape:connector-curvature="0"
         id="path4547-2-7"
         d="m 390.62121,440.98232 -20.34,30.32211 -67.913,8.78018 5.46116,6.5053 60.11115,4.53121 c 2.50244,-0.33563 10.13093,-0.17129 12.2794,-1.22806 l 24.66957,-31.94217 z"
         style="fill:#ffb380;fill-rule:evenodd;stroke:none;stroke-width:0.91097486px;stroke-linecap:butt;stroke-linejoin:miter;stroke-opacity:1" />
      <path
         sodipodi:nodetypes="cccccc"
         inkscape:connector-curvature="0"
         id="path4545-3-8"
         d="m 414.54929,420.11423 c -4.33154,-1.52433 -9.04284,-1.49342 -14.44714,1.37407 l -21.8599,35.25601 19.87972,17.90742 22.82907,-35.81304 c 0.31135,-7.03728 -1.59943,-13.35134 -6.40175,-18.72446 z"
         style="fill:#212121;fill-rule:evenodd;stroke:none;stroke-width:0.91097486px;stroke-linecap:butt;stroke-linejoin:miter;stroke-opacity:1" />
      <path
         sodipodi:nodetypes="cccccccccc"
         inkscape:connector-curvature="0"
         id="path4549-1-5"
         d="m 302.88728,480.37779 -11.50155,-0.54524 -8.98601,6.64483 -8.94042,10.70218 3.19364,2.37555 11.9717,-7.505 10.85593,-0.65093 2.04106,0.13388 5.88838,-6.14025 z"
         style="fill:#ffb380;fill-rule:evenodd;stroke:none;stroke-width:0.91097486px;stroke-linecap:butt;stroke-linejoin:miter;stroke-opacity:1" />
      <path
         sodipodi:nodetypes="cccccccscccsccc"
         inkscape:connector-curvature="0"
         id="path4553-6-9"
         d="m 345.29162,403.24243 c 1.55314,3.04051 3.33921,3.74137 5.05801,5.11729 0.99001,4.81949 2.3455,8.86033 3.88267,12.51407 l 3.92069,-1.75356 2.99696,2.66715 3.90172,2.98734 c 0.21226,2.44027 2.78627,4.59684 4.40396,4.8429 4.65934,-0.94615 6.96893,-7.36617 9.60692,-9.60631 2.02857,-1.72264 -1.60644,-10.72801 1.42341,-12.39344 l 6.55924,-0.78829 -9.33564,-18.79504 c 0,0 -9.20883,-4.67526 -10.41228,-4.24484 -1.20347,0.4304 -18.63883,4.86562 -18.63883,4.86562 l -5.67085,11.4768 z"
         style="fill:#ffb380;fill-rule:evenodd;stroke:none;stroke-width:0.91097486px;stroke-linecap:butt;stroke-linejoin:miter;stroke-opacity:1" />
      <path
         sodipodi:nodetypes="cccccccccccc"
         inkscape:connector-curvature="0"
         id="path4555-4-0"
         d="m 341.45232,393.61317 c -1.74524,5.35963 0.86443,8.15099 3.91226,10.68394 l 10.37261,-8.0529 6.09905,1.69066 c 0.76227,-0.55112 6.46958,7.37883 7.18079,6.95514 0.61266,-0.36402 -3.76459,-9.10182 -3.19394,-9.34832 4.32483,-1.86814 7.403,-0.022 8.47728,10.3427 l 8.94844,3.26435 7.0232,4.38952 c 0.0322,-11.20641 -2.59108,-23.177 -15.70101,-37.68422 -2.69946,-0.30854 -0.40038,-0.065 -2.54087,2.02704 -12.49875,0.19727 -20.82493,9.52591 -30.57781,15.73209 z"
         style="fill:#424242;fill-rule:evenodd;stroke:none;stroke-width:0.91097486px;stroke-linecap:butt;stroke-linejoin:miter;stroke-opacity:1" />
      <path
         sodipodi:nodetypes="ccccc"
         inkscape:connector-curvature="0"
         id="path4557-2-5"
         d="m 362.5885,421.82598 c 4.32687,-3.78379 9.2132,-8.54607 9.2132,-8.54607 -1.17772,4.24644 -2.53093,8.40205 -5.4628,11.74086 l -3.3171,-2.00194 z"
         style="fill:#ffffff;fill-rule:evenodd;stroke:none;stroke-width:0.91097486px;stroke-linecap:butt;stroke-linejoin:miter;stroke-opacity:1" />
      <path
         sodipodi:nodetypes="cc"
         inkscape:connector-curvature="0"
         id="path4559-3-1"
         d="m 351.25705,405.45036 c 2.48315,-2.64862 5.24068,-5.33864 6.72942,-7.75462"
         style="fill:none;fill-rule:evenodd;stroke:#000000;stroke-width:1.37629616px;stroke-linecap:butt;stroke-linejoin:miter;stroke-opacity:1" />
      <ellipse
         transform="matrix(0.86136502,-0.50798651,0.50798651,0.86136502,0,0)"
         ry="1.6240169"
         rx="1.8514974"
         cy="529.71973"
         cx="99.766754"
         id="path4561-3-8"
         style="opacity:1;fill:#1a1a1a;fill-opacity:1;fill-rule:evenodd;stroke:none;stroke-width:1;stroke-miterlimit:4;stroke-dasharray:1, 1;stroke-dashoffset:0;stroke-opacity:0.99479167" />
      <path
         sodipodi:nodetypes="ccccccc"
         inkscape:connector-curvature="0"
         id="path4541-1-9-2"
         d="m 607.19483,383.01746 c 7.06566,-6.05687 11.45768,-4.98539 17.81204,-1.04942 6.44103,-1.70361 10.71973,-5.23856 16.88777,-5.03351 5.33851,-0.49089 5.83177,0.30069 13.81555,0.0654 2.29772,-0.65337 3.0558,-4.8991 3.7466,-6.1214 -16.25118,-5.46446 -39.54774,-4.93467 -52.80431,-3.33005 -0.95548,4.98212 -1.79094,7.11148 0.54235,15.4691 z"
         style="fill:#263238;fill-rule:evenodd;stroke:none;stroke-width:0.91097486px;stroke-linecap:butt;stroke-linejoin:miter;stroke-opacity:1" />
      <path
         sodipodi:nodetypes="ccccccc"
         inkscape:connector-curvature="0"
         id="path4283"
         d="m 351.10019,412.73598 c 0.72436,2.74613 2.40385,7.55255 3.7625,9.91812 1.04419,-0.42522 2.29284,-1.02131 3.33703,-2.34151 l 5.21258,5.17039 6.09771,6.04836 c 9.60719,-5.11208 14.06519,-15.9846 11.46999,-28.72317 -9.36838,-0.15924 -12.72258,11.40736 -29.87981,9.92781 z"
         style="fill:#333333;fill-rule:evenodd;stroke:none;stroke-width:1px;stroke-linecap:butt;stroke-linejoin:miter;stroke-opacity:1" />
      <rect
         ry="3.0648999"
         y="550.93365"
         x="65.714287"
         height="167.14285"
         width="112.09209"
         id="rect4289"
         style="opacity:1;fill:#f57c00;fill-opacity:1;fill-rule:evenodd;stroke:none;stroke-width:1;stroke-miterlimit:4;stroke-dasharray:1, 1;stroke-dashoffset:0;stroke-opacity:0.99479167" />
      <rect
         transform="matrix(1,0,0.12826265,0.99174023,0,0)"
         style="opacity:1;fill:#4fc3f7;fill-opacity:1;fill-rule:evenodd;stroke:none;stroke-width:1;stroke-miterlimit:4;stroke-dasharray:1, 1;stroke-dashoffset:0;stroke-opacity:0.99479167"
         id="rect4307"
         width="112.24417"
         height="63.247089"
         x="82.462669"
         y="469.9024"
         ry="1.3200989" />
      <rect
         ry="0.71428579"
         y="544.86218"
         x="167.85715"
         height="5.7142859"
         width="53.57143"
         id="rect4309"
         style="opacity:1;fill:#808080;fill-opacity:1;fill-rule:evenodd;stroke:none;stroke-width:1;stroke-miterlimit:4;stroke-dasharray:1, 1;stroke-dashoffset:0;stroke-opacity:0.99479167" />
      <rect
         style="opacity:1;fill:#689f38;fill-opacity:1;fill-rule:evenodd;stroke:none;stroke-width:1;stroke-miterlimit:4;stroke-dasharray:1, 1;stroke-dashoffset:0;stroke-opacity:0.99479167"
         id="rect4321"
         width="581.33795"
         height="22.185963"
         x="61.785717"
         y="550.93365"
         ry="0.40682417" />
      <rect
         transform="matrix(0.98297659,-0.18373084,0,1,0,0)"
         ry="3.0648999"
         y="616.57794"
         x="175.85072"
         height="167.14285"
         width="186.93207"
         id="rect4337"
         style="opacity:1;fill:#fb8c00;fill-opacity:1;fill-rule:evenodd;stroke:none;stroke-width:1;stroke-miterlimit:4;stroke-dasharray:1, 1;stroke-dashoffset:0;stroke-opacity:0.99479167" />
      <rect
         ry="0.40682417"
         y="550.93365"
         x="61.785717"
         height="22.185963"
         width="295.96988"
         id="rect4315"
         style="opacity:1;fill:#7cb342;fill-opacity:1;fill-rule:evenodd;stroke:none;stroke-width:1;stroke-miterlimit:4;stroke-dasharray:1, 1;stroke-dashoffset:0;stroke-opacity:0.99479167" />
      <rect
         style="opacity:1;fill:#689f38;fill-opacity:1;fill-rule:evenodd;stroke:none;stroke-width:1;stroke-miterlimit:4;stroke-dasharray:1, 1;stroke-dashoffset:0;stroke-opacity:0.99479167"
         id="rect4313"
         width="116.02066"
         height="22.185963"
         x="61.785717"
         y="550.93365"
         ry="0.40682417" />
      <rect
         ry="2.5124567"
         y="500.37036"
         x="107.88825"
         height="15.319467"
         width="84.277962"
         id="rect4323"
         style="opacity:1;fill:#ffffff;fill-opacity:1;fill-rule:evenodd;stroke:none;stroke-width:1;stroke-miterlimit:4;stroke-dasharray:1, 1;stroke-dashoffset:0;stroke-opacity:0.99479167"
         transform="matrix(1,0,0.10627174,0.99433712,0,0)" />
      <text
         transform="matrix(1.122344,0,0.12597397,0.89099242,0,0)"
         sodipodi:linespacing="125%"
         id="text4325"
         y="554.72583"
         x="82.590759"
         style="font-style:normal;font-variant:normal;font-weight:normal;font-stretch:condensed;font-size:14.97104359px;line-height:125%;font-family:'Swis721 BlkCn BT';-inkscape-font-specification:'Swis721 BlkCn BT Condensed';letter-spacing:0px;word-spacing:0px;fill:#ffffff;fill-opacity:1;stroke:none;stroke-width:1px;stroke-linecap:butt;stroke-linejoin:miter;stroke-opacity:1"
         xml:space="preserve"><tspan
           y="554.72583"
           x="82.590759"
           id="tspan4327"
           sodipodi:role="line">PASSWORD</tspan></text>
      <rect
         style="opacity:1;fill:#f57c00;fill-opacity:1;fill-rule:evenodd;stroke:none;stroke-width:1;stroke-miterlimit:4;stroke-dasharray:1, 1;stroke-dashoffset:0;stroke-opacity:0.99479167"
         id="rect4339"
         width="112.09209"
         height="165.71428"
         x="65.714287"
         y="585.27887"
         ry="3.0648999" />
      <path
         sodipodi:nodetypes="ccccccccccccc"
         inkscape:connector-curvature="0"
         id="path4352"
         d="m 524.28572,412.9872 -2.90179,-0.17856 4.33036,-7.76786 c 1.26765,-1.23944 2.63494,-1.83121 4.375,0 l 2.14285,8.21429 -5.80357,-0.0893 -0.71428,2.23215 9.28571,-0.17857 -2.76786,-12.14286 c -2.06842,-1.93471 -5.14689,-2.85374 -8.03571,0.13393 l -6.16072,11.02679 5.80358,0.89285 z"
         style="fill:#666666;fill-rule:evenodd;stroke:none;stroke-width:1px;stroke-linecap:butt;stroke-linejoin:miter;stroke-opacity:1" />
      <path
         sodipodi:nodetypes="ccccc"
         inkscape:connector-curvature="0"
         id="path4350"
         d="m 522.5,412.00506 c -10.53199,16.51872 -20.23419,33.73957 -26.42857,53.92857 l 7.5,3.21429 c 13.06246,-15.22705 21.77619,-34.71887 27.5,-57.14286 z"
         style="fill:#1a1a1a;fill-rule:evenodd;stroke:none;stroke-width:1px;stroke-linecap:butt;stroke-linejoin:miter;stroke-opacity:1" />
      <rect
         style="opacity:1;fill:#333333;fill-opacity:1;fill-rule:evenodd;stroke:none;stroke-width:1;stroke-miterlimit:4;stroke-dasharray:1, 1;stroke-dashoffset:0;stroke-opacity:0.99479167"
         id="rect4354"
         width="4.9999661"
         height="337.14282"
         x="525.71429"
         y="69.505058"
         ry="1.429479" />
      <rect
         ry="1.5189639"
         y="547.7171"
         x="93.583221"
         height="3.0379279"
         width="41.657906"
         id="rect4362"
         style="opacity:1;fill:#607d8b;fill-opacity:1;fill-rule:evenodd;stroke:none;stroke-width:1;stroke-miterlimit:4;stroke-dasharray:1, 1;stroke-dashoffset:0;stroke-opacity:0.99479167" />
      <rect
         style="opacity:1;fill:#78909c;fill-opacity:1;fill-rule:evenodd;stroke:none;stroke-width:1;stroke-miterlimit:4;stroke-dasharray:1, 1;stroke-dashoffset:0;stroke-opacity:0.99479167"
         id="rect4364"
         width="29.871767"
         height="3.0379279"
         x="105.36935"
         y="547.7171"
         ry="1.5189639" />
      <rect
         style="opacity:1;fill:#f9a825;fill-opacity:1;fill-rule:evenodd;stroke:none;stroke-width:1;stroke-miterlimit:4;stroke-dasharray:1, 1;stroke-dashoffset:0;stroke-opacity:0.99479167"
         id="rect4360"
         width="29.871767"
         height="31.085047"
         x="-232.93539"
         y="528.19397"
         ry="1.8989727"
         transform="matrix(-1,0,-0.19611613,0.98058068,0,0)" />
      <rect
         transform="matrix(1,0,0.19611613,0.98058068,0,0)"
         ry="1.8989727"
         y="528.19397"
         x="-4.1110559"
         height="31.085047"
         width="29.871767"
         id="rect4356"
         style="opacity:1;fill:#ffeb3b;fill-opacity:1;fill-rule:evenodd;stroke:none;stroke-width:1;stroke-miterlimit:4;stroke-dasharray:1, 1;stroke-dashoffset:0;stroke-opacity:0.99479167" />
      <text
         transform="matrix(0.96164462,0,0.22048546,1.0398852,0,0)"
         sodipodi:linespacing="125%"
         id="text4366"
         y="520.26404"
         x="-5.8497801"
         style="font-style:normal;font-variant:normal;font-weight:bold;font-stretch:normal;font-size:21.15880013px;line-height:125%;font-family:'News706 BT';-inkscape-font-specification:'News706 BT Bold';letter-spacing:0px;word-spacing:0px;fill:#ffa000;fill-opacity:1;stroke:none;stroke-width:1px;stroke-linecap:butt;stroke-linejoin:miter;stroke-opacity:1"
         xml:space="preserve"><tspan
           y="520.26404"
           x="-5.8497801"
           id="tspan4368"
           sodipodi:role="line">01</tspan></text>
      <path
         transform="matrix(0.98297659,-0.18373084,0,1,0,0)"
         sodipodi:nodetypes="ccsscc"
         inkscape:connector-curvature="0"
         id="rect4370"
         d="m 362.70421,639.75702 c 18.40237,40.04364 4.68111,100.95964 0.0786,140.89887 0,1.69796 -1.36694,3.0649 -3.0649,3.0649 l -180.80227,0 c -1.69795,0 -4.67086,-2.73464 -3.0649,-3.0649 115.62723,-8.04944 166.7572,-62.24014 186.85349,-140.89887 z"
         style="opacity:1;fill:#f57c00;fill-opacity:0.37430169;fill-rule:evenodd;stroke:none;stroke-width:1;stroke-miterlimit:4;stroke-dasharray:1, 1;stroke-dashoffset:0;stroke-opacity:0.99479167" />
    </g>
  </g>
</svg>
