<svg width="34" height="34" viewBox="0 0 34 34" fill="none" xmlns="http://www.w3.org/2000/svg">
<path d="M16.8717 2.00854C9.27488 2.00854 9.74921 5.3162 9.74921 5.3162L9.75765 8.74302H17.0071V9.77185H6.87827C6.87827 9.77185 2.01709 9.21832 2.01709 16.9142C2.01709 24.6103 6.26005 24.3374 6.26005 24.3374H8.79223V20.7661C8.79223 20.7661 8.65572 16.5061 12.9675 16.5061H20.1576C20.1576 16.5061 24.1973 16.5716 24.1973 12.5862V5.99655C24.1973 5.99655 24.8108 2.00854 16.8717 2.00854ZM12.8743 4.31302C13.0456 4.31286 13.2153 4.34663 13.3736 4.41238C13.5319 4.47812 13.6757 4.57457 13.7968 4.69619C13.918 4.81781 14.014 4.96222 14.0795 5.12116C14.145 5.28009 14.1786 5.45043 14.1785 5.62243C14.1786 5.79443 14.145 5.96477 14.0795 6.1237C14.014 6.28264 13.918 6.42705 13.7968 6.54867C13.6757 6.67029 13.5319 6.76674 13.3736 6.83249C13.2153 6.89824 13.0456 6.932 12.8743 6.93184C12.703 6.932 12.5333 6.89824 12.375 6.83249C12.2167 6.76674 12.0729 6.67029 11.9518 6.54867C11.8306 6.42705 11.7346 6.28264 11.6691 6.1237C11.6036 5.96477 11.57 5.79443 11.5701 5.62243C11.57 5.45043 11.6036 5.28009 11.6691 5.12116C11.7346 4.96222 11.8306 4.81781 11.9518 4.69619C12.0729 4.57457 12.2167 4.47812 12.375 4.41238C12.5333 4.34663 12.703 4.31286 12.8743 4.31302Z" fill="url(#paint0_linear)"/>
<path d="M17.0872 31.8974C24.684 31.8974 24.2097 28.5897 24.2097 28.5897L24.2012 25.163H16.9517V24.1342H27.0805C27.0805 24.1342 31.9417 24.6877 31.9417 16.9916C31.9417 9.29558 27.6987 9.56852 27.6987 9.56852H25.1665V13.1397C25.1665 13.1397 25.3031 17.3997 20.9913 17.3997H13.8011C13.8011 17.3997 9.76148 17.3342 9.76148 21.3197V27.9095C9.76148 27.9095 9.14806 31.8974 17.0871 31.8974H17.0872ZM21.0846 29.5931C20.9133 29.5933 20.7436 29.5595 20.5853 29.4938C20.427 29.428 20.2832 29.3316 20.1621 29.21C20.0409 29.0883 19.9449 28.9439 19.8794 28.785C19.8139 28.626 19.7803 28.4557 19.7804 28.2837C19.7802 28.1117 19.8139 27.9413 19.8793 27.7824C19.9448 27.6235 20.0409 27.479 20.162 27.3574C20.2831 27.2358 20.427 27.1393 20.5853 27.0736C20.7436 27.0078 20.9133 26.974 21.0846 26.9742C21.2559 26.974 21.4256 27.0078 21.5839 27.0735C21.7422 27.1393 21.886 27.2357 22.0071 27.3574C22.1283 27.479 22.2243 27.6234 22.2898 27.7823C22.3553 27.9413 22.3889 28.1116 22.3888 28.2836C22.3889 28.4556 22.3553 28.6259 22.2898 28.7849C22.2243 28.9438 22.1283 29.0882 22.0071 29.2098C21.886 29.3315 21.7422 29.4279 21.5839 29.4936C21.4256 29.5594 21.2559 29.5932 21.0846 29.593V29.5931Z" fill="url(#paint1_linear)"/>
<defs>
<linearGradient id="paint0_linear" x1="4.89285" y1="4.69686" x2="19.7815" y2="19.378" gradientUnits="userSpaceOnUse">
<stop stop-color="#387EB8"/>
<stop offset="1" stop-color="#366994"/>
</linearGradient>
<linearGradient id="paint1_linear" x1="13.9952" y1="14.1626" x2="29.981" y2="29.214" gradientUnits="userSpaceOnUse">
<stop stop-color="#FFE052"/>
<stop offset="1" stop-color="#FFC331"/>
</linearGradient>
</defs>
</svg>
