<?xml version="1.0" standalone="no"?>
<!DOCTYPE svg PUBLIC "-//W3C//DTD SVG 20010904//EN"
 "http://www.w3.org/TR/2001/REC-SVG-20010904/DTD/svg10.dtd">
<svg version="1.0" xmlns="http://www.w3.org/2000/svg"
 width="6000.000000pt" height="4500.000000pt" viewBox="0 0 6000.000000 4500.000000"
 preserveAspectRatio="xMidYMid meet">

<g transform="translate(0.000000,4500.000000) scale(0.100000,-0.100000)"
fill="#000000" stroke="none">
<path d="M0 22500 l0 -22500 30000 0 30000 0 0 22500 0 22500 -30000 0 -30000
0 0 -22500z m19391 18609 c-275 -648 -499 -1421 -573 -1974 -29 -213 -31 -564
-5 -704 10 -52 16 -95 14 -97 -6 -7 -156 449 -187 569 -42 164 -54 323 -40
507 42 544 246 1065 599 1534 100 132 231 289 237 283 2 -2 -18 -55 -45 -118z
m-1407 -1901 c-115 -402 -95 -778 61 -1159 93 -227 189 -396 485 -854 331
-513 463 -738 616 -1049 46 -93 85 -170 87 -173 2 -2 58 -19 123 -38 664 -191
1147 -557 1290 -978 39 -115 47 -179 39 -332 l-8 -140 -17 65 c-10 36 -27 90
-38 120 -16 43 -18 58 -9 69 10 12 9 13 -3 6 -12 -7 -13 -6 -3 7 7 8 10 18 6
21 -9 10 -10 86 0 80 4 -2 7 0 7 6 0 5 -4 12 -9 16 -6 3 -8 15 -6 27 5 26 -54
140 -116 225 -57 79 -207 225 -304 298 -98 74 -284 186 -385 232 -163 75 -494
192 -507 179 -3 -2 24 -80 60 -173 136 -353 187 -599 187 -908 0 -239 -28
-398 -105 -600 -88 -228 -263 -465 -465 -628 -91 -74 -245 -175 -322 -213 -55
-27 -56 -28 -51 -62 l6 -35 -21 21 c-26 26 -41 27 -89 7 -27 -11 -77 -15 -207
-15 l-171 0 51 28 c84 47 204 144 304 248 186 192 292 395 352 667 20 90 23
131 23 347 0 388 -19 449 -279 914 -62 111 -150 273 -196 361 -45 88 -87 164
-91 170 -12 13 -389 -10 -561 -35 -645 -91 -1187 -324 -1516 -649 -175 -173
-281 -367 -316 -575 l-14 -81 -1 85 c-4 420 367 841 970 1098 354 152 795 248
1231 268 l147 7 -28 56 c-84 165 -260 553 -308 674 -298 766 -292 1600 19
2290 38 84 106 217 112 217 2 0 -12 -51 -30 -112z m12251 -756 c55 -20 3953
-2266 3972 -2289 6 -8 14 -14 17 -14 19 2 27 -1 55 -25 17 -14 31 -23 31 -20
0 4 9 2 20 -4 11 -6 17 -16 14 -22 -4 -7 -2 -8 5 -4 6 4 18 2 26 -4 16 -13 21
-35 6 -25 -5 3 -16 -1 -24 -10 -13 -12 -16 -12 -20 -1 -8 20 -41 9 -52 -17 -6
-12 -21 -24 -35 -28 -14 -4 -20 -8 -15 -8 6 -1 3 -6 -5 -11 -12 -8 -10 -10 9
-10 16 0 21 -4 18 -14 -6 -15 17 -16 30 -1 4 4 2 5 -6 0 -9 -5 -12 -4 -7 3 11
19 37 14 34 -5 -2 -10 -7 -21 -12 -25 -12 -8 -55 9 -75 30 -9 9 -24 18 -33 20
-9 1 -243 133 -518 292 -276 160 -504 290 -506 290 -2 0 -28 16 -58 35 -30 19
-57 35 -60 35 -2 0 -276 157 -608 348 -332 192 -623 360 -648 374 -65 36 -230
131 -1033 595 -395 228 -738 421 -761 429 -24 8 -71 18 -105 22 l-62 7 108 37
c126 43 215 49 298 20z m-1230 -2217 l7 -40 -16 29 c-9 15 -16 38 -16 49 0 34
18 7 25 -38z m-47 -152 c-2 -29 -7 -52 -13 -51 -5 2 -9 7 -7 11 1 5 -3 5 -9 1
-9 -5 -10 -2 -6 10 4 9 3 15 -2 11 -5 -3 -11 0 -13 7 -3 7 -7 2 -10 -10 -4
-12 -2 -20 3 -16 5 3 9 -5 9 -18 0 -32 15 -52 33 -45 9 3 18 -1 21 -9 3 -8 -1
-14 -10 -14 -13 0 -15 -6 -10 -27 4 -16 10 -41 13 -58 3 -16 12 -34 19 -38 8
-4 14 -22 14 -40 0 -41 11 -56 36 -55 14 2 20 7 17 19 -3 9 2 19 10 22 12 4
14 0 11 -21 -3 -14 -9 -31 -15 -38 -5 -6 -6 -14 -2 -17 3 -4 2 -7 -3 -7 -5 0
-10 -12 -10 -28 -1 -15 -7 -40 -14 -57 -7 -16 -12 -36 -11 -42 1 -7 -2 -13 -6
-13 -5 0 -9 -8 -9 -17 0 -13 -1150 -3756 -1537 -5005 -7 -21 -16 -38 -20 -38
-5 0 -6 -4 -3 -9 8 -12 -25 -121 -36 -121 -5 0 -6 -4 -3 -10 3 -5 1 -10 -5
-10 -6 0 -8 -10 -4 -24 3 -15 0 -29 -11 -39 -9 -9 -14 -21 -10 -27 8 -13 -13
-50 -28 -47 -7 1 -11 -4 -10 -10 2 -7 -5 -13 -15 -13 -13 0 -14 -2 -4 -9 10
-6 10 -10 -2 -20 -16 -14 -25 -5 -21 22 2 12 -3 17 -18 17 -20 0 -20 1 -4 17
15 15 18 15 29 2 7 -8 12 -12 11 -10 -2 2 11 14 28 27 19 14 26 25 19 29 -13
8 -25 -1 -25 -17 0 -6 -8 -12 -17 -14 -10 -1 -18 2 -18 7 0 15 -36 10 -50 -6
-7 -8 -19 -15 -26 -15 -8 0 -14 -4 -14 -10 0 -5 -7 -10 -15 -10 -8 0 -15 -6
-15 -14 0 -7 -7 -19 -16 -27 -13 -10 -19 -10 -37 0 -18 11 -20 11 -9 0 14 -16
17 -83 2 -74 -5 3 -10 1 -10 -4 0 -6 4 -11 10 -11 5 0 7 -7 4 -15 -7 -17 -34
-21 -34 -5 0 5 -9 2 -20 -7 -11 -9 -16 -20 -11 -23 5 -3 -1 -18 -13 -33 -15
-19 -23 -23 -23 -13 0 9 4 16 10 16 5 0 7 6 4 13 -2 6 2 24 9 38 7 15 10 30 6
34 -4 5 1 5 11 2 9 -4 17 -2 17 3 0 6 -6 10 -12 11 -10 0 -10 2 0 6 6 2 9 9 6
15 -6 10 24 128 36 138 3 3 6 14 7 25 2 19 1696 5525 1710 5555 3 8 8 24 10
34 9 46 67 221 74 224 4 2 6 11 3 20 -2 9 1 7 7 -5 13 -25 24 -29 35 -11 4 7
3 8 -4 4 -20 -12 -35 42 -20 75 l12 28 14 -32 c7 -17 12 -55 10 -84z m102 12
c0 -14 -4 -25 -10 -25 -5 0 -10 11 -10 25 0 14 5 25 10 25 6 0 10 -11 10 -25z
m-75 -45 c3 -5 1 -10 -4 -10 -6 0 -11 5 -11 10 0 6 2 10 4 10 3 0 8 -4 11 -10z
m99 -6 c12 -32 7 -84 -9 -84 -11 0 -15 12 -15 50 0 49 12 66 24 34z m5243 -26
c-3 -8 -6 -5 -6 6 -1 11 2 17 5 13 3 -3 4 -12 1 -19z m79 -48 c9 0 13 -4 9
-10 -9 -14 -35 0 -34 19 0 10 2 11 6 4 2 -7 11 -13 19 -13z m-5392 -7 c4 -9 2
-21 -4 -27 -7 -7 -10 -7 -10 1 0 6 -3 18 -6 27 -3 9 -2 16 4 16 5 0 13 -8 16
-17z m94 -58 c-3 -3 -9 2 -12 12 -6 14 -5 15 5 6 7 -7 10 -15 7 -18z m-20 -26
c-3 -8 -7 -3 -11 10 -4 17 -3 21 5 13 5 -5 8 -16 6 -23z m-38 -3 c-1 -5 4 -13
12 -17 9 -6 10 -9 1 -9 -7 0 -10 -7 -7 -15 4 -8 9 -13 13 -10 4 2 8 -2 8 -10
0 -16 -54 -38 -62 -25 -3 5 3 15 12 22 19 14 24 58 8 71 -6 5 -5 7 3 5 8 -2
13 -7 12 -12z m-13212 -373 c-14 -16 -32 -72 -28 -89 1 -4 -9 -12 -22 -18 -13
-6 -25 -23 -26 -36 -2 -14 -12 -32 -21 -41 -10 -9 -23 -31 -31 -48 -7 -17 -17
-31 -22 -31 -6 0 -7 -12 -4 -27 4 -18 3 -23 -2 -14 -7 10 -11 10 -17 1 -4 -7
-2 -16 6 -21 7 -4 10 -11 6 -16 -5 -4 -13 -1 -18 7 -9 13 -11 13 -16 1 -3 -7
-14 -22 -24 -32 -11 -11 -19 -28 -19 -39 0 -12 -7 -20 -18 -20 -9 0 -23 -9
-30 -21 -7 -11 -19 -18 -26 -16 -9 4 -11 -2 -8 -20 3 -16 1 -24 -5 -20 -6 4
-23 -5 -37 -18 -25 -23 -46 -32 -46 -20 0 21 72 156 127 239 61 91 280 332
292 320 2 -2 -3 -12 -11 -21z m-401 -580 c0 -16 -2 -22 -4 -15 -3 6 -10 9 -16
5 -8 -5 -8 -2 0 9 7 8 10 18 6 21 -3 4 -2 7 4 7 6 0 10 -12 10 -27z m16138
-81 c28 -10 2183 -1250 4790 -2756 3399 -1963 4752 -2749 4783 -2779 80 -78
130 -215 119 -327 -4 -52 -2126 -6965 -2165 -7055 -34 -80 -109 -142 -192
-160 l-34 -8 32 37 c17 20 38 49 46 64 8 16 499 1601 1092 3523 l1078 3494 0
95 c0 72 -5 107 -21 146 -26 66 -75 137 -116 168 -39 29 -9466 5472 -9522
5497 -22 10 -55 19 -74 19 -29 0 -32 2 -21 15 14 17 92 43 130 44 14 0 48 -8
75 -17z m-16149 -472 c89 -249 269 -480 534 -685 55 -42 285 -195 294 -195 2
0 32 -16 66 -35 85 -48 302 -144 436 -193 334 -122 774 -212 1185 -243 207
-15 726 -7 914 16 601 71 1111 230 1525 475 470 278 741 626 805 1032 l13 83
1 -85 c4 -390 -281 -806 -761 -1109 -257 -162 -592 -301 -943 -391 -1131 -292
-2451 -140 -3321 381 -66 40 -122 73 -126 75 -4 3 -7 -125 -8 -282 0 -158 -3
-291 -7 -297 -3 -6 -1 -7 5 -3 7 4 12 2 12 -3 0 -23 -30 -8 -135 71 -284 211
-494 497 -565 764 -39 147 -43 248 -19 465 11 107 23 250 26 319 l6 125 18
-105 c10 -58 30 -139 45 -180z m372 -1607 c107 -93 224 -180 345 -256 83 -52
92 -61 89 -85 -2 -15 0 -23 5 -19 4 5 8 13 8 18 0 5 4 8 9 7 5 -2 10 -17 10
-35 1 -17 -2 -29 -6 -27 -14 9 -19 -17 -9 -51 5 -21 6 -35 0 -35 -5 0 -9 -36
-9 -80 0 -44 4 -80 9 -80 13 0 2 -67 -18 -110 -9 -19 -16 -56 -15 -83 0 -26
-3 -43 -6 -36 -4 6 -10 -2 -13 -18 -3 -15 -11 -41 -18 -58 -7 -16 -11 -34 -10
-39 1 -5 -5 -16 -13 -25 -8 -9 -24 -40 -36 -70 -45 -116 -234 -346 -337 -411
-26 -17 -41 -30 -33 -30 17 0 5 -13 -15 -16 -8 -1 -15 4 -15 12 0 8 -34 406
-75 885 -41 479 -75 873 -75 875 0 2 32 -32 71 -76 39 -45 110 -115 157 -157z
m489 -465 c-2 -13 -4 -3 -4 22 0 25 2 35 4 23 2 -13 2 -33 0 -45z m3 -138 c0
-22 -4 -40 -10 -40 -5 0 -10 18 -10 40 0 22 5 40 10 40 6 0 10 -18 10 -40z
m15763 -181 c106 -61 203 -120 215 -132 50 -46 66 -116 40 -172 -12 -28 -55
-55 -84 -55 -18 0 -366 195 -423 238 -57 42 -77 122 -46 182 8 16 23 34 32 39
40 23 76 10 266 -100z m1647 -405 c168 -96 313 -183 324 -192 44 -39 58 -120
31 -172 -18 -35 -43 -50 -82 -50 -18 1 -144 68 -343 184 -278 161 -318 187
-337 222 -36 62 -24 145 24 173 45 26 77 13 383 -165z m-921 -560 c311 -180
578 -338 594 -352 58 -54 61 -150 6 -196 -35 -30 -58 -32 -100 -10 -77 39
-1126 648 -1143 663 -51 44 -61 142 -20 190 50 59 42 63 663 -295z m-17041
171 c-3 -3 -9 2 -12 12 -6 14 -5 15 5 6 7 -7 10 -15 7 -18z m19221 -337 c278
-161 462 -274 474 -290 12 -16 22 -49 25 -80 3 -44 0 -58 -18 -81 -29 -37 -62
-49 -97 -36 -54 20 -886 505 -914 532 -38 37 -54 97 -39 142 14 42 53 75 89
75 16 0 201 -101 480 -262z m-2860 7 c152 -78 1703 -983 1723 -1005 69 -74 36
-210 -51 -210 -28 0 -1738 981 -1778 1020 -70 68 -41 210 43 210 19 0 48 -7
63 -15z m24 -556 c106 -61 203 -121 215 -132 50 -46 66 -116 40 -172 -12 -28
-55 -55 -85 -55 -18 0 -365 195 -422 238 -57 42 -77 122 -46 182 18 35 41 49
78 50 17 0 98 -41 220 -111z m5882 -65 c236 -136 257 -150 275 -195 21 -50
-14 -119 -60 -119 -12 0 -125 60 -253 134 -243 141 -267 161 -267 224 0 37 37
82 67 82 10 0 117 -57 238 -126z m-1035 -549 c812 -468 1070 -622 1088 -646
25 -36 30 -110 11 -153 -16 -35 -63 -53 -101 -38 -16 6 -506 286 -1089 623
-986 569 -1061 614 -1079 650 -11 21 -20 54 -20 74 0 39 22 90 42 98 56 23 60
20 1148 -608z m-9669 409 c-10 -31 -11 -31 -15 3 -1 12 1 20 6 17 4 -3 8 0 8
7 0 7 2 10 5 8 2 -3 0 -18 -4 -35z m-71 -69 c-7 -8 -16 -15 -21 -15 -5 0 -9 7
-9 15 0 9 9 15 21 15 18 0 19 -2 9 -15z m5955 -339 c275 -159 508 -295 517
-303 29 -25 51 -98 44 -139 -10 -49 -46 -84 -87 -84 -24 0 -156 71 -513 277
-265 152 -496 287 -514 301 -67 49 -90 127 -57 192 19 37 43 51 80 47 17 -1
244 -126 530 -291z m-6065 264 c0 -5 -7 -10 -15 -10 -8 0 -15 5 -15 10 0 6 7
10 15 10 8 0 15 -4 15 -10z m5144 -281 c572 -330 550 -316 572 -353 28 -47 25
-128 -5 -160 -50 -53 -52 -52 -604 267 -363 210 -514 302 -528 323 -13 20 -19
47 -19 87 0 48 4 62 25 82 47 48 54 45 559 -246z m-5204 231 c0 -5 -4 -10 -10
-10 -5 0 -10 5 -10 10 0 6 5 10 10 10 6 0 10 -4 10 -10z m11775 -146 c246
-142 265 -158 265 -222 0 -37 -35 -82 -63 -82 -24 0 -446 238 -484 273 -34 30
-48 81 -33 118 14 32 35 48 62 49 10 0 124 -61 253 -136z m-20672 -54 c52 -46
80 -119 81 -215 1 -105 -27 -167 -93 -202 -73 -38 -186 -27 -245 25 -80 71
-70 236 21 342 52 61 88 80 150 80 44 0 58 -5 86 -30z m-648 -51 c53 -25 119
-94 146 -152 25 -57 25 -151 0 -193 -45 -74 -147 -117 -228 -95 -95 26 -144
101 -151 232 -4 73 -1 93 19 138 38 89 118 115 214 70z m14273 -250 c160 -92
183 -115 190 -194 4 -47 1 -56 -24 -83 -49 -53 -64 -51 -214 34 -74 42 -147
88 -163 102 -34 32 -52 88 -43 135 8 41 55 87 89 87 13 0 87 -37 165 -81z
m-13039 7 c115 -60 51 -332 -94 -397 -168 -77 -345 100 -265 265 58 121 247
190 359 132z m20885 -113 c122 -69 229 -133 240 -142 10 -9 25 -31 33 -49 24
-57 -9 -122 -62 -122 -10 0 -121 60 -248 133 -243 139 -267 160 -267 225 0 36
37 82 66 82 10 0 117 -57 238 -127z m-5389 -221 c216 -125 235 -143 235 -227
0 -72 -26 -105 -82 -105 -33 0 -75 20 -235 112 -223 128 -237 142 -238 231 0
53 3 61 29 84 45 39 79 28 291 -95z m-1728 -93 c164 -95 309 -181 321 -193 36
-32 52 -70 52 -121 0 -38 -5 -52 -29 -76 -20 -19 -40 -29 -59 -29 -35 0 -606
324 -660 374 -83 78 -55 216 45 216 23 0 114 -47 330 -171z m-14493 71 c148
-38 265 -121 316 -225 22 -43 25 -64 25 -151 0 -95 -2 -104 -37 -175 -47 -95
-112 -160 -207 -207 -73 -36 -77 -37 -190 -37 -135 1 -197 20 -281 86 -186
147 -225 424 -87 611 78 106 271 147 461 98z m15609 -716 c300 -173 456 -269
470 -288 27 -38 34 -114 14 -153 -19 -37 -66 -58 -100 -47 -14 5 -224 124
-467 264 -492 284 -490 282 -490 378 0 46 4 58 30 84 25 25 37 30 63 25 18 -3
234 -121 480 -263z m-2108 124 c77 -44 155 -92 174 -106 96 -71 73 -232 -34
-232 -29 0 -324 167 -368 208 -60 57 -57 164 6 203 21 12 41 17 57 13 14 -3
88 -42 165 -86z m917 -530 c242 -141 409 -244 421 -260 12 -16 22 -49 25 -81
4 -46 1 -57 -23 -85 -49 -58 -62 -53 -414 150 -490 282 -496 285 -520 328 -12
22 -21 55 -21 80 0 35 6 48 35 77 30 30 40 34 65 29 16 -3 211 -110 432 -238z
m-908 -22 c175 -102 308 -185 319 -201 25 -34 33 -106 17 -145 -13 -31 -54
-60 -86 -60 -25 0 -605 336 -631 366 -32 36 -47 97 -33 139 14 42 53 75 89 75
15 -1 151 -73 325 -174z m-404 -315 c278 -160 517 -304 531 -320 74 -80 24
-230 -68 -206 -24 6 -985 555 -1045 597 -36 25 -62 96 -54 144 4 20 19 48 32
61 21 21 32 24 62 20 24 -3 217 -109 542 -296z m2576 -393 c351 -203 513 -302
530 -323 34 -45 41 -111 15 -153 -28 -43 -63 -59 -101 -45 -37 14 -964 548
-1008 580 -67 50 -84 145 -36 202 49 58 46 59 600 -261z m-17351 54 c37 -35
65 -65 64 -67 -4 -3 -1552 -899 -1674 -968 -167 -94 -203 -132 -212 -223 -10
-97 36 -171 144 -230 21 -12 675 -390 1453 -840 778 -450 1456 -835 1505 -857
119 -52 284 -93 428 -106 214 -20 466 20 662 106 106 47 2997 1713 3038 1752
102 94 87 249 -31 328 -26 17 -384 226 -797 463 -412 238 -780 450 -818 472
l-67 39 47 36 c27 19 62 48 78 63 l30 27 825 -477 c843 -487 893 -519 935
-601 9 -17 12 -28 6 -25 -6 4 -11 2 -12 -3 -4 -38 -2 -58 6 -70 6 -11 4 -13
-8 -8 -9 3 -19 2 -22 -4 -4 -5 -1 -8 7 -7 10 2 13 -19 13 -94 0 -53 3 -94 8
-91 4 2 7 -7 7 -21 0 -14 -4 -26 -9 -26 -10 0 -9 -25 2 -36 8 -9 -49 -91 -72
-103 -10 -6 -22 -7 -26 -3 -5 4 -5 2 -1 -5 4 -8 -8 -22 -31 -37 -118 -76
-2905 -1677 -2988 -1717 -120 -57 -224 -92 -359 -121 -86 -19 -132 -22 -306
-22 -174 0 -220 3 -306 22 -138 30 -241 65 -359 121 -55 26 -666 375 -1357
774 -692 399 -1277 737 -1300 750 -24 13 -61 34 -83 46 -22 13 -60 35 -85 50
-25 16 -76 45 -115 66 -94 52 -176 136 -206 211 -32 83 -32 224 0 306 45 114
85 146 464 363 188 107 590 339 892 514 303 176 553 318 556 318 4 -1 37 -30
74 -65z m18473 -703 c206 -119 237 -140 257 -179 24 -47 19 -113 -11 -149 -44
-53 -70 -46 -287 80 -106 61 -200 118 -209 126 -10 9 -25 35 -34 60 -14 36
-15 50 -5 83 13 44 52 80 88 80 13 0 104 -46 201 -101z m-12838 -434 c7 -9 10
-18 7 -22 -4 -3 -2 -14 4 -25 10 -19 10 -19 -15 -3 -20 14 -24 21 -16 35 7 13
6 20 -3 23 -7 4 -8 6 -1 6 6 1 17 -6 24 -14z m1 -147 c1 -51 3 -103 4 -115 1
-12 -2 -20 -7 -17 -4 3 -6 9 -3 14 3 5 1 11 -5 15 -13 8 -13 195 0 195 6 0 11
-38 11 -92z m24 -3 c0 -24 -2 -42 -5 -39 -3 3 -5 26 -6 50 0 24 2 42 4 39 3
-3 6 -25 7 -50z m1794 -171 c4 3 13 0 21 -5 11 -7 8 -8 -12 -5 -14 2 -29 1
-33 -2 -4 -4 -10 -7 -13 -7 -4 -1 -17 -7 -29 -15 -17 -11 -19 -17 -11 -28 6
-7 7 -12 2 -10 -17 5 -74 -12 -74 -22 0 -5 4 -10 9 -10 11 0 2 -42 -10 -50 -5
-3 -16 -111 -24 -240 -8 -129 -19 -237 -24 -240 -10 -6 -18 -44 -38 -195 -9
-66 -20 -121 -25 -123 -4 -2 -8 -21 -8 -43 0 -21 -4 -39 -9 -39 -10 0 -20 -41
-28 -112 -4 -40 -2 -48 11 -48 9 0 16 -7 16 -16 0 -11 -6 -14 -21 -9 -26 9
-39 -8 -39 -53 0 -20 -6 -35 -15 -38 -9 -4 -15 -19 -15 -41 0 -19 -5 -44 -11
-56 -9 -16 -9 -22 0 -25 6 -2 11 -10 11 -18 0 -8 -6 -11 -16 -7 -21 8 -34 -13
-34 -55 0 -20 -6 -35 -15 -38 -8 -4 -15 -16 -15 -28 0 -24 -24 -95 -45 -137
-8 -15 -15 -37 -15 -49 0 -11 -4 -20 -8 -20 -5 0 -15 -19 -22 -42 -8 -24 -20
-50 -27 -59 -7 -8 -13 -25 -13 -38 0 -12 -6 -24 -14 -27 -21 -8 -28 -47 -17
-95 5 -23 7 -49 3 -58 -5 -12 -8 -8 -12 13 -7 39 -28 44 -36 9 -3 -15 -14 -34
-22 -41 -17 -13 -20 -58 -8 -106 l7 -30 -20 25 c-18 20 -22 22 -31 9 -5 -8
-10 -23 -10 -32 0 -10 -7 -18 -15 -18 -8 0 -16 -7 -16 -15 -1 -8 -3 -18 -4
-22 -2 -5 -6 -18 -10 -30 -4 -13 -11 -23 -15 -23 -4 0 -11 -12 -15 -27 -4 -16
-14 -36 -23 -45 -33 -34 -42 -47 -42 -67 0 -11 -11 -28 -25 -39 -14 -11 -25
-25 -25 -31 0 -7 -10 -25 -21 -41 -17 -22 -20 -36 -15 -64 4 -23 3 -36 -4 -36
-5 0 -10 7 -10 15 0 31 -26 13 -59 -40 -19 -30 -39 -55 -43 -55 -4 0 -8 -8 -8
-19 0 -10 -11 -30 -25 -45 -14 -15 -25 -31 -25 -37 0 -5 -7 -12 -15 -15 -8 -4
-15 -12 -15 -19 0 -7 -21 -35 -48 -61 -50 -52 -84 -97 -95 -127 -4 -10 -11
-16 -17 -12 -5 3 -20 -10 -32 -29 -13 -20 -29 -36 -35 -36 -7 0 -13 -7 -13
-15 0 -8 -4 -15 -10 -15 -5 0 -10 -9 -10 -20 0 -11 4 -20 9 -20 5 0 11 -11 13
-25 3 -13 1 -22 -3 -19 -5 3 -9 12 -9 20 0 28 -42 13 -81 -28 -21 -23 -39 -48
-39 -56 0 -7 -13 -18 -29 -23 -15 -5 -34 -21 -42 -35 -7 -14 -26 -33 -41 -42
-15 -9 -32 -29 -37 -44 -6 -15 -16 -28 -24 -28 -8 0 -30 -15 -49 -34 -19 -18
-44 -39 -56 -45 -12 -6 -22 -21 -22 -31 0 -15 -7 -20 -25 -20 -16 0 -25 -6
-25 -15 0 -8 -6 -15 -14 -15 -8 0 -17 -9 -21 -19 -3 -11 -15 -23 -26 -26 -10
-4 -19 -13 -19 -20 0 -17 -31 -35 -59 -35 -12 0 -21 -7 -21 -15 0 -8 -6 -15
-14 -15 -7 0 -16 -9 -19 -21 -3 -11 -15 -23 -26 -26 -12 -3 -21 -12 -21 -19 0
-8 -9 -14 -20 -14 -11 0 -20 -5 -20 -11 0 -5 -13 -15 -30 -20 -36 -13 -38 -22
-7 -38 19 -10 14 -11 -30 -8 -37 3 -53 0 -53 -8 0 -7 -13 -18 -30 -25 -28 -11
-55 -31 -90 -63 -8 -8 -25 -18 -37 -21 -28 -9 -29 -23 -3 -31 36 -11 12 -23
-31 -15 -34 6 -45 4 -60 -11 -10 -10 -29 -21 -43 -25 -13 -3 -26 -14 -29 -23
-3 -12 -18 -21 -41 -25 -20 -4 -36 -10 -36 -14 0 -8 -21 -19 -82 -47 -20 -9
-39 -23 -42 -31 -3 -8 -16 -14 -28 -14 -13 0 -31 -9 -41 -20 -9 -11 -28 -20
-42 -20 -14 0 -33 -9 -42 -20 -10 -11 -27 -20 -38 -20 -11 0 -28 -9 -38 -20
-9 -11 -28 -20 -42 -20 -13 0 -33 -10 -44 -21 -12 -13 -26 -19 -36 -15 -9 3
-43 -8 -75 -24 -33 -17 -69 -30 -81 -30 -13 0 -31 -7 -40 -16 -10 -9 -30 -18
-43 -19 -14 -2 -31 -7 -38 -11 -20 -13 -81 -34 -100 -34 -9 0 -33 -9 -52 -21
-20 -11 -41 -19 -48 -16 -7 2 -24 -1 -38 -8 -34 -17 -93 -35 -113 -35 -9 0
-17 -6 -17 -14 0 -10 -22 -16 -80 -21 -44 -4 -80 -11 -80 -15 0 -4 -19 -10
-42 -14 -85 -10 -118 -18 -118 -27 0 -5 -18 -9 -40 -9 -22 0 -40 -4 -40 -8 0
-10 -263 -42 -342 -42 -41 0 -58 -4 -58 -13 0 -17 -336 -37 -620 -37 -220 0
-491 16 -500 29 -3 4 -94 18 -202 31 -109 13 -198 28 -198 32 0 4 -18 8 -39 8
-22 0 -41 3 -43 8 -1 4 -38 14 -80 23 -75 16 -78 15 -78 -2 0 -11 -7 -19 -16
-19 -11 0 -13 6 -9 19 5 16 -1 22 -32 30 -21 6 -53 11 -70 11 -21 0 -33 5 -33
14 0 8 -17 16 -46 20 -25 3 -60 12 -77 19 -62 26 -102 39 -121 39 -10 -1 -28
6 -40 14 -11 7 -27 14 -36 14 -8 0 -28 7 -44 15 -15 8 -34 15 -41 15 -7 0 -24
9 -38 20 -14 11 -35 20 -47 20 -12 0 -31 5 -43 11 -16 9 -22 9 -25 0 -2 -6
-11 -11 -19 -11 -9 0 -13 6 -10 14 8 20 -13 36 -48 36 -19 0 -37 8 -48 21 -10
11 -25 18 -33 15 -9 -3 -12 -1 -9 4 3 6 -2 10 -12 10 -10 0 -27 7 -37 15 -11
8 -28 15 -38 15 -10 0 -21 7 -24 15 -4 8 -15 15 -26 15 -24 0 -59 18 -75 39
-11 14 -14 14 -22 2 -5 -8 -7 -20 -4 -28 3 -7 -2 -13 -11 -13 -9 0 -16 5 -16
10 0 6 -5 10 -11 10 -5 0 -7 -5 -4 -10 4 -6 -3 -9 -17 -6 -13 2 -32 -4 -43
-13 -11 -9 -6 0 10 20 17 20 55 52 85 71 30 20 1644 953 3585 2073 1942 1120
3561 2055 3598 2078 38 22 75 40 82 40 8 0 12 4 10 8 -5 7 49 33 61 29 4 -1
11 5 16 14 5 9 13 14 19 11 5 -4 9 -1 9 5 0 6 5 8 10 5 6 -3 10 -2 10 2 0 12
56 44 63 36 4 -3 10 2 14 13 4 11 8 13 11 6 2 -7 7 -10 11 -8z m-36 -57 c3 -8
-1 -14 -8 -14 -7 0 -11 6 -8 14 3 7 6 13 8 13 2 0 5 -6 8 -13z m46 -82 c-5
-44 -12 -120 -16 -170 l-7 -90 -9 80 c-7 58 -7 80 2 83 7 2 11 32 11 83 0 46
4 79 10 79 6 0 10 4 10 10 0 5 -8 7 -17 4 -15 -5 -16 -4 -3 5 24 17 28 1 19
-84z m-59 -45 l7 35 2 -42 c1 -32 -3 -43 -14 -43 -11 0 -15 -11 -15 -40 0 -22
-4 -40 -10 -40 -5 0 -10 18 -10 39 0 22 -5 41 -12 44 -8 2 -9 8 -4 13 5 5 11
4 13 -3 10 -27 23 -11 25 30 1 41 1 42 6 7 l5 -35 7 35z m-73 -112 c-2 -13 -4
-3 -4 22 0 25 2 35 4 23 2 -13 2 -33 0 -45z m90 -220 c-2 -24 -4 -5 -4 42 0
47 2 66 4 43 2 -24 2 -62 0 -85z m-70 50 c-3 -8 -6 -5 -6 6 -1 11 2 17 5 13 3
-3 4 -12 1 -19z m-9 -103 c-3 -3 -9 2 -12 12 -6 14 -5 15 5 6 7 -7 10 -15 7
-18z m-18 -255 l7 35 2 -42 c1 -32 -3 -43 -14 -43 -11 0 -15 11 -13 43 1 41 1
42 6 7 l5 -35 7 35z m47 -32 c-2 -13 -4 -3 -4 22 0 25 2 35 4 23 2 -13 2 -33
0 -45z m-87 -8 c0 -5 -4 -10 -10 -10 -5 0 -10 5 -10 10 0 6 5 10 10 10 6 0 10
-4 10 -10z m56 -155 c-15 -98 -15 -98 -11 -25 6 99 18 183 22 150 2 -14 -3
-70 -11 -125z m-89 -7 c-3 -8 -6 -5 -6 6 -1 11 2 17 5 13 3 -3 4 -12 1 -19z
m-57 -98 c0 -5 -7 -10 -15 -10 -8 0 -15 5 -15 10 0 6 7 10 15 10 8 0 15 -4 15
-10z m11 -77 c-12 -20 -14 -14 -5 12 4 9 9 14 11 11 3 -2 0 -13 -6 -23z m84
-37 c-4 -20 -11 -36 -16 -36 -5 0 -9 -18 -9 -40 0 -22 -4 -40 -10 -40 -5 0
-10 18 -10 40 0 22 5 40 10 40 6 0 10 6 10 13 0 15 23 67 28 62 2 -1 0 -19 -3
-39z m-102 -31 c4 -8 2 -17 -3 -20 -6 -4 -10 3 -10 14 0 25 6 27 13 6z m-23
-11 c0 -8 -5 -12 -10 -9 -6 4 -8 11 -5 16 9 14 15 11 15 -7z m-40 -84 c0 -5
-7 -10 -15 -10 -8 0 -15 5 -15 10 0 6 7 10 15 10 8 0 15 -4 15 -10z m16 -66
c-3 -9 -6 -18 -6 -20 0 -3 -4 -3 -10 1 -11 7 -2 35 12 35 6 0 7 -7 4 -16z m62
-31 c14 -31 16 -53 4 -53 -7 0 -32 57 -32 73 0 16 16 5 28 -20z m-118 -63 c0
-5 -2 -10 -4 -10 -3 0 -8 5 -11 10 -3 6 -1 10 4 10 6 0 11 -4 11 -10z m100
-45 c0 -14 -4 -25 -10 -25 -5 0 -10 11 -10 25 0 14 5 25 10 25 6 0 10 -11 10
-25z m-128 -107 c-9 -9 -12 -7 -12 12 0 19 3 21 12 12 9 -9 9 -15 0 -24z m78
-38 c0 -28 -4 -40 -14 -40 -9 0 -19 -17 -25 -42 l-10 -43 5 40 c3 22 7 59 10
83 8 56 34 58 34 2z m-133 -42 c-3 -8 -6 -5 -6 6 -1 11 2 17 5 13 3 -3 4 -12
1 -19z m-57 -92 c0 -24 -17 -28 -23 -6 -3 13 0 20 9 20 8 0 14 -6 14 -14z
m-14 -84 c-4 -3 -12 0 -18 6 -9 9 -9 12 0 12 7 0 13 8 13 18 1 10 3 8 6 -6 3
-13 2 -26 -1 -30z m114 8 c0 -5 -4 -10 -10 -10 -5 0 -10 5 -10 10 0 6 5 10 10
10 6 0 10 -4 10 -10z m-20 -45 c0 -14 -4 -25 -10 -25 -5 0 -10 11 -10 25 0 14
5 25 10 25 6 0 10 -11 10 -25z m-93 -17 c-3 -8 -6 -5 -6 6 -1 11 2 17 5 13 3
-3 4 -12 1 -19z m-47 -92 c0 -3 -4 -8 -10 -11 -5 -3 -10 -1 -10 4 0 6 5 11 10
11 6 0 10 -2 10 -4z m-33 -68 c-3 -8 -6 -5 -6 6 -1 11 2 17 5 13 3 -3 4 -12 1
-19z m-127 -242 c0 -3 -4 -8 -10 -11 -5 -3 -10 -1 -10 4 0 6 5 11 10 11 6 0
10 -2 10 -4z m-40 -16 c0 -5 -2 -10 -4 -10 -3 0 -8 5 -11 10 -3 6 -1 10 4 10
6 0 11 -4 11 -10z m130 0 c0 -5 -6 -13 -13 -17 -7 -4 -18 -19 -24 -33 l-12
-25 0 28 c-1 15 4 27 9 27 6 0 10 7 10 15 0 8 7 15 15 15 8 0 15 -4 15 -10z
m-206 -159 c-2 -2 -11 -1 -20 3 -14 5 -14 9 -3 22 12 14 14 14 20 -3 3 -10 5
-20 3 -22z m-74 -86 c0 -5 -5 -3 -10 5 -5 8 -10 20 -10 25 0 6 5 3 10 -5 5 -8
10 -19 10 -25z m140 6 c0 -5 -7 -15 -16 -22 -9 -7 -20 -22 -24 -34 -7 -15 -9
-10 -9 23 -1 38 1 42 24 42 14 0 25 -4 25 -9z m-183 -113 c-3 -8 -6 -5 -6 6
-1 11 2 17 5 13 3 -3 4 -12 1 -19z m-37 -35 c0 -21 -3 -24 -10 -13 -7 12 -12
12 -29 -4 -14 -12 -21 -15 -21 -7 0 13 39 50 53 51 4 0 7 -12 7 -27z m118 -14
c-2 -6 -8 -10 -13 -10 -5 0 -11 4 -13 10 -2 6 4 11 13 11 9 0 15 -5 13 -11z
m-198 -79 c0 -5 -4 -10 -9 -10 -6 0 -13 5 -16 10 -3 6 1 10 9 10 9 0 16 -4 16
-10z m119 -36 c-17 -21 -31 -17 -19 6 6 11 15 18 21 14 6 -4 6 -11 -2 -20z
m-29 -29 c0 -2 -9 -9 -19 -15 -14 -7 -22 -7 -27 2 -4 6 -3 8 2 5 6 -3 16 -2
24 4 17 10 20 11 20 4z m-102 -11 c-5 -5 -14 -7 -48 -13 -3 -1 0 -5 6 -9 8 -5
4 -18 -12 -42 -21 -31 -24 -32 -24 -12 0 13 4 21 9 18 5 -4 7 3 4 15 -4 16 -8
17 -14 7 -12 -19 -11 0 1 23 8 13 21 19 47 19 20 0 34 -3 31 -6z m-113 -74
c-3 -5 -12 -10 -18 -10 -7 0 -6 4 3 10 19 12 23 12 15 0z m-42 -69 c3 -14 0
-17 -14 -14 -15 4 -17 8 -8 19 15 18 16 18 22 -5z m-82 -94 c-16 -16 -26 0
-10 19 9 11 15 12 17 4 2 -6 -1 -17 -7 -23z m19 -87 c0 -5 7 -10 15 -10 8 0
15 5 15 10 0 6 7 10 15 10 8 0 15 -4 15 -10 0 -5 -4 -10 -10 -10 -11 0 -50
-36 -50 -46 0 -14 -31 -34 -54 -34 -21 0 -26 -5 -26 -26 0 -14 -6 -32 -14 -40
-17 -16 -46 -19 -46 -4 0 6 9 10 20 10 15 0 20 7 20 26 0 14 6 32 14 40 8 8
26 14 40 14 16 0 26 6 26 15 0 8 5 15 10 15 6 0 10 7 10 15 0 8 -4 15 -10 15
-5 0 -10 5 -10 10 0 6 5 10 10 10 6 0 10 -4 10 -10z m-180 -80 c0 -5 -2 -10
-4 -10 -3 0 -8 5 -11 10 -3 6 -1 10 4 10 6 0 11 -4 11 -10z m20 -126 c0 -8 -6
-22 -14 -30 -17 -16 -46 -19 -46 -4 0 6 9 10 20 10 13 0 20 7 20 20 0 11 5 20
10 20 6 0 10 -7 10 -16z m-80 -80 c0 -8 -6 -22 -14 -30 -17 -16 -46 -19 -46
-4 0 6 9 10 20 10 13 0 20 7 20 20 0 11 5 20 10 20 6 0 10 -7 10 -16z m-172
-34 c-14 -22 -24 -19 -15 5 4 8 11 15 17 15 6 0 6 -7 -2 -20z m92 -46 c0 -15
-23 -44 -34 -44 -3 0 -15 -9 -26 -20 -11 -11 -20 -23 -20 -26 0 -3 -6 -12 -14
-20 -8 -8 -17 -14 -20 -14 -10 0 -46 -39 -46 -50 0 -5 -4 -10 -10 -10 -5 0
-10 7 -10 15 0 8 5 15 10 15 14 0 12 28 -2 33 -8 2 -9 8 -4 13 5 5 11 4 13 -3
5 -15 33 -17 33 -3 0 6 7 10 15 10 8 0 15 7 15 15 0 8 5 15 10 15 14 0 12 28
-2 33 -8 2 -9 8 -4 13 5 5 11 4 13 -3 5 -15 33 -17 33 -3 0 6 7 10 15 10 8 0
15 9 15 20 0 11 5 20 10 20 6 0 10 -7 10 -16z m-340 -169 c0 -8 -7 -15 -16
-15 -14 0 -14 3 -4 15 7 8 14 15 16 15 2 0 4 -7 4 -15z m-60 -39 c0 -8 8 -17
18 -19 9 -3 5 -4 -10 -4 -20 1 -28 7 -28 19 0 10 5 18 10 18 6 0 10 -6 10 -14z
m162 -11 c0 -5 -5 -11 -11 -13 -6 -2 -11 4 -11 13 0 9 5 15 11 13 6 -2 11 -8
11 -13z m-177 -45 c-3 -5 -12 -10 -18 -10 -7 0 -6 4 3 10 19 12 23 12 15 0z
m125 -4 c0 -3 -4 -8 -10 -11 -5 -3 -10 -1 -10 4 0 6 5 11 10 11 6 0 10 -2 10
-4z m-100 -86 c0 -5 -7 -10 -15 -10 -8 0 -15 5 -15 10 0 6 7 10 15 10 8 0 15
-4 15 -10z m-80 -55 c10 -13 9 -15 -9 -15 -11 0 -21 -5 -21 -11 0 -5 -5 -7
-12 -3 -9 6 -9 9 0 12 7 2 12 10 12 18 0 18 14 18 30 -1z m-177 -12 c-7 -2
-19 -2 -25 0 -7 3 -2 5 12 5 14 0 19 -2 13 -5z m-73 -17 c0 -8 -4 -18 -10 -21
-5 -3 -10 3 -10 14 0 12 5 21 10 21 6 0 10 -6 10 -14z m155 -56 c3 -5 1 -10
-4 -10 -6 0 -11 5 -11 10 0 6 2 10 4 10 3 0 8 -4 11 -10z m-75 -35 c0 -8 -4
-15 -10 -15 -5 0 -10 7 -10 15 0 8 5 15 10 15 6 0 10 -7 10 -15z m-103 -71
c-3 -3 -12 -4 -19 -1 -8 3 -5 6 6 6 11 1 17 -2 13 -5z m-192 -24 c-3 -5 -11
-10 -16 -10 -6 0 -7 5 -4 10 3 6 11 10 16 10 6 0 7 -4 4 -10z m-116 -41 c-8
-5 -26 -9 -41 -9 -16 0 -28 -4 -28 -10 0 -5 -4 -10 -10 -10 -5 0 -10 6 -10 13
0 7 14 14 32 15 18 2 37 7 42 12 5 5 13 7 19 3 5 -3 3 -9 -4 -14z m181 -9 c0
-5 -7 -10 -15 -10 -8 0 -15 -4 -15 -9 0 -5 -13 -11 -30 -14 -17 -4 -30 -13
-30 -21 0 -8 -15 -20 -34 -26 -19 -6 -37 -17 -40 -25 -7 -20 -26 -19 -26 0 0
8 7 15 15 15 8 0 15 5 15 10 0 6 11 10 25 10 18 0 25 5 25 20 0 13 7 20 20 20
11 0 20 5 20 10 0 6 9 10 20 10 11 0 20 5 20 10 0 6 7 10 15 10 8 0 15 -4 15
-10z m-395 -80 c-3 -5 -13 -10 -21 -10 -8 0 -14 5 -14 10 0 6 9 10 21 10 11 0
17 -4 14 -10z m55 -14 c0 -3 -4 -8 -10 -11 -5 -3 -10 -1 -10 4 0 6 5 11 10 11
6 0 10 -2 10 -4z m-4441 -62 c10 -9 -45 -3 -59 6 -11 7 -5 8 20 4 19 -4 37 -8
39 -10z m-239 -4 c0 -5 -11 -10 -25 -10 -14 0 -25 5 -25 10 0 6 11 10 25 10
14 0 25 -4 25 -10z m4465 0 c-3 -5 -13 -10 -21 -10 -8 0 -14 5 -14 10 0 6 9
10 21 10 11 0 17 -4 14 -10z m265 -1 c-14 -6 -28 -17 -33 -25 -10 -18 -27 -18
-27 1 0 8 7 15 15 15 8 0 15 5 15 10 0 6 12 10 28 9 l27 0 -25 -10z m-200 -3
c0 -3 -4 -8 -10 -11 -5 -3 -10 -1 -10 4 0 6 5 11 10 11 6 0 10 -2 10 -4z
m-4500 -16 c0 -5 -2 -10 -4 -10 -3 0 -8 5 -11 10 -3 6 -1 10 4 10 6 0 11 -4
11 -10z m170 0 c0 -5 -2 -10 -4 -10 -3 0 -8 5 -11 10 -3 6 -1 10 4 10 6 0 11
-4 11 -10z m-331 -37 c10 -21 32 -50 48 -65 20 -19 7338 -4254 7733 -4475 25
-14 61 -35 80 -47 19 -11 47 -28 61 -36 15 -8 1522 -879 3349 -1934 2615
-1510 3338 -1924 3399 -1943 158 -51 398 -40 579 26 54 19 1504 851 4743 2721
2565 1481 4689 2711 4719 2734 34 26 68 64 90 101 l35 58 8 -30 c7 -21 4 -48
-8 -88 -14 -49 -28 -69 -83 -124 -63 -61 -374 -243 -4682 -2729 -2538 -1465
-4655 -2686 -4705 -2712 -138 -75 -240 -101 -415 -107 -166 -6 -254 8 -354 55
-34 16 -961 549 -2061 1184 -1100 635 -2025 1169 -2055 1185 -30 17 -1202 693
-2605 1503 -1402 810 -2556 1475 -2564 1478 -10 4 -12 1 -6 -8 5 -9 4 -11 -4
-6 -6 4 -9 11 -6 16 6 9 -114 77 -127 73 -4 -2 -8 1 -8 7 0 5 -12 16 -27 23
-24 13 -28 13 -45 -7 -16 -19 -17 -19 -18 -3 0 12 -6 17 -17 15 -14 -3 -17
-12 -15 -43 3 -33 1 -38 -9 -27 -18 17 -32 15 -25 -4 3 -9 -4 -25 -20 -39 -15
-14 -24 -31 -21 -39 4 -10 0 -12 -14 -9 -15 4 -19 0 -19 -18 0 -12 -7 -30 -15
-39 -14 -16 -13 -17 15 -18 22 0 30 4 30 16 0 12 4 9 13 -8 11 -22 11 -27 -5
-38 -19 -14 -43 -7 -33 9 4 5 -3 9 -14 9 -25 0 -71 20 -71 32 0 4 -5 8 -11 8
-7 0 -3138 1803 -4249 2447 -25 14 -36 9 -370 -188 -350 -205 -480 -281 -695
-407 -66 -38 -221 -129 -345 -202 -124 -73 -245 -144 -271 -159 -77 -45 -413
-242 -542 -319 -67 -40 -129 -75 -137 -79 -8 -4 -37 -20 -65 -37 -27 -17 -62
-38 -77 -46 -75 -42 -167 -158 -168 -213 0 -30 38 -95 72 -120 18 -14 128 -80
243 -147 224 -130 263 -153 310 -180 83 -49 285 -166 325 -188 25 -13 65 -37
90 -52 53 -33 15391 -8889 15530 -8966 152 -86 309 -115 499 -94 128 14 254
50 346 98 38 21 2504 1464 5480 3207 2975 1744 5413 3170 5417 3170 4 0 13 6
20 13 6 6 17 12 24 12 7 0 14 4 16 8 6 15 127 81 133 72 3 -4 -1 -11 -7 -13
-8 -4 -9 -6 -2 -6 6 -1 18 7 25 16 10 11 10 14 2 9 -7 -4 -13 -3 -13 2 0 10
80 57 98 57 7 0 16 5 20 11 8 12 131 94 141 94 6 0 6 -153 -1 -199 -1 -13 -9
-26 -17 -29 -9 -3 -11 0 -6 8 5 9 4 11 -4 6 -6 -4 -9 -11 -7 -15 7 -11 -173
-113 -186 -105 -6 4 -8 3 -4 -4 10 -17 -10 -23 -24 -7 -13 16 -35 10 -24 -6 3
-5 10 -7 15 -4 5 4 9 2 9 -3 0 -10 -48 -36 -67 -37 -7 0 -19 -9 -27 -20 -9
-11 -16 -17 -16 -13 0 4 -9 0 -20 -10 -12 -9 -23 -15 -27 -14 -3 2 -9 0 -12
-6 -13 -19 -403 -242 -413 -235 -6 3 -9 2 -5 -3 7 -12 -10412 -6117 -10507
-6157 -132 -55 -246 -79 -416 -84 -177 -6 -286 9 -405 56 -38 15 -3557 2041
-7820 4503 -4262 2461 -7777 4490 -7810 4508 -33 18 -76 43 -95 55 -19 12 -42
25 -50 28 -8 4 -28 15 -45 26 -16 10 -136 79 -265 153 -129 74 -280 161 -335
193 -243 140 -288 176 -337 267 -19 36 -23 58 -23 143 0 91 3 105 29 157 53
104 140 178 351 298 50 28 145 84 173 101 27 17 219 129 452 264 540 314 1615
947 1618 953 1 4 -15 16 -35 27 -141 74 -231 144 -257 199 -22 47 -114 516
-109 554 3 17 7 32 9 32 2 0 12 -17 23 -37z m488 -9 c-3 -3 -12 -4 -19 -1 -8
3 -5 6 6 6 11 1 17 -2 13 -5z m4006 -1 c-7 -2 -19 -2 -25 0 -7 3 -2 5 12 5 14
0 19 -2 13 -5z m-4203 -13 c0 -5 -11 -10 -25 -10 -14 0 -25 5 -25 10 0 6 11
10 25 10 14 0 25 -4 25 -10z m4110 0 c0 -5 -4 -10 -10 -10 -5 0 -10 5 -10 10
0 6 5 10 10 10 6 0 10 -4 10 -10z m320 0 c0 -5 -11 -10 -25 -10 -14 0 -25 5
-25 10 0 6 11 10 25 10 14 0 25 -4 25 -10z m-4400 -20 c0 -5 -2 -10 -4 -10 -3
0 -8 5 -11 10 -3 6 -1 10 4 10 6 0 11 -4 11 -10z m4030 -5 c-7 -8 -16 -15 -21
-15 -5 0 -9 7 -9 15 0 9 9 15 21 15 18 0 19 -2 9 -15z m310 11 c0 -3 -4 -8
-10 -11 -5 -3 -10 -1 -10 4 0 6 5 11 10 11 6 0 10 -2 10 -4z m-4020 -22 c0
-14 -3 -14 -15 -4 -8 7 -15 14 -15 16 0 2 7 4 15 4 8 0 15 -7 15 -16z m3787 0
c-3 -3 -12 -4 -19 -1 -8 3 -5 6 6 6 11 1 17 -2 13 -5z m-3754 -31 c-7 -2 -19
-2 -25 0 -7 3 -2 5 12 5 14 0 19 -2 13 -5z m3504 -13 c1 -11 -2 -20 -8 -20 -5
0 -9 9 -9 20 0 11 4 20 8 20 4 0 8 -9 9 -20z m143 10 c0 -13 -11 -13 -30 0
-12 8 -11 10 8 10 12 0 22 -4 22 -10z m-3870 -10 c0 -5 -11 -10 -25 -10 -14 0
-25 5 -25 10 0 6 11 10 25 10 14 0 25 -4 25 -10z m3793 3 c-7 -2 -21 -2 -30 0
-10 3 -4 5 12 5 17 0 24 -2 18 -5z m317 -3 c0 -5 -9 -10 -19 -10 -11 0 -23 5
-26 10 -4 6 5 10 19 10 14 0 26 -4 26 -10z m-453 -23 c-6 -20 -27 -19 -27 2 0
14 5 19 15 14 9 -3 14 -10 12 -16z m373 8 c0 -8 -4 -15 -9 -15 -5 0 -23 -3
-40 -6 -36 -8 -41 6 -8 22 32 17 57 16 57 -1z m-4000 -5 c0 -5 -2 -10 -4 -10
-3 0 -8 5 -11 10 -3 6 -1 10 4 10 6 0 11 -4 11 -10z m153 -57 c-7 -2 -19 -2
-25 0 -7 3 -2 5 12 5 14 0 19 -2 13 -5z m244 1 c-3 -3 -12 -4 -19 -1 -8 3 -5
6 6 6 11 1 17 -2 13 -5z m80 0 c-3 -3 -12 -4 -19 -1 -8 3 -5 6 6 6 11 1 17 -2
13 -5z m79 -21 c-10 -10 -19 5 -10 18 6 11 8 11 12 0 2 -7 1 -15 -2 -18z
m2904 6 c0 -5 -4 -9 -10 -9 -5 0 -10 7 -10 16 0 8 5 12 10 9 6 -3 10 -10 10
-16z m53 14 c-7 -2 -19 -2 -25 0 -7 3 -2 5 12 5 14 0 19 -2 13 -5z m347 -3
c-36 -11 -50 -11 -50 0 0 6 17 10 38 9 33 -1 34 -2 12 -9z m-3665 -20 c-3 -5
-13 -10 -21 -10 -8 0 -14 5 -14 10 0 6 9 10 21 10 11 0 17 -4 14 -10z m365
-20 c0 -5 -4 -10 -10 -10 -5 0 -10 5 -10 10 0 6 5 10 10 10 6 0 10 -4 10 -10z
m103 -37 c-7 -2 -21 -2 -30 0 -10 3 -4 5 12 5 17 0 24 -2 18 -5z m2564 1 c-3
-3 -12 -4 -19 -1 -8 3 -5 6 6 6 11 1 17 -2 13 -5z m130 0 c-3 -3 -12 -4 -19
-1 -8 3 -5 6 6 6 11 1 17 -2 13 -5z m-2922 -24 c-3 -5 -13 -10 -21 -10 -8 0
-14 5 -14 10 0 6 9 10 21 10 11 0 17 -4 14 -10z m3165 0 c0 -5 -6 -10 -14 -10
-8 0 -18 5 -21 10 -3 6 3 10 14 10 12 0 21 -4 21 -10z m-2852 -66 c64 -8 74
-34 12 -34 -29 0 -40 4 -40 15 0 10 -11 15 -37 16 -21 1 -49 5 -63 10 -26 9
10 7 128 -7z m239 10 c-3 -3 -12 -4 -19 -1 -8 3 -5 6 6 6 11 1 17 -2 13 -5z
m2050 0 c-3 -3 -12 -4 -19 -1 -8 3 -5 6 6 6 11 1 17 -2 13 -5z m323 -4 c0 -5
-18 -10 -40 -10 -29 0 -40 -4 -40 -15 0 -11 -11 -15 -40 -15 -29 0 -40 4 -40
15 0 10 11 15 38 16 20 1 51 5 67 9 44 11 55 11 55 0z m-2167 -27 c-7 -2 -21
-2 -30 0 -10 3 -4 5 12 5 17 0 24 -2 18 -5z m1680 0 c-7 -2 -21 -2 -30 0 -10
3 -4 5 12 5 17 0 24 -2 18 -5z m-1728 -33 c3 -5 -1 -10 -9 -10 -9 0 -16 5 -16
10 0 6 4 10 9 10 6 0 13 -4 16 -10z m898 3 c-24 -2 -62 -2 -85 0 -24 2 -5 4
42 4 47 0 66 -2 43 -4z m834 -9 c-3 -3 -12 -4 -19 -1 -8 3 -5 6 6 6 11 1 17
-2 13 -5z m-1842 -19 c50 -7 74 -13 55 -13 -19 0 -75 6 -125 13 -49 7 -74 13
-55 13 19 0 76 -6 125 -13z m512 9 c-3 -3 -12 -4 -19 -1 -8 3 -5 6 6 6 11 1
17 -2 13 -5z m930 0 c-3 -3 -12 -4 -19 -1 -8 3 -5 6 6 6 11 1 17 -2 13 -5z
m598 -4 c-27 -5 -84 -8 -125 -8 -66 1 -70 2 -30 8 25 4 81 7 125 7 74 0 76 0
30 -7z m-1892 -37 c-13 -2 -33 -2 -45 0 -13 2 -3 4 22 4 25 0 35 -2 23 -4z
m1680 0 c-13 -2 -33 -2 -45 0 -13 2 -3 4 22 4 25 0 35 -2 23 -4z m-840 -10
c-35 -2 -91 -2 -125 0 -35 2 -7 3 62 3 69 0 97 -1 63 -3z m-600 -30 c-13 -2
-33 -2 -45 0 -13 2 -3 4 22 4 25 0 35 -2 23 -4z m292 -4 c-72 -10 -195 -10
-195 -1 0 5 55 8 123 8 88 0 108 -2 72 -7z m765 -1 c0 -9 -123 -9 -195 1 -36
5 -16 7 73 7 67 0 122 -3 122 -8z m143 5 c-13 -2 -33 -2 -45 0 -13 2 -3 4 22
4 25 0 35 -2 23 -4z m-500 -30 c-68 -2 -178 -2 -245 0 -68 1 -13 3 122 3 135
0 190 -2 123 -3z m27890 -397 c54 -14 133 -40 175 -59 70 -30 2024 -1152 2150
-1233 31 -21 50 -39 46 -46 -4 -6 -3 -8 4 -4 6 3 19 -6 30 -21 29 -43 36 -57
25 -50 -5 3 -10 0 -10 -7 0 -8 6 -12 14 -9 9 3 11 0 7 -10 -3 -8 -1 -18 5 -22
14 -8 14 -55 1 -55 -5 0 -7 8 -4 18 5 15 4 15 -10 -2 -18 -23 -12 -38 12 -29
14 6 15 4 5 -8 -7 -9 -8 -20 -3 -28 8 -14 4 -56 -6 -73 -3 -5 -10 -5 -16 -2
-7 4 -8 2 -4 -5 4 -6 12 -9 17 -6 15 10 10 -12 -6 -25 -8 -7 -15 -20 -15 -30
0 -10 -22 -38 -49 -62 -58 -51 -2099 -1232 -2208 -1277 -272 -112 -601 -112
-868 1 -44 19 -521 289 -1060 600 -539 311 -997 575 -1017 586 -168 94 -223
171 -223 312 0 62 5 85 28 132 16 32 46 72 67 90 44 37 2095 1223 2181 1262
73 32 180 64 271 82 114 21 338 12 461 -20z m-36187 -1822 c87 -15 187 -47
274 -87 117 -53 2116 -1216 2156 -1254 47 -44 89 -109 76 -117 -5 -3 -9 -17
-9 -32 0 -17 2 -22 7 -13 5 6 6 19 2 28 -3 9 -2 13 3 9 14 -13 16 -67 2 -64
-6 1 -9 1 -4 -1 4 -3 5 -9 2 -14 -4 -5 0 -6 8 -3 10 4 13 -3 11 -23 -1 -15 -3
-30 -4 -33 -1 -3 -2 -9 -1 -14 1 -5 -6 -18 -16 -29 -10 -11 -12 -17 -5 -13 6
4 12 5 12 2 0 -16 -48 -93 -75 -120 -41 -42 -2128 -1246 -2226 -1285 -299
-120 -650 -104 -934 42 -38 20 -529 301 -1090 625 -654 378 -1033 603 -1057
627 -67 67 -96 195 -68 297 23 81 96 158 200 211 14 7 468 269 1010 582 542
313 1017 584 1057 602 198 91 434 119 669 77z m10835 -411 c13 -16 12 -17 -3
-4 -17 13 -22 21 -14 21 2 0 10 -8 17 -17z m34 -80 c-8 -12 -15 -29 -15 -38 0
-8 -4 -15 -10 -15 -5 0 -10 -7 -10 -15 0 -22 -17 -18 -23 5 -3 13 -11 18 -20
14 -13 -5 -14 0 -8 22 7 27 31 46 31 25 0 -6 9 -11 20 -11 25 0 26 28 3 46
-15 11 -13 12 14 2 31 -12 32 -13 18 -35z m-85 17 c0 -5 -7 -7 -15 -4 -8 4
-15 8 -15 10 0 2 7 4 15 4 8 0 15 -4 15 -10z m-90 -99 c0 -6 -4 -13 -10 -16
-5 -3 -10 1 -10 9 0 9 5 16 10 16 6 0 10 -4 10 -9z m90 -64 c0 -8 -7 -20 -15
-27 -8 -7 -15 -18 -15 -25 0 -17 -28 -27 -36 -13 -4 7 -3 8 5 4 8 -6 11 0 8
21 -3 17 -10 28 -19 27 -8 -1 -15 4 -15 10 0 6 20 12 44 14 32 2 43 -1 43 -11z
m-70 -41 c0 -2 -7 -7 -16 -10 -8 -3 -12 -2 -9 4 6 10 25 14 25 6z m20363 -831
c611 -353 865 -504 862 -514 -4 -11 -2 -11 9 -2 11 9 15 8 20 -5 4 -9 9 -14
13 -11 6 7 96 -42 101 -55 2 -4 10 -8 18 -8 9 0 12 -5 8 -12 -4 -7 -3 -8 5 -4
7 5 29 -3 51 -18 22 -14 44 -26 49 -26 5 0 11 -5 13 -12 2 -6 11 -12 19 -13
22 -4 159 -88 159 -98 0 -4 -3 -6 -7 -4 -5 3 -8 -19 -8 -49 0 -36 4 -54 13
-54 12 0 16 21 12 72 -1 22 2 26 17 23 24 -4 87 -46 121 -80 20 -20 22 -27 12
-40 -15 -18 -35 -20 -24 -3 4 7 3 8 -4 4 -7 -4 -12 -3 -12 2 0 16 13 22 27 11
8 -7 13 -8 13 -1 0 20 -30 21 -43 2 -8 -11 -16 -18 -19 -15 -2 3 -5 -2 -5 -10
0 -9 6 -14 13 -11 8 3 11 0 8 -8 -3 -7 2 -13 11 -13 8 0 13 3 10 5 -5 6 26 31
39 32 5 0 3 -7 -4 -15 -10 -13 -10 -19 4 -34 11 -12 13 -21 7 -25 -5 -4 -9
-15 -8 -25 1 -14 8 -18 29 -16 51 5 56 -10 49 -157 -1 -19 -6 -27 -18 -26 -10
0 -27 -3 -38 -7 -19 -7 -19 -7 -1 7 16 13 16 15 2 15 -19 0 -18 4 -20 -77 -1
-53 -6 -70 -24 -90 -12 -13 -25 -20 -29 -17 -3 4 -1 7 5 7 7 0 12 5 12 12 0 6
-7 4 -18 -5 -10 -10 -22 -14 -27 -10 -4 5 -5 2 -1 -5 4 -7 12 -10 17 -7 19 12
8 -7 -17 -30 -15 -14 -30 -22 -35 -19 -5 3 -9 -3 -10 -13 0 -16 -1 -16 -9 2
-5 11 -9 14 -9 7 -1 -7 -5 -10 -11 -7 -5 3 -10 29 -10 56 0 31 -4 48 -10 44
-5 -3 -10 1 -10 10 0 10 5 13 13 9 7 -5 6 0 -3 11 -9 11 -10 16 -2 11 6 -4 12
-3 12 3 0 5 -4 13 -10 16 -15 10 -12 25 8 32 9 4 20 11 23 16 3 5 9 1 12 -8 4
-9 3 -13 -2 -10 -5 3 -12 1 -16 -4 -3 -6 4 -8 17 -5 13 3 28 6 35 6 15 2 10
41 -5 46 -7 2 -12 -1 -12 -8 0 -6 5 -8 13 -4 8 5 8 2 -2 -9 -14 -18 -22 -22
-20 -9 3 20 -2 32 -13 26 -7 -4 -8 -3 -4 5 4 6 11 9 16 6 7 -4 20 30 25 65 0
3 4 10 8 17 4 6 3 15 -3 18 -8 5 -7 11 1 21 9 11 8 15 -5 20 -9 3 -13 10 -10
15 3 5 0 9 -5 9 -6 0 -11 7 -11 15 0 8 5 15 11 15 5 0 7 -5 3 -12 -4 -6 -3 -8
4 -4 5 3 13 0 15 -6 3 -8 6 -6 6 5 1 9 -4 17 -10 17 -8 0 -8 4 0 14 8 10 9 16
1 21 -6 3 -8 10 -5 15 6 10 -21 7 -31 -3 -4 -4 -14 -1 -22 6 -11 8 -14 8 -9 0
17 -27 -22 -16 -97 28 -45 27 -86 53 -93 58 -7 6 -17 11 -23 11 -6 0 -8 5 -4
12 4 7 3 8 -5 4 -7 -5 -38 9 -74 31 -34 22 -70 42 -80 46 -11 4 -15 12 -11 18
4 8 3 9 -4 5 -9 -6 -117 46 -132 64 -3 3 -15 10 -27 15 -59 27 -1943 1121
-1940 1128 1 4 40 29 87 56 l85 49 56 -32 c30 -17 446 -256 922 -531z m1543
-964 c-12 -19 -29 -12 -23 10 4 16 3 18 -9 8 -9 -7 -14 -8 -14 -1 0 17 24 21
39 7 7 -7 10 -18 7 -24z m-141 -31 c-6 -9 -46 -21 -42 -12 2 4 7 15 11 26 5
15 9 16 21 6 8 -7 13 -16 10 -20z m-45 10 c0 -5 -5 -10 -11 -10 -5 0 -7 5 -4
10 3 6 8 10 11 10 2 0 4 -4 4 -10z m210 -25 c0 -6 -7 -12 -15 -12 -10 0 -14 7
-10 21 3 12 2 15 -1 8 -3 -6 -11 -9 -17 -5 -7 4 -8 0 -3 -13 6 -16 5 -17 -6
-6 -11 11 -10 16 6 28 21 15 46 4 46 -21z m-12 -238 c-7 -12 -11 -26 -10 -30
1 -4 -5 -10 -13 -13 -8 -3 -12 -10 -9 -15 3 -5 0 -9 -6 -9 -8 0 -9 7 -5 18 13
33 14 52 2 52 -8 0 -7 3 2 9 8 5 21 7 29 3 11 -4 13 -1 7 8 -5 9 -4 11 3 6 9
-5 9 -13 0 -29z m-214 -234 c-22 -16 -37 -7 -24 16 5 10 6 22 2 27 -4 5 3 0
16 -11 22 -18 22 -20 6 -32z m7026 -268 c31 -8 77 -24 102 -35 65 -28 1241
-709 1250 -723 4 -7 8 -8 8 -3 0 12 49 -34 62 -59 6 -10 11 -49 11 -85 -1 -61
0 -62 7 -20 7 48 12 46 14 -9 2 -19 -3 -35 -11 -38 -7 -3 -13 -13 -13 -22 0
-14 2 -14 10 -1 14 22 12 7 -5 -31 -8 -19 -29 -48 -47 -65 -36 -33 -1183 -699
-1284 -745 -144 -66 -332 -75 -489 -25 -112 36 -1312 727 -1367 787 -42 46
-53 84 -46 165 9 107 5 104 553 421 736 425 751 434 818 461 129 52 292 62
427 27z m-21806 -10247 c24 -7 61 -32 88 -58 76 -73 83 -112 83 -430 0 -231
-2 -272 -19 -322 -39 -118 -110 -169 -247 -176 -184 -9 -279 58 -309 219 -14
71 -13 505 1 571 21 99 73 164 158 194 46 17 192 18 245 2z m687 1 c51 -16
105 -62 131 -112 16 -31 23 -66 26 -135 l4 -93 -98 3 -99 3 -5 84 c-7 93 -19
111 -77 111 -40 0 -70 -27 -78 -72 -3 -18 -5 -152 -3 -298 3 -234 5 -269 21
-293 31 -48 103 -48 134 -1 12 18 18 54 21 115 l4 89 -51 0 -51 0 0 65 0 65
145 0 145 0 -2 -252 -3 -253 -64 -3 c-70 -3 -81 3 -81 51 l0 29 -26 -32 c-39
-45 -75 -60 -146 -60 -65 0 -133 24 -171 58 -28 25 -63 99 -76 160 -15 70 -15
494 0 564 22 102 77 175 153 202 50 18 194 20 247 5z m4737 -17 c81 -43 122
-131 122 -262 l0 -60 -100 0 -100 0 0 64 c0 67 -12 115 -33 128 -25 16 -84 8
-103 -13 -18 -19 -19 -42 -22 -298 -2 -152 0 -291 3 -309 8 -43 38 -72 74 -72
68 0 89 34 98 156 l6 84 -52 0 -51 0 0 65 0 65 140 0 140 0 0 -255 0 -256 -67
3 -68 3 -3 33 -3 33 -39 -35 c-47 -43 -71 -50 -153 -44 -78 5 -132 32 -174 87
-53 68 -56 92 -60 389 -4 231 -2 282 12 330 43 147 116 195 290 189 80 -2 109
-8 143 -25z m-6757 3 c52 -19 93 -55 122 -110 19 -34 22 -56 22 -156 0 -111
-1 -117 -30 -165 -44 -71 -111 -103 -233 -111 l-92 -6 0 -208 0 -209 -100 0
-100 0 0 490 0 490 184 0 c140 0 194 -4 227 -15z m640 -1 c119 -33 168 -105
169 -245 0 -111 -19 -168 -72 -213 l-39 -34 61 -219 c33 -120 63 -226 66 -235
5 -16 -4 -18 -100 -18 l-105 0 -10 38 c-5 20 -31 119 -57 220 l-47 182 -28 0
-29 0 -2 -217 -3 -218 -100 0 -100 0 -3 488 -2 487 172 0 c127 0 187 -4 229
-16z m2107 -13 c96 -43 132 -106 132 -234 0 -104 -16 -154 -68 -205 l-44 -44
65 -227 c35 -124 61 -230 57 -234 -4 -4 -51 -6 -105 -5 l-99 3 -54 218 -54
217 -29 0 -29 0 -2 -217 -3 -218 -100 0 -100 0 -3 488 -2 489 192 -4 c176 -3
198 -6 246 -27z m718 -451 c51 -261 93 -481 94 -487 0 -10 -25 -13 -95 -13
l-94 0 -6 33 c-3 17 -11 66 -18 107 l-13 75 -71 3 c-82 3 -75 11 -93 -108 -18
-120 -8 -110 -116 -110 -65 0 -94 4 -94 12 0 14 179 937 185 956 4 9 32 12
117 10 l112 -3 92 -475z m424 425 c6 -30 33 -164 59 -297 l48 -243 12 55 c18
84 111 531 111 536 0 2 47 4 104 4 l104 0 6 -97 c3 -54 7 -273 8 -488 l3 -390
-75 0 -75 0 -6 282 c-3 156 -7 285 -10 287 -2 3 -29 -124 -59 -282 l-55 -287
-65 0 -65 0 -61 305 -62 305 -1 -201 c0 -110 -4 -249 -8 -307 l-6 -107 -74 0
-73 0 0 173 c0 96 3 316 7 490 l6 317 108 0 108 0 11 -55z m822 43 c3 -7 29
-136 59 -285 29 -150 56 -273 60 -273 3 0 32 128 64 285 l59 285 108 0 108 0
0 -173 c0 -96 3 -316 7 -490 l6 -317 -75 0 -75 0 -6 83 c-4 45 -7 178 -7 296
0 118 -2 212 -6 209 -3 -3 -30 -133 -60 -288 -30 -155 -57 -287 -60 -291 -3
-5 -32 -9 -64 -9 -54 0 -60 2 -65 23 -3 12 -30 144 -60 292 -29 149 -55 268
-56 265 -1 -3 -5 -133 -8 -290 l-6 -285 -79 -3 -79 -3 6 302 c4 166 7 387 7
491 l0 188 109 0 c78 0 110 -4 113 -12z m808 -478 l0 -490 -100 0 -100 0 0
490 0 490 100 0 100 0 0 -490z m386 258 l99 -232 3 232 2 232 90 0 90 0 -2
-487 -3 -488 -69 0 -69 0 -101 249 -101 248 -5 -248 -5 -249 -87 -3 -88 -3 0
491 0 490 73 0 74 0 99 -232z"/>
<path d="M34290 36080 c-9 -6 -10 -10 -3 -10 6 0 15 5 18 10 8 12 4 12 -15 0z"/>
<path d="M34265 36050 c-3 -5 -1 -10 4 -10 6 0 11 5 11 10 0 6 -2 10 -4 10 -3
0 -8 -4 -11 -10z"/>
<path d="M28990 35696 c0 -2 7 -9 15 -16 9 -7 15 -8 15 -2 0 5 -7 12 -15 16
-8 3 -15 4 -15 2z"/>
<path d="M28973 35585 c0 -8 4 -12 9 -9 5 3 6 10 3 15 -9 13 -12 11 -12 -6z"/>
<path d="M27335 30321 c-11 -11 -4 -41 10 -41 8 0 15 7 15 16 0 8 4 13 8 10 5
-3 9 0 9 7 0 12 -33 18 -42 8z"/>
<path d="M27081 30143 c-1 -17 16 -25 25 -12 4 7 3 9 -4 5 -5 -3 -13 0 -15 6
-4 9 -6 10 -6 1z"/>
<path d="M27084 30096 c-3 -8 -1 -22 4 -32 7 -13 9 -10 8 15 -1 34 -4 38 -12
17z"/>
<path d="M16232 32060 c0 -14 2 -19 5 -12 2 6 2 18 0 25 -3 6 -5 1 -5 -13z"/>
<path d="M23645 25671 c-3 -5 -2 -12 3 -15 5 -3 9 1 9 9 0 17 -3 19 -12 6z"/>
<path d="M16249 21423 c-13 -16 -12 -17 4 -4 9 7 17 15 17 17 0 8 -8 3 -21
-13z"/>
<path d="M21190 18140 c-9 -6 -10 -10 -3 -10 6 0 15 5 18 10 8 12 4 12 -15 0z"/>
<path d="M21232 18136 c7 -8 15 -12 17 -11 5 6 -10 25 -20 25 -5 0 -4 -6 3
-14z"/>
<path d="M21116 17863 c-6 -14 -5 -15 5 -6 7 7 10 15 7 18 -3 3 -9 -2 -12 -12z"/>
<path d="M42806 15648 c3 -5 10 -6 15 -3 13 9 11 12 -6 12 -8 0 -12 -4 -9 -9z"/>
<path d="M42673 15465 c0 -8 4 -12 9 -9 5 3 6 10 3 15 -9 13 -12 11 -12 -6z"/>
<path d="M42444 15442 c7 -11 -26 -35 -38 -27 -3 3 -4 2 -1 -2 11 -14 32 -10
43 8 9 13 9 20 0 25 -7 4 -8 3 -4 -4z"/>
<path d="M42433 15285 c0 -7 6 -11 14 -8 7 3 13 6 13 8 0 2 -6 5 -13 8 -8 3
-14 -1 -14 -8z"/>
<path d="M46190 20156 c-81 -18 -157 -45 -225 -79 -52 -26 -1904 -1092 -2056
-1183 -61 -37 -79 -65 -79 -124 0 -30 7 -47 28 -69 29 -31 2018 -1182 2139
-1238 120 -55 228 -77 383 -77 156 0 263 22 383 77 97 45 2106 1204 2136 1232
30 29 39 100 18 141 -12 24 -214 144 -1049 625 -568 328 -1055 608 -1083 621
-64 32 -163 64 -239 77 -79 14 -287 12 -356 -3z"/>
<path d="M48983 18945 c0 -8 4 -12 9 -9 5 3 6 10 3 15 -9 13 -12 11 -12 -6z"/>
<path d="M49070 18849 c0 -5 5 -7 10 -4 6 3 10 8 10 11 0 2 -4 4 -10 4 -5 0
-10 -5 -10 -11z"/>
<path d="M49054 18748 c-4 -7 -4 -10 1 -6 4 4 14 3 21 -3 9 -7 14 -6 20 3 4 7
4 10 -1 6 -4 -4 -14 -3 -21 3 -9 7 -14 6 -20 -3z"/>
<path d="M49075 18710 c3 -5 8 -10 11 -10 2 0 4 5 4 10 0 6 -5 10 -11 10 -5 0
-7 -4 -4 -10z"/>
<path d="M48981 18564 c0 -11 3 -14 6 -6 3 7 2 16 -1 19 -3 4 -6 -2 -5 -13z"/>
<path d="M10115 18330 c-74 -12 -153 -35 -226 -66 -69 -29 -2115 -1208 -2147
-1237 -44 -41 -46 -133 -3 -171 35 -30 2105 -1218 2163 -1241 114 -45 179 -57
320 -62 158 -6 256 9 383 60 92 37 2126 1207 2169 1247 37 36 46 102 18 145
-15 23 -270 174 -1066 634 -576 332 -1074 615 -1107 628 -148 60 -357 86 -504
63z"/>
<path d="M12963 16921 c0 -11 5 -18 9 -15 4 3 5 11 1 19 -7 21 -12 19 -10 -4z"/>
<path d="M42385 16321 c-3 -5 -2 -12 3 -15 5 -3 9 1 9 9 0 17 -3 19 -12 6z"/>
<path d="M42526 16272 c-3 -5 1 -9 9 -9 8 0 12 4 9 9 -3 4 -7 8 -9 8 -2 0 -6
-4 -9 -8z"/>
<path d="M42756 16251 c-4 -5 -2 -12 3 -15 5 -4 12 -2 15 3 4 5 2 12 -3 15 -5
4 -12 2 -15 -3z"/>
<path d="M42904 16192 c3 -6 2 -13 -4 -17 -15 -9 10 -31 38 -33 43 -3 51 -5
46 -13 -2 -5 -15 -4 -28 1 -14 5 -28 4 -37 -2 -12 -8 -12 -9 1 -5 8 2 23 0 33
-5 21 -11 54 9 39 24 -8 8 -44 19 -70 20 -7 1 -11 7 -8 14 3 8 0 16 -6 20 -6
4 -8 3 -4 -4z"/>
<path d="M42851 16091 c-11 -7 -11 -10 0 -14 11 -4 11 -7 2 -14 -10 -7 -10
-13 2 -29 11 -15 15 -16 16 -4 0 8 2 25 3 38 3 27 -5 34 -23 23z"/>
<path d="M42951 15833 c-1 -6 -4 -20 -7 -30 -5 -17 -5 -17 6 0 6 10 9 23 6 30
-3 9 -5 9 -5 0z"/>
<path d="M42920 16010 c0 -5 5 -10 11 -10 5 0 7 5 4 10 -3 6 -8 10 -11 10 -2
0 -4 -4 -4 -10z"/>
<path d="M49645 15074 c-86 -21 -191 -76 -720 -382 -330 -190 -608 -352 -618
-361 -10 -8 -16 -21 -15 -29 3 -16 1187 -702 1268 -734 47 -19 73 -23 180 -22
104 0 133 3 175 21 28 11 322 178 655 370 447 259 606 355 608 370 2 16 -97
77 -610 374 -337 194 -638 362 -668 373 -53 19 -210 31 -255 20z"/>
<path d="M51295 14231 c-3 -5 -2 -12 3 -15 5 -3 9 1 9 9 0 17 -3 19 -12 6z"/>
<path d="M27924 4839 c-17 -19 -19 -42 -22 -288 -4 -293 0 -343 29 -372 29
-29 83 -25 109 8 20 26 21 34 18 336 -3 292 -4 309 -22 323 -30 21 -89 18
-112 -7z"/>
<path d="M26560 4719 l0 -131 60 4 c38 3 66 11 79 22 39 36 39 178 0 217 -14
14 -33 19 -79 19 l-60 0 0 -131z"/>
<path d="M27220 4725 l0 -135 45 0 c65 0 102 22 114 68 14 47 14 87 0 135 -12
45 -52 67 -119 67 l-40 0 0 -135z"/>
<path d="M29290 4725 l0 -135 45 0 c52 0 86 14 104 41 19 31 25 109 11 157 -9
35 -18 46 -45 58 -19 8 -53 14 -75 14 l-40 0 0 -135z"/>
<path d="M30006 4553 c-10 -71 -20 -140 -23 -155 -5 -28 -5 -28 47 -28 l53 0
-7 38 c-3 20 -13 90 -22 155 -10 64 -20 117 -24 117 -3 0 -14 -57 -24 -127z"/>
</g>
</svg>
