<?xml version="1.0" standalone="no"?>
<!DOCTYPE svg PUBLIC "-//W3C//DTD SVG 20010904//EN"
 "http://www.w3.org/TR/2001/REC-SVG-20010904/DTD/svg10.dtd">
<svg version="1.0" xmlns="http://www.w3.org/2000/svg"
 width="2000.000000pt" height="2000.000000pt" viewBox="0 0 2000.000000 2000.000000"
 preserveAspectRatio="xMidYMid meet">

<g transform="translate(0.000000,2000.000000) scale(0.100000,-0.100000)"
fill="#000000" stroke="none">
<path d="M5627 16033 c-4 -3 -7 -172 -7 -374 l0 -369 217 -2 c198 -3 218 -5
221 -20 3 -17 -12 -18 -217 -18 l-221 0 0 -50 0 -50 -405 0 -405 0 0 -1380 0
-1380 1950 0 1950 0 0 1825 0 1825 -1538 0 c-846 0 -1542 -3 -1545 -7z m2514
-141 c28 -23 30 -73 4 -102 -24 -26 -79 -26 -105 0 -63 63 31 158 101 102z
m279 -19 c50 -64 -30 -145 -98 -97 -16 11 -22 25 -22 54 0 29 6 43 22 54 35
25 73 20 98 -11z m-1720 -603 c0 -20 -7 -20 -275 -20 -268 0 -275 0 -275 20 0
20 7 20 275 20 268 0 275 0 275 -20z m-1500 -235 l0 -65 -30 0 -30 0 0 65 0
65 30 0 30 0 0 -65z m1910 -15 c0 -20 -5 -20 -217 -18 -198 3 -218 5 -221 21
-3 16 12 17 217 17 215 0 221 -1 221 -20z m-1910 -290 l0 -60 -30 0 -30 0 0
60 0 60 30 0 30 0 0 -60z m1150 40 c0 -19 -7 -20 -190 -20 -183 0 -190 1 -190
20 0 19 7 20 190 20 183 0 190 -1 190 -20z m1460 0 c0 -20 -7 -20 -620 -20
-613 0 -620 0 -620 20 0 20 7 20 620 20 613 0 620 0 620 -20z m-2610 -340 l0
-60 -30 0 -30 0 0 60 0 60 30 0 30 0 0 -60z m1140 -164 l0 -25 -212 2 c-213 2
-213 2 -216 25 l-3 22 215 0 216 0 0 -24z m-1140 -141 l0 -65 -30 0 -30 0 0
65 0 65 30 0 30 0 0 -65z m1890 -155 c0 -20 -8 -20 -330 -20 l-330 0 0 23 0
22 330 -3 c321 -2 330 -3 330 -22z m-1890 -145 l0 -65 -30 0 -30 0 0 65 0 65
30 0 30 0 0 -65z m1160 -105 c0 -19 -7 -20 -235 -20 -228 0 -235 1 -235 20 0
19 7 20 235 20 228 0 235 -1 235 -20z m1480 0 c0 -19 -7 -20 -235 -20 -228 0
-235 1 -235 20 0 19 7 20 235 20 228 0 235 -1 235 -20z m-2640 -200 l0 -60
-30 0 -30 0 0 60 0 60 30 0 30 0 0 -60z m2010 -50 c0 -20 -7 -20 -620 -20
-613 0 -620 0 -620 20 0 20 7 20 620 20 613 0 620 0 620 -20z m450 0 c0 -18
-9 -19 -170 -22 l-170 -3 0 23 c0 22 0 22 170 22 162 0 170 -1 170 -20z
m-2460 -255 l0 -65 -30 0 -30 0 0 65 0 65 30 0 30 0 0 -65z m3168 3 c3 -17
-32 -18 -622 -18 -620 0 -626 0 -626 20 0 20 5 20 622 18 584 -3 623 -4 626
-20z m-2228 -248 c0 -20 -7 -20 -314 -20 -199 0 -317 4 -321 10 -17 27 17 30
321 30 307 0 314 0 314 -20z m860 0 c0 -20 -7 -20 -315 -20 -308 0 -315 0
-315 20 0 20 7 20 315 20 308 0 315 0 315 -20z m840 0 c0 -20 -7 -20 -315 -20
-308 0 -315 0 -315 20 0 20 7 20 315 20 308 0 315 0 315 -20z m-2640 -25 c0
-32 -2 -35 -30 -35 -28 0 -30 3 -30 35 0 32 2 35 30 35 28 0 30 -3 30 -35z"/>
<path d="M9929 14368 c-36 -13 -84 -38 -106 -56 -135 -107 -129 -370 12 -521
98 -104 227 -123 520 -75 122 20 207 28 300 29 117 0 135 -2 178 -24 60 -29
90 -72 83 -121 -20 -147 -23 -129 30 -194 l49 -59 6 -121 c6 -133 20 -179 57
-184 12 -2 22 0 23 5 0 4 2 40 3 78 5 147 63 235 156 235 43 0 75 -36 96 -106
14 -48 16 -92 14 -229 -6 -330 -5 -338 7 -342 6 -2 27 10 46 27 38 33 49 59
136 336 79 251 94 323 95 454 1 161 -26 248 -105 338 -37 43 -46 68 -64 188
-8 54 -38 102 -72 115 -15 5 -61 14 -102 19 -90 12 -108 23 -166 103 -25 34
-55 67 -68 74 -38 21 -103 15 -179 -17 -122 -52 -147 -51 -244 15 -49 33 -94
32 -172 -5 -85 -40 -119 -38 -238 11 -127 54 -199 60 -295 27z"/>
<path d="M12660 12320 l0 -650 910 0 910 0 0 650 0 650 -910 0 -910 0 0 -650z
m760 415 c0 -42 -2 -45 -32 -53 l-33 -8 -5 -145 c-6 -150 -13 -179 -52 -200
-22 -12 -22 -12 5 -25 36 -19 47 -66 47 -205 0 -122 6 -139 47 -139 21 0 23
-4 23 -51 l0 -52 -56 6 c-62 6 -95 24 -121 64 -15 22 -19 55 -21 176 l-4 149
-29 10 c-27 9 -29 14 -29 58 0 42 3 50 23 56 12 4 25 12 29 18 4 6 8 65 8 131
0 66 5 137 11 158 17 63 66 94 152 96 l37 1 0 -45z m402 35 c20 -6 48 -24 62
-41 25 -29 26 -35 26 -164 0 -150 7 -180 44 -189 24 -6 26 -11 26 -56 0 -45
-2 -50 -26 -56 -37 -9 -44 -39 -44 -191 l0 -136 -34 -32 c-35 -33 -71 -45
-133 -45 l-34 0 3 48 c3 42 6 47 28 50 47 7 50 17 50 149 0 130 12 181 47 202
17 11 17 11 0 22 -35 21 -47 72 -47 202 0 133 -2 140 -53 152 -24 6 -27 12
-27 51 l0 44 38 0 c20 0 54 -5 74 -10z"/>
<path d="M3675 9491 c-80 -37 -111 -100 -103 -211 6 -85 33 -131 92 -159 l42
-21 5360 0 5360 0 44 23 c66 33 90 81 90 181 0 100 -27 153 -93 185 l-43 21
-5355 0 c-5184 0 -5355 -1 -5394 -19z"/>
<path d="M10039 9076 c-2 -2 -89 -18 -194 -36 -685 -113 -1364 -287 -1800
-460 -378 -150 -662 -338 -747 -495 -107 -200 -96 -888 33 -2060 45 -412 174
-1403 194 -1492 l5 -23 415 0 415 0 0 23 c0 12 -11 274 -25 582 -42 963 -57
1417 -59 1796 l-1 365 42 86 c26 51 58 99 80 118 l37 33 18 -124 c41 -291 134
-623 305 -1099 178 -495 455 -1160 707 -1702 l36 -78 53 24 c28 12 195 85 370
161 174 76 317 142 317 148 0 5 -38 127 -84 271 -427 1325 -620 2096 -555
2217 31 59 346 140 1474 379 341 72 655 139 698 148 l77 16 -2 420 -3 419
-110 44 c-329 132 -613 207 -940 247 -184 22 -232 26 -485 36 -194 7 -236 11
-246 24 -11 16 -17 19 -25 12z"/>
<path d="M14428 8590 c-249 -275 -380 -556 -443 -953 l-6 -37 -137 116 c-75
64 -162 144 -193 177 l-56 61 -48 -74 c-138 -215 -206 -456 -206 -730 0 -221
21 -325 132 -643 39 -111 88 -269 110 -352 42 -161 112 -322 194 -445 54 -82
147 -175 200 -202 78 -40 221 -66 198 -35 -6 6 -13 28 -16 47 -3 19 -8 44 -10
55 -3 11 -8 41 -11 68 l-7 47 -102 2 -102 2 98 3 97 4 0 29 c0 16 -4 40 -9 53
-9 23 -12 24 -49 14 -27 -7 -53 -7 -83 0 l-44 11 60 1 c33 1 71 4 83 8 22 5
23 9 17 52 -4 25 -11 67 -17 94 -10 47 -10 47 -51 49 l-42 1 38 4 c44 5 45 10
21 114 l-16 69 -38 -6 c-48 -8 -177 18 -278 56 -102 38 -81 38 33 -1 64 -22
116 -32 183 -36 108 -7 103 -15 69 121 l-23 90 -59 -1 c-61 -2 -59 1 8 12 43
7 44 13 21 96 l-16 57 -77 -3 -76 -4 70 12 c80 14 78 8 46 115 -19 61 -25 72
-39 67 -9 -4 -60 -9 -112 -10 l-95 -3 90 8 c132 11 134 13 113 81 -11 39 -12
39 -62 40 -28 0 -69 4 -91 8 -34 7 -26 9 48 10 48 0 87 4 87 9 0 4 -7 29 -15
57 -9 27 -13 55 -10 63 2 7 0 10 -5 7 -6 -3 -10 1 -10 9 0 11 -10 16 -32 17
-28 2 -29 2 -8 6 35 7 39 18 24 71 -7 26 -15 59 -18 75 -5 19 -13 27 -27 27
-50 0 -247 65 -235 77 2 3 17 -2 33 -11 28 -14 179 -56 202 -56 15 0 14 20 -9
119 -36 154 -36 154 -85 184 -53 34 -61 48 -9 18 20 -12 39 -19 42 -16 3 3 -9
51 -26 107 -17 56 -29 104 -28 106 2 2 21 -47 41 -109 l38 -112 19 24 19 24
-16 -34 c-15 -30 -15 -42 -5 -93 7 -32 17 -58 21 -58 5 0 22 19 39 42 16 22
30 38 30 34 0 -11 -41 -69 -58 -81 -11 -9 -10 -22 4 -79 l17 -68 38 39 c21 21
54 65 73 97 20 33 36 56 36 50 0 -18 -50 -96 -96 -150 l-47 -55 18 -76 18 -77
46 50 c25 27 54 60 64 74 15 21 16 21 7 3 -6 -13 -33 -52 -60 -87 l-49 -65 21
-73 c11 -40 22 -75 24 -77 6 -7 65 64 101 122 20 31 38 55 41 52 6 -6 -56
-102 -104 -161 -31 -39 -33 -45 -23 -75 6 -19 13 -40 15 -48 3 -8 29 19 66 67
34 45 64 79 66 78 2 -2 -24 -41 -57 -86 -34 -45 -61 -88 -61 -95 0 -7 10 -44
21 -81 l21 -69 51 55 c54 60 52 52 -6 -21 -20 -25 -37 -50 -37 -55 0 -4 12
-46 26 -92 l25 -84 31 41 c41 57 48 44 8 -14 l-33 -47 17 -76 c9 -42 19 -78
21 -81 3 -2 14 4 25 14 25 23 26 8 1 -19 -19 -21 -19 -23 -1 -104 10 -46 21
-87 25 -90 3 -4 15 4 25 18 12 16 20 20 20 11 0 -8 -10 -25 -21 -37 -20 -22
-21 -26 -9 -91 7 -37 17 -79 22 -93 l10 -25 29 34 c16 19 32 31 36 27 4 -4 -9
-23 -30 -42 l-37 -35 16 -62 c9 -34 18 -64 20 -66 2 -3 25 15 51 40 39 37 43
39 24 12 -11 -17 -35 -43 -51 -57 -17 -13 -26 -27 -21 -30 5 -4 12 -24 16 -46
4 -22 12 -40 18 -40 7 0 35 25 65 56 54 58 80 68 44 16 -12 -16 -39 -45 -61
-65 -30 -27 -40 -44 -39 -63 5 -62 55 -48 144 40 47 48 53 51 70 38 31 -23
157 -82 176 -82 16 0 18 10 18 69 l0 69 -62 7 c-35 4 -72 12 -83 16 -17 8 -17
9 5 5 14 -3 52 -8 85 -11 l60 -7 -3 70 -4 71 -46 7 c-26 3 -72 12 -102 20 -30
7 -39 11 -20 8 19 -2 68 -7 108 -11 l72 -6 0 60 0 60 -73 6 c-60 4 -90 13
-155 46 -45 23 -82 43 -82 46 0 3 22 -6 50 -20 61 -31 170 -57 219 -53 l36 3
0 115 0 115 -80 17 c-44 9 -107 26 -139 37 -63 22 -211 109 -202 119 3 3 14
-2 23 -11 58 -52 291 -137 377 -137 l29 0 -7 53 c-3 28 -6 78 -6 110 l0 57
-32 0 c-18 0 -58 7 -88 15 -62 16 -264 116 -307 152 -20 16 -9 13 37 -12 169
-93 281 -135 358 -135 l34 0 -7 133 c-4 72 -8 133 -9 134 -1 1 -33 5 -72 7
-116 9 -142 24 -30 18 l99 -5 -7 88 c-3 48 -8 91 -11 95 -2 4 -42 10 -87 14
-141 11 -163 23 -34 18 l119 -5 -7 89 c-11 141 -6 134 -90 136 l-71 1 67 6
c36 3 69 9 73 12 3 4 3 34 -1 67 l-6 60 -50 6 c-53 7 -176 50 -193 67 -5 6 11
1 38 -10 26 -11 49 -20 52 -20 3 0 33 -4 68 -8 34 -4 66 -8 72 -8 5 0 8 37 7
90 -4 105 -3 105 -109 136 -40 12 -72 24 -69 26 5 5 125 -26 149 -38 17 -9 18
-3 16 97 l-1 107 -42 15 c-77 30 -201 98 -273 151 -40 30 -73 55 -73 58 0 6
18 -5 91 -58 70 -50 155 -96 239 -129 l50 -20 0 90 0 90 -43 0 c-66 0 -132 27
-180 73 -24 23 -29 30 -13 15 63 -54 118 -72 209 -69 l28 1 -7 77 -7 76 -61
60 c-34 33 -45 48 -26 34 59 -46 80 -60 84 -56 4 5 -21 237 -28 255 -3 8 -2
14 3 14 9 0 27 -100 37 -208 4 -39 9 -72 12 -72 3 0 17 10 31 23 25 22 25 22
-2 -15 -22 -30 -27 -47 -26 -90 1 -29 4 -63 8 -76 l6 -23 36 27 c19 16 47 44
62 63 15 19 27 29 27 22 0 -6 -29 -41 -65 -76 -62 -63 -65 -67 -65 -114 0 -27
3 -62 6 -79 l6 -30 42 28 c54 37 135 122 180 189 20 29 36 49 36 44 0 -25
-107 -157 -179 -223 l-81 -73 0 -56 c0 -68 11 -136 19 -124 3 4 24 20 46 34
22 15 68 54 103 88 35 33 66 61 69 61 11 0 -152 -161 -190 -187 l-38 -27 6
-85 c9 -124 10 -126 43 -102 98 70 238 242 283 346 13 30 27 55 31 55 9 0 -33
-98 -64 -149 -48 -80 -162 -206 -241 -266 l-39 -29 7 -55 c4 -31 9 -58 11 -60
9 -9 251 217 287 269 16 23 16 22 0 -9 -26 -49 -88 -115 -193 -206 l-91 -80 6
-95 c3 -52 10 -98 13 -102 4 -4 21 4 37 17 17 14 51 44 78 66 26 22 47 37 47
34 0 -8 -79 -83 -125 -119 l-37 -29 6 -61 c4 -33 9 -85 12 -113 l6 -53 30 21
c16 12 75 67 131 123 79 79 94 90 67 52 -19 -27 -77 -89 -129 -137 l-95 -89 3
-102 c1 -57 4 -105 6 -107 10 -9 187 147 248 219 43 49 40 40 -7 -30 -38 -56
-95 -112 -174 -170 l-61 -45 -1 -112 c0 -68 4 -113 10 -113 16 0 171 143 224
206 64 77 74 86 52 49 -57 -93 -164 -207 -247 -262 l-37 -24 6 -112 c2 -62 6
-114 8 -116 2 -2 29 16 61 40 63 47 128 115 188 194 42 56 63 79 50 55 -42
-76 -174 -227 -241 -277 l-66 -48 7 -80 c4 -44 9 -82 10 -83 2 -2 23 9 47 25
69 47 76 48 29 4 -24 -22 -53 -43 -63 -47 -15 -4 -18 -12 -14 -27 3 -12 6 -41
6 -64 0 -24 5 -43 11 -43 37 0 233 169 313 270 25 31 26 31 11 5 -58 -100
-205 -251 -281 -288 l-46 -22 7 -45 c4 -25 8 -46 9 -47 2 -2 25 4 52 12 43 13
70 29 172 102 22 15 24 15 55 -14 18 -16 48 -39 67 -51 l35 -21 1 27 c4 62 9
102 15 102 7 0 29 79 29 104 0 8 -13 17 -31 21 -17 4 -28 9 -25 12 3 3 19 1
35 -5 29 -10 31 -10 41 26 15 55 13 62 -20 69 -16 3 -30 10 -30 15 0 6 14 8
35 4 33 -7 34 -6 45 36 6 24 15 59 21 78 14 55 11 64 -32 84 -50 23 -46 32 6
11 20 -9 40 -14 42 -11 11 11 42 161 35 167 -4 3 -23 12 -42 19 -39 15 -82 41
-77 46 1 2 27 -8 56 -22 29 -14 58 -23 65 -21 8 3 20 45 30 95 20 114 20 122
-3 122 -18 0 -111 37 -111 45 0 2 25 -5 57 -16 78 -27 81 -26 88 29 3 26 8 59
11 73 5 25 1 28 -60 50 -78 27 -81 37 -5 15 29 -9 58 -16 65 -16 7 0 14 25 18
63 4 34 10 74 13 90 5 23 2 27 -18 28 -13 0 -33 4 -44 9 -14 6 -7 7 22 3 39
-5 42 -4 48 21 16 80 20 72 -47 106 -35 17 -81 46 -103 66 l-40 35 50 -34 c50
-33 147 -79 153 -72 3 3 32 141 32 152 0 1 -20 14 -45 29 -56 32 -59 42 -5 14
42 -21 75 -27 65 -10 -8 13 15 129 27 136 5 4 -6 16 -25 28 -50 30 -143 113
-169 149 -12 17 5 4 38 -28 34 -33 82 -75 107 -93 40 -28 46 -30 51 -15 10 33
46 209 51 249 3 21 14 91 25 154 16 95 19 103 15 45 -3 -38 -8 -92 -12 -119
-6 -47 -5 -48 18 -41 23 7 23 7 -3 -14 -27 -21 -34 -42 -43 -116 -3 -22 -12
-69 -20 -104 -9 -35 -14 -65 -12 -68 9 -8 136 58 189 98 l53 41 -45 -42 c-25
-22 -77 -57 -116 -76 -40 -19 -76 -40 -82 -47 -11 -14 -32 -106 -32 -140 0
-12 4 -17 8 -12 4 6 32 21 62 33 65 26 41 3 -32 -31 -46 -21 -47 -23 -57 -82
-19 -106 -17 -109 50 -74 84 42 156 95 218 158 35 36 59 57 53 46 -31 -59
-201 -192 -296 -231 -41 -17 -45 -22 -51 -62 -4 -24 -4 -46 -1 -49 6 -6 213
101 237 123 8 8 20 14 25 14 17 0 -84 -65 -179 -115 l-95 -50 -10 -75 c-5 -41
-8 -77 -6 -79 2 -2 31 7 64 22 80 34 77 24 -5 -14 -71 -34 -68 -29 -84 -144
-11 -73 -9 -84 11 -68 7 6 45 27 83 48 39 21 77 43 85 50 22 17 40 27 40 21 0
-7 -73 -57 -130 -88 -113 -63 -106 -56 -118 -130 -19 -109 -25 -106 103 -39
64 33 113 56 110 51 -12 -20 -99 -73 -158 -97 -34 -14 -66 -28 -70 -33 -9 -8
-48 -172 -43 -177 8 -9 195 99 256 146 25 20 38 28 30 18 -28 -37 -146 -119
-221 -154 l-75 -36 -19 -84 c-10 -46 -15 -86 -12 -89 10 -11 149 64 227 122
41 30 59 41 40 23 -69 -62 -149 -116 -214 -145 -36 -15 -67 -33 -70 -40 -2 -6
-7 -36 -11 -67 l-7 -56 31 9 c17 5 45 16 63 24 17 9 33 14 35 12 6 -6 -99 -56
-118 -56 -11 0 -19 -11 -23 -31 -9 -47 -7 -79 4 -79 34 0 203 86 270 137 l35
27 -35 -35 c-65 -66 -183 -134 -250 -145 -33 -5 -40 -10 -40 -29 0 -13 -3 -31
-7 -40 -5 -16 0 -17 55 -13 88 6 195 61 263 136 104 113 157 270 208 610 40
267 114 661 151 807 17 66 34 159 37 207 5 76 2 97 -22 175 -15 48 -62 167
-105 263 -43 96 -88 208 -101 248 -26 83 -21 82 -119 17 -161 -107 -315 -270
-417 -440 l-48 -80 -6 180 c-7 180 -20 259 -55 327 -39 75 -114 183 -219 313
-137 170 -221 286 -248 343 -12 23 -24 42 -28 42 -4 0 -40 -36 -81 -80z m-184
-452 c9 -17 14 -33 12 -36 -4 -4 -36 51 -36 63 0 13 10 3 24 -27z m647 -215
c-8 -15 -10 -15 -11 -2 0 17 10 32 18 25 2 -3 -1 -13 -7 -23z m-35 -73 c-36
-54 -42 -51 -8 4 15 24 29 42 31 40 2 -2 -8 -22 -23 -44z m-663 -137 c35 -37
32 -44 -4 -12 -26 23 -59 69 -59 84 0 5 7 -2 17 -15 9 -14 30 -40 46 -57z
m1301 -16 c28 -41 35 -65 10 -32 -16 21 -51 84 -41 75 3 -3 17 -22 31 -43z
m-187 -19 c-3 -8 -6 -5 -6 6 -1 11 2 17 5 13 3 -3 4 -12 1 -19z m-982 -56 c-5
-5 -83 36 -89 47 -3 5 16 -3 43 -18 27 -14 48 -27 46 -29z m1159 -121 c-5 -5
-93 29 -99 38 -2 5 20 -1 49 -13 30 -12 52 -23 50 -25z m136 44 c0 -7 -63 -45
-75 -45 -5 0 8 11 30 24 47 28 45 27 45 21z m-698 -27 c-7 -7 -12 -8 -12 -2 0
14 12 26 19 19 2 -3 -1 -11 -7 -17z m-1461 -25 c13 -16 12 -17 -3 -4 -17 13
-22 21 -14 21 2 0 10 -8 17 -17z m234 -93 c-3 -5 -30 -9 -58 -8 l-52 1 50 7
c28 4 54 8 58 8 5 1 5 -2 2 -8z m1484 -30 c11 -24 11 -24 -3 -6 -9 11 -16 24
-16 30 0 12 5 7 19 -24z m592 7 c-10 -9 -11 -8 -5 6 3 10 9 15 12 12 3 -3 0
-11 -7 -18z m-2316 -35 c-3 -3 -11 0 -18 7 -9 10 -8 11 6 5 10 -3 15 -9 12
-12z m1836 -89 c13 -16 12 -17 -3 -4 -17 13 -22 21 -14 21 2 0 10 -8 17 -17z
m-1835 -85 l29 -33 -32 29 c-31 28 -38 36 -30 36 2 0 16 -15 33 -32z m957 25
c-7 -2 -19 -2 -25 0 -7 3 -2 5 12 5 14 0 19 -2 13 -5z m-874 -79 c14 -12 -19
-1 -35 12 -18 14 -18 14 6 3 14 -6 27 -13 29 -15z m2211 -18 c0 -2 -8 -10 -17
-17 -16 -13 -17 -12 -4 4 13 16 21 21 21 13z m-2042 -13 c-10 -2 -28 -2 -40 0
-13 2 -5 4 17 4 22 1 32 -1 23 -4z m437 -13 c10 -11 16 -20 13 -20 -3 0 -13 9
-23 20 -10 11 -16 20 -13 20 3 0 13 -9 23 -20z m1565 -25 c-7 -8 -17 -15 -23
-15 -6 0 -2 7 9 15 25 19 30 19 14 0z m-1439 -239 c19 -9 27 -15 19 -16 -21 0
-111 53 -135 80 -13 15 -2 10 31 -13 28 -20 66 -43 85 -51z m126 -42 c-3 -3
-12 -4 -19 -1 -8 3 -5 6 6 6 11 1 17 -2 13 -5z m1243 -98 c0 -2 -8 -10 -17
-17 -16 -13 -17 -12 -4 4 13 16 21 21 21 13z m-2046 -195 c3 -4 26 -14 51 -21
25 -7 43 -15 41 -17 -3 -3 -22 1 -43 7 -41 14 -85 40 -66 40 7 0 14 -4 17 -9z
m1986 -36 c-7 -9 -15 -13 -17 -11 -7 7 7 26 19 26 6 0 6 -6 -2 -15z m-1827
-12 c-7 -2 -21 -2 -30 0 -10 3 -4 5 12 5 17 0 24 -2 18 -5z m-18 -353 c3 -6
-1 -7 -9 -4 -18 7 -21 14 -7 14 6 0 13 -4 16 -10z m79 -25 c28 -8 79 -19 111
-25 l60 -9 -65 4 c-36 2 -90 13 -120 24 -66 23 -58 27 14 6z m1146 -39 c0 -2
-8 -10 -17 -17 -16 -13 -17 -12 -4 4 13 16 21 21 21 13z m-30 -39 c0 -1 -26
-27 -57 -57 l-58 -55 55 58 c50 53 60 62 60 54z m-1003 -153 c-3 -3 -12 -4
-19 -1 -8 3 -5 6 6 6 11 1 17 -2 13 -5z m90 -240 c-3 -3 -12 -4 -19 -1 -8 3
-5 6 6 6 11 1 17 -2 13 -5z m106 -1 c-7 -2 -21 -2 -30 0 -10 3 -4 5 12 5 17 0
24 -2 18 -5z"/>
<path d="M12200 8254 l0 -295 23 6 c12 3 54 22 94 41 102 49 180 129 238 246
25 50 44 92 43 93 -2 1 -92 47 -200 103 l-198 102 0 -296z"/>
<path d="M12340 7579 c-30 -10 -74 -23 -97 -29 l-43 -11 0 -114 c0 -105 2
-115 18 -115 36 0 112 61 142 113 26 46 48 140 39 165 -2 5 -29 1 -59 -9z"/>
<path d="M10380 7466 c0 -41 98 -136 158 -154 26 -8 140 -12 346 -12 l306 0 0
-1275 0 -1275 -90 0 -90 0 0 -250 0 -250 370 0 370 0 0 250 0 250 -90 0 -90 0
0 1275 0 1275 145 0 145 0 0 85 0 85 -27 0 c-16 0 -84 -7 -153 -14 -428 -49
-1032 -43 -1272 10 -16 4 -28 3 -28 0z"/>
<path d="M10243 4405 c-182 -94 -369 -99 -477 -14 -15 12 -32 19 -39 16 -7 -2
-121 -101 -254 -220 -133 -118 -297 -261 -365 -317 -68 -57 -127 -106 -131
-110 -4 -3 57 6 135 22 160 32 960 178 1253 229 105 18 194 36 199 40 4 4 -38
95 -94 203 -86 167 -105 196 -123 195 -12 -1 -59 -21 -104 -44z"/>
<path d="M7410 4152 c-118 -76 -291 -184 -385 -241 -93 -58 -183 -113 -200
-123 -30 -19 -29 -19 185 -13 299 8 1140 25 1287 25 l121 0 -70 213 c-39 116
-74 216 -79 221 -4 5 -49 -5 -106 -24 -192 -64 -364 -49 -465 40 -26 22 -52
40 -60 40 -7 0 -110 -62 -228 -138z"/>
<path d="M11192 3782 c2 -116 7 -163 17 -175 11 -15 37 -17 172 -17 201 0 189
-12 189 197 l0 153 -191 0 -190 0 3 -158z"/>
<path d="M12896 3918 c-67 -103 -25 -252 87 -309 32 -17 54 -20 113 -17 63 3
77 7 111 34 21 17 48 45 60 63 40 59 42 155 3 219 l-20 32 -170 0 c-165 0
-170 -1 -184 -22z"/>
<path d="M9683 3687 c-176 -33 -181 -37 -102 -78 45 -23 144 -26 192 -6 32 14
107 88 107 107 0 14 -13 12 -197 -23z"/>
</g>
</svg>
