<svg id="Слой_1" xmlns="http://www.w3.org/2000/svg" viewBox="0 0 455 170.4"><style>.st0{fill:#231f20}.st1{fill:#fff}.st2{fill:#00425c}.st3{fill:#00adee}.st4{opacity:.5;fill:#76a6bc}</style><path class="st0" d="M154.5 124.1c4.8 26.1-17.4 47.5-56.2 46.3C50 168.8.7 134.7 0 97.3c-.4-21.1 16.2-34.7 39.4-38.6 3.4-.6 6.9-.9 10.6-1.1 6.5-.3 13.2.1 20.2 1.2 5.1.8 10.2 1.9 15.4 3.5 5.1 1.5 9.9 3.3 14.6 5.3 6 2.6 11.7 5.6 16.9 8.9 2.8 1.8 5.5 3.6 8 5.6 15.6 11.8 26.7 26.9 29.4 42z"/><path class="st1" d="M99 169.2c-45.2-4.1-89.7-36.2-88.6-68.1.1-2.3.4-4.6 1-6.7 3.9-14 18.7-22.3 37.8-24 3.2-.3 6.5-.4 9.9-.3 2.5.1 5.1.2 7.7.5 2.5.2 5 .6 7.5 1 1.2.2 2.4.5 3.7.7.4.1.8.2 1.3.3.1 0 .2 0 .3.1 3.2.7 6.4 1.5 9.6 2.5 1 .3 2 .6 3 1 2.5.8 4.9 1.8 7.3 2.7 2.1.8 4.1 1.7 6.1 2.7 5.5 2.6 10.7 5.5 15.4 8.6 1 .7 2.1 1.4 3.1 2.1 1.4 1 2.8 2 4.2 3.1 3.2 2.5 6.2 5.2 8.9 8 2.2 2.2 4.2 4.4 6 6.7 2.8 3.5 5.1 7.2 6.8 10.8 2 4 3.3 8.1 3.8 12.1 3.4 22.6-18.5 39.6-54.8 36.2z"/><path class="st2" d="M143.3 110.1c-1.6 5-3.7 9.8-6.2 14-7.7 13.4-18.3 20.7-29.7 20.7-11.5 0-22-7.3-29.8-20.7-7.1-12.3-11-28.4-11-45.4 0-2.7.1-5.4.3-8 2.5.2 5 .6 7.5 1 1.2.2 2.4.5 3.7.7.4.1.8.2 1.3.3.1 0 .2 0 .3.1 3.2.7 6.4 1.5 9.6 2.5 1 .3 2 .6 3 1 2.5.8 4.9 1.8 7.3 2.7 2.1.8 4.1 1.7 6.1 2.7 5.5 2.6 10.7 5.5 15.4 8.6 1 .7 2.1 1.4 3.1 2.1 1.4 1 2.8 2 4.2 3.1 3.2 2.5 6.2 5.2 8.9 8 2.2 2.1 4.2 4.4 6 6.6z"/><path class="st3" d="M137.3 103.4c-5.3 19.4-16.7 32.8-29.9 32.8-18.3 0-33.2-25.7-33.2-57.5 0-2.4.1-4.7.3-7 1.2.2 2.4.5 3.7.7.4.1.8.2 1.3.3.1 0 .2 0 .3.1 3.2.7 6.4 1.5 9.6 2.5 1 .3 2 .6 3 1 2.5.8 4.9 1.8 7.3 2.7 2.1.8 4.1 1.7 6.1 2.7 5.5 2.6 10.7 5.5 15.4 8.6 1 .7 2.1 1.4 3.1 2.1 1.4 1 2.8 2 4.2 3.1 3.1 2.5 6.1 5.2 8.8 7.9z"/><path class="st2" d="M124.2 92.4c-2.9 15.6-10.3 26.5-16.9 26.5-7.3 0-15.6-13.3-17.7-31.8-.3-2.7-.5-5.5-.5-8.4 0-1.1 0-2.3.1-3.4 1 .3 2 .6 3 1 2.5.8 4.9 1.8 7.3 2.7 2.1.8 4.1 1.7 6.1 2.7 5.5 2.6 10.7 5.5 15.4 8.6 1.2.6 2.2 1.3 3.2 2.1z"/><path class="st1" d="M100.2 79.2c-.1.9-.3 1.7-.5 2.5-1.4 5.5-5.3 9.4-9.9 9.4h-.1c-5.8-.1-10.5-6.4-10.5-14.2 0-.9.1-1.8.2-2.6.1-.5.2-1.1.3-1.6 3.2.7 6.4 1.5 9.6 2.5 1 .3 2 .6 3 1 2.5.8 4.9 1.8 7.3 2.7.3.2.4.2.6.3z"/><path class="st0" d="M0 23.6s.4-.8 1.5-2.2c1-1.4 2.6-3.4 4.9-5.7 2.3-2.3 5.4-4.9 9.3-7.4 3.9-2.5 8.8-4.8 14.4-6.3C35.8.4 42.2-.3 49 .1c6.8.4 13.8 2 20.6 4.7C76.4 7.4 83 11 89.3 15.1c6.2 4.2 12.1 9 17.6 14.1 2.8 2.5 5.3 5.3 7.9 7.9 1.3 1.4 2.5 2.7 3.7 4.1l1.8 2.1.9 1 .5.5.4.5.2.3c4.2 5.3 8.7 10.6 13 15.6 8.7 10 17.3 18.8 25.2 25.5 4 3.3 7.9 6.2 10.7 6.7.7.1 1.2.1 1.6-.1.4-.2.9-.6 1.3-1.1.8-1.2 1.3-2.8 1.5-4.2.5-2.9.6-5.5.5-7.1 0-1.7-.1-2.6-.1-2.6s.4.8.9 2.5c.5 1.6 1.3 4.1 1.6 7.4.1 1.7.2 3.6-.6 5.9-.4 1.1-1.1 2.4-2.4 3.4-1.2 1-2.9 1.6-4.4 1.7-1.5.2-3 0-4.4-.3-1.4-.3-2.7-.7-4-1.3-2.6-1-4.9-2.3-7.4-3.7-9.8-5.7-20-13.9-29.9-23.5-2.5-2.4-5-4.9-7.4-7.5-2.5-2.6-4.9-5.2-7.3-8.1-2.3-2.4-4.6-4.9-7-7.4-2.5-2.4-4.9-5-7.4-7.2-2.5-2.3-5-4.7-7.7-6.8-2.6-2.2-5.3-4.2-7.9-6.3-5.4-3.9-11-7.3-16.6-10-5.6-2.7-11.3-4.7-16.8-5.7-5.5-1.1-10.9-1.3-15.9-.8-10 .9-18.1 4.5-23.5 7.5C5.5 19.6 3.4 21 2.1 22 .7 23 0 23.6 0 23.6zm455 0s-.7-.6-2.1-1.6c-1.4-1-3.5-2.3-6.1-3.9-5.4-3-13.6-6.5-23.5-7.5-5-.5-10.3-.3-15.9.8-5.5 1.1-11.2 3-16.8 5.7-5.6 2.7-11.1 6.2-16.6 10-2.7 2.1-5.4 4-7.9 6.3-2.7 2.1-5.2 4.5-7.7 6.8-2.6 2.3-5 4.8-7.4 7.2-2.3 2.5-4.7 4.9-7 7.4-2.4 2.9-4.8 5.5-7.3 8.1-2.4 2.6-4.9 5.1-7.4 7.5-9.9 9.6-20.1 17.8-29.9 23.5-2.5 1.4-4.8 2.7-7.4 3.7-1.4.5-2.6 1-4 1.3-1.4.3-2.8.5-4.4.3-1.5-.1-3.2-.7-4.4-1.7-1.2-1-2-2.3-2.4-3.4-.8-2.3-.7-4.3-.6-5.9.3-3.4 1.1-5.8 1.6-7.4.5-1.6.9-2.5.9-2.5s-.1.9-.1 2.6c0 1.7 0 4.2.5 7.1.3 1.4.7 3 1.5 4.2.4.6.9.9 1.3 1.1.5.2.9.2 1.6.1 2.8-.5 6.7-3.3 10.7-6.7 7.9-6.7 16.5-15.6 25.2-25.5 4.3-5 8.8-10.3 13-15.6l.2-.3.4-.5.5-.5.9-1 1.8-2.1c1.2-1.4 2.4-2.8 3.7-4.1 2.6-2.6 5.2-5.4 7.9-7.9 5.5-5.1 11.4-9.9 17.6-14.1 6.3-4.2 12.9-7.7 19.7-10.3C391.9 2.2 399 .6 405.7.1c6.8-.5 13.2.3 18.9 1.9 5.7 1.6 10.5 3.9 14.4 6.3 3.9 2.5 7 5.1 9.3 7.4 2.3 2.3 3.9 4.3 4.9 5.7 1.4 1.3 1.8 2.2 1.8 2.2z"/><path class="st4" d="M150.1 121C68.6 64.2 27.1 82 11.5 94.5c3.9-14 18.7-22.3 37.8-24 3.2-.3 6.5-.4 9.9-.3 2.5.1 5.1.2 7.7.5 2.5.2 5 .6 7.5 1 1.2.2 2.4.5 3.7.7.4.1.8.2 1.3.3 3.3.7 6.6 1.6 9.9 2.6 1 .3 2 .6 3 1 2.5.8 4.9 1.8 7.3 2.7 2.1.8 4.1 1.7 6.1 2.7 5.5 2.6 10.7 5.5 15.4 8.6 1 .7 2.1 1.4 3.1 2.1 1.4 1 2.8 2 4.2 3.1 3.2 2.5 6.2 5.2 8.9 8 2.2 2.2 4.2 4.4 6 6.7 2.7 3.5 5.1 7.1 6.8 10.8z"/><path class="st0" d="M300.5 124.1c-4.8 26.1 17.4 47.5 56.2 46.3 48.3-1.5 97.6-35.7 98.3-73 .4-21.1-16.2-34.7-39.4-38.6-3.4-.6-6.9-.9-10.6-1.1-6.5-.3-13.2.1-20.2 1.2-5.1.8-10.2 1.9-15.4 3.5-5.1 1.5-9.9 3.3-14.6 5.3-6 2.6-11.7 5.6-16.9 8.9-2.8 1.8-5.5 3.6-8 5.6-15.6 11.7-26.7 26.8-29.4 41.9z"/><path class="st1" d="M444.5 101.1c1.2 31.9-43.4 64-88.6 68.1-36.3 3.3-58.2-13.6-54.9-36.2.6-4 1.9-8.1 3.8-12.1 1.8-3.7 4.1-7.3 6.9-10.8 1.8-2.3 3.8-4.5 6-6.7 1.7-1.7 3.5-3.4 5.3-5l3.6-3c1.3-1 2.7-2.1 4.1-3.1 1-.7 2-1.4 3.1-2.1.8-.5 1.6-1 2.4-1.6 4.1-2.5 8.4-4.9 13-7.1 2-.9 4-1.8 6.1-2.6 2.4-1 4.8-1.9 7.3-2.7 1-.4 2-.7 3-1 3.2-1 6.5-1.9 9.6-2.5.1 0 .2-.1.3-.1.4-.1.9-.2 1.3-.3 1.2-.2 2.5-.5 3.7-.7 2.5-.5 5-.8 7.5-1 2.6-.3 5.2-.5 7.7-.5 3.4-.1 6.7 0 9.9.3 19.1 1.7 33.9 10 37.8 24 .7 2.2 1.1 4.4 1.1 6.7z"/><path class="st2" d="M311.7 110.1c1.6 5 3.7 9.8 6.2 14 7.7 13.4 18.3 20.7 29.7 20.7 11.5 0 22-7.3 29.8-20.7 7.1-12.3 11-28.4 11-45.4 0-2.7-.1-5.4-.3-8-2.5.2-5 .6-7.5 1-1.2.2-2.4.5-3.7.7-.4.1-.8.2-1.3.3-.1 0-.2 0-.3.1-3.2.7-6.4 1.5-9.6 2.5-1 .3-2 .6-3 1-2.5.8-4.9 1.8-7.3 2.7-2.1.8-4.1 1.7-6.1 2.7-5.5 2.6-10.7 5.5-15.4 8.6-1 .7-2.1 1.4-3.1 2.1-1.4 1-2.8 2-4.2 3.1-3.2 2.5-6.2 5.2-8.9 8-2.2 2.1-4.2 4.4-6 6.6z"/><path class="st3" d="M317.7 103.4c5.3 19.4 16.7 32.8 29.9 32.8 18.3 0 33.2-25.7 33.2-57.5 0-2.4-.1-4.7-.3-7-1.2.2-2.4.5-3.7.7-.4.1-.8.2-1.3.3-.1 0-.2 0-.3.1-3.2.7-6.4 1.5-9.6 2.5-1 .3-2 .6-3 1-2.5.8-4.9 1.8-7.3 2.7-2.1.8-4.1 1.7-6.1 2.7-5.5 2.6-10.7 5.5-15.4 8.6-1 .7-2.1 1.4-3.1 2.1-1.4 1-2.8 2-4.2 3.1-3.1 2.5-6.1 5.2-8.8 7.9z"/><path class="st2" d="M330.8 92.4c2.9 15.6 10.3 26.5 16.9 26.5 7.3 0 15.6-13.3 17.7-31.8.3-2.7.5-5.5.5-8.4 0-1.1 0-2.3-.1-3.4-1 .3-2 .6-3 1-2.5.8-4.9 1.8-7.3 2.7-2.1.8-4.1 1.7-6.1 2.7-5.5 2.6-10.7 5.5-15.4 8.6-1.2.6-2.2 1.3-3.2 2.1z"/><path class="st1" d="M339 96.9c0 6-3.6 10.9-8 10.9-4 0-7.4-4.1-7.9-9.3l3.6-3c1.3-1 2.7-2.1 4.1-3.1 1-.7 2-1.4 3.1-2.1.8-.5 1.6-1 2.4-1.6 1.6 2 2.7 4.9 2.7 8.2z"/><path class="st4" d="M304.9 121c81.5-56.8 123-38.9 138.6-26.5-3.9-14-18.7-22.3-37.8-24-3.2-.3-6.5-.4-9.9-.3-2.5.1-5.1.2-7.7.5-2.5.2-5 .6-7.5 1-1.2.2-2.4.5-3.7.7-.4.1-.8.2-1.3.3-3.3.7-6.6 1.6-9.9 2.6-1 .3-2 .6-3 1-2.5.8-4.9 1.8-7.3 2.7-2.1.8-4.1 1.7-6.1 2.7-5.5 2.6-10.7 5.5-15.4 8.6-1 .7-2.1 1.4-3.1 2.1-1.4 1-2.8 2-4.2 3.1-3.2 2.5-6.2 5.2-8.9 8-2.2 2.2-4.2 4.4-6 6.7-2.7 3.5-5.1 7.1-6.8 10.8z"/></svg>